<svg viewBox="0 0 379 100" fill="none" xmlns="http://www.w3.org/2000/svg">
<g clip-path="url(#clip0)">
<path d="M95.8619 46.1359L76.3423 12.1883C75.6083 10.8865 74.5469 9.79908 73.2634 9.03363C71.9798 8.26819 70.5186 7.85129 69.0244 7.82422H29.9779C28.4835 7.85055 27.022 8.26714 25.7383 9.03266C24.4546 9.79818 23.3934 10.886 22.6599 12.1883L3.13296 46.0469C2.39064 47.3386 2 48.8024 2 50.2922C2 51.782 2.39064 53.2458 3.13296 54.5375L22.6525 88.6781C23.3787 89.9988 24.4343 91.1092 25.7166 91.9012C26.9989 92.6932 28.4644 93.14 29.9705 93.198H69.0169C70.5228 93.1464 71.9894 92.7047 73.2735 91.9164C74.5575 91.128 75.6149 90.0199 76.3423 88.7004L95.8619 54.7527C96.6095 53.4399 97.0027 51.9551 97.0027 50.4443C97.0027 48.9335 96.6095 47.4488 95.8619 46.1359Z" fill="black"/>
<path d="M50.2056 40.8625L60.2056 56.8625H40.2056L50.2056 40.8625Z" fill="#EF9E3F"/>
<path d="M45.8819 47.9037L32.0587 69.725L23 35.9176L45.8819 47.9037Z" fill="#C63E3E"/>
<path d="M54.5294 47.9038L77.4113 35.9177L68.3527 69.7251L54.5294 47.9038Z" fill="#486DAA"/>
</g>
<path d="M138.555 25.2578H146.535V45.543H165.168V25.2578H173.113V73H165.168V51.6602H146.535V73H138.555V25.2578ZM181.41 55.3867C181.41 52.0117 181.82 49.1055 182.641 46.668C183.461 44.2305 184.609 42.2266 186.086 40.6562C187.562 39.0859 189.32 37.9375 191.359 37.2109C193.422 36.4609 195.684 36.0859 198.145 36.0859C200.418 36.0859 202.445 36.4727 204.227 37.2461C206.031 37.9961 207.555 39.0625 208.797 40.4453C210.039 41.8281 210.988 43.4805 211.645 45.4023C212.301 47.3242 212.629 49.4453 212.629 51.7656C212.629 52.5625 212.594 53.3008 212.523 53.9805C212.453 54.6602 212.371 55.2461 212.277 55.7383C212.184 56.3242 212.078 56.8516 211.961 57.3203L188.898 57.2148C188.922 59.3008 189.145 61.0352 189.566 62.418C189.988 63.7773 190.609 64.8555 191.43 65.6523C192.273 66.4492 193.328 67.0117 194.594 67.3398C195.859 67.6445 197.359 67.7969 199.094 67.7969C200.57 67.7969 201.895 67.7031 203.066 67.5156C204.238 67.3281 205.234 67.1055 206.055 66.8477C206.992 66.5664 207.836 66.2383 208.586 65.8633C208.938 66.6836 209.207 67.4453 209.395 68.1484C209.605 68.8516 209.758 69.4609 209.852 69.9766C209.945 70.5859 210.016 71.125 210.062 71.5938C209.289 71.9922 208.352 72.3438 207.25 72.6484C206.312 72.9062 205.164 73.1406 203.805 73.3516C202.445 73.5859 200.875 73.7031 199.094 73.7031C196.281 73.7031 193.773 73.3867 191.57 72.7539C189.391 72.1211 187.539 71.0898 186.016 69.6602C184.516 68.207 183.367 66.3203 182.57 64C181.797 61.6562 181.41 58.7852 181.41 55.3867ZM205.105 52.082V50.8867C205.105 49.4102 204.918 48.1094 204.543 46.9844C204.191 45.8359 203.699 44.875 203.066 44.1016C202.434 43.3281 201.684 42.7422 200.816 42.3438C199.949 41.9453 199.012 41.7461 198.004 41.7461C196.527 41.7461 195.227 41.9453 194.102 42.3438C192.977 42.7188 192.027 43.3281 191.254 44.1719C190.504 44.9922 189.941 46.0586 189.566 47.3711C189.191 48.6836 189.004 50.2539 189.004 52.082H205.105ZM228.871 54.5781C227.91 53.2188 226.949 51.8008 225.988 50.3242C225.027 48.8242 224.066 47.3242 223.105 45.8242C222.145 44.3008 221.184 42.8008 220.223 41.3242C219.262 39.8477 218.301 38.4297 217.34 37.0703H225.391L232.352 48.3203L233.371 50.5L234.355 48.3203C235.574 46.4922 236.746 44.6172 237.871 42.6953C238.996 40.7734 240.156 38.8984 241.352 37.0703H249.332L237.344 55.1758L249.121 73H241.07L233.723 61.2578L232.773 59.1836L231.824 61.2578L224.723 73H216.812L228.871 54.5781ZM252.812 62.7344C252.812 60.7891 253.094 59.1367 253.656 57.7773C254.219 56.418 255.039 55.3047 256.117 54.4375C257.219 53.5703 258.543 52.9258 260.09 52.5039C261.66 52.0586 263.453 51.7773 265.469 51.6602L273.309 51.2383V48.4258C273.309 47.1602 273.191 46.1172 272.957 45.2969C272.746 44.4766 272.383 43.8203 271.867 43.3281C271.352 42.8359 270.66 42.4961 269.793 42.3086C268.949 42.0977 267.895 41.9922 266.629 41.9922C265.363 41.9922 264.156 42.1328 263.008 42.4141C261.883 42.6953 260.898 43 260.055 43.3281C259.047 43.7266 258.121 44.1719 257.277 44.6641C256.762 43.9375 256.352 43.2461 256.047 42.5898C255.742 41.9102 255.508 41.3008 255.344 40.7617C255.133 40.1523 254.992 39.5664 254.922 39.0039C256.047 38.4414 257.254 37.9492 258.543 37.5273C259.668 37.1523 260.957 36.8125 262.41 36.5078C263.887 36.2031 265.434 36.0508 267.051 36.0508C269.723 36.0508 271.938 36.2852 273.695 36.7539C275.453 37.2227 276.848 37.9375 277.879 38.8984C278.934 39.8359 279.66 41.0312 280.059 42.4844C280.48 43.9141 280.691 45.6133 280.691 47.582V67.1992L283.645 70.7852V73H277.141L274.434 69.8711H273.168C273.051 69.9883 272.734 70.2578 272.219 70.6797C271.727 71.0781 271.082 71.5117 270.285 71.9805C269.512 72.4258 268.621 72.8242 267.613 73.1758C266.629 73.5273 265.574 73.7031 264.449 73.7031C262.691 73.7031 261.098 73.4453 259.668 72.9297C258.238 72.3906 257.008 71.6406 255.977 70.6797C254.969 69.6953 254.184 68.5352 253.621 67.1992C253.082 65.8398 252.812 64.3516 252.812 62.7344ZM260.477 62.1016C260.477 63.1797 260.629 64.082 260.934 64.8086C261.238 65.5117 261.66 66.0742 262.199 66.4961C262.762 66.918 263.43 67.2109 264.203 67.375C265 67.5391 265.879 67.6211 266.84 67.6211C267.73 67.6211 268.562 67.5156 269.336 67.3047C270.133 67.0703 270.824 66.8125 271.41 66.5312C272.09 66.2266 272.723 65.8633 273.309 65.4414V55.9844L266.242 56.4414C265.141 56.5117 264.215 56.6992 263.465 57.0039C262.738 57.3086 262.152 57.707 261.707 58.1992C261.262 58.6914 260.945 59.2773 260.758 59.957C260.57 60.6133 260.477 61.3281 260.477 62.1016ZM289.797 22.4102H297.074V67.0938L299.148 68.5703V73H297.145L297.074 72.9297V73C294.754 73 292.961 72.5312 291.695 71.5938C290.43 70.6562 289.797 69.1094 289.797 66.9531V22.4102ZM308.852 42.5195H304.246C304.223 42.2617 304.199 41.9805 304.176 41.6758C304.152 41.418 304.129 41.1133 304.105 40.7617C304.105 40.4102 304.105 40.0234 304.105 39.6016C304.105 39.1797 304.117 38.793 304.141 38.4414C304.164 38.0664 304.199 37.6094 304.246 37.0703H308.852V31.4805L312.895 26.9102H316.023V37.0703H325.973C326.02 37.3047 326.055 37.5859 326.078 37.9141C326.125 38.2422 326.148 38.5586 326.148 38.8633C326.148 39.4023 326.09 39.8945 325.973 40.3398C325.879 40.7852 325.773 41.1719 325.656 41.5C325.516 41.875 325.352 42.2148 325.164 42.5195H316.023V62.9102C316.023 64.6211 316.305 65.8633 316.867 66.6367C317.453 67.4102 318.379 67.7969 319.645 67.7969C320.184 67.7969 320.746 67.7383 321.332 67.6211C321.941 67.4805 322.516 67.3164 323.055 67.1289C323.664 66.918 324.285 66.6836 324.918 66.4258C325.387 67.0352 325.75 67.6328 326.008 68.2188C326.289 68.8047 326.488 69.332 326.605 69.8008C326.746 70.3398 326.828 70.8438 326.852 71.3125C326.195 71.7578 325.457 72.1562 324.637 72.5078C323.91 72.8125 323.043 73.082 322.035 73.3164C321.027 73.5742 319.867 73.7031 318.555 73.7031C316.727 73.7031 315.191 73.4688 313.949 73C312.73 72.5547 311.734 71.8867 310.961 70.9961C310.211 70.082 309.672 68.957 309.344 67.6211C309.016 66.2617 308.852 64.7031 308.852 62.9453V42.5195ZM331.633 71.3828C331.633 70.8438 331.68 70.2578 331.773 69.625C331.844 69.0859 331.949 68.4766 332.09 67.7969C332.254 67.0938 332.488 66.3672 332.793 65.6172C333.824 66.0156 334.902 66.3672 336.027 66.6719C336.988 66.9297 338.031 67.1758 339.156 67.4102C340.281 67.6211 341.395 67.7266 342.496 67.7266C343.48 67.7266 344.395 67.6914 345.238 67.6211C346.082 67.5508 346.809 67.3633 347.418 67.0586C348.051 66.7305 348.543 66.25 348.895 65.6172C349.246 64.9609 349.422 64.0586 349.422 62.9102C349.422 61.5273 348.988 60.4375 348.121 59.6406C347.277 58.8438 345.801 58.2461 343.691 57.8477C341.512 57.4258 339.672 56.8633 338.172 56.1602C336.695 55.457 335.488 54.6484 334.551 53.7344C333.637 52.7969 332.969 51.7539 332.547 50.6055C332.148 49.457 331.949 48.2266 331.949 46.9141C331.949 44.9453 332.266 43.2695 332.898 41.8867C333.531 40.5039 334.445 39.3906 335.641 38.5469C336.859 37.6797 338.359 37.0586 340.141 36.6836C341.945 36.2852 344.008 36.0859 346.328 36.0859C347.945 36.0859 349.375 36.2031 350.617 36.4375C351.883 36.6484 352.938 36.8828 353.781 37.1406C354.766 37.4453 355.621 37.7969 356.348 38.1953C356.277 38.7109 356.148 39.2734 355.961 39.8828C355.797 40.3984 355.574 40.9844 355.293 41.6406C355.035 42.2969 354.684 42.9648 354.238 43.6445C353.605 43.2695 352.879 42.9414 352.059 42.6602C351.355 42.4023 350.512 42.1797 349.527 41.9922C348.543 41.7812 347.418 41.6758 346.152 41.6758C345.168 41.6758 344.254 41.7227 343.41 41.8164C342.59 41.9102 341.875 42.1211 341.266 42.4492C340.68 42.7773 340.223 43.2812 339.895 43.9609C339.566 44.6172 339.402 45.5195 339.402 46.668C339.402 47.2305 339.473 47.7461 339.613 48.2148C339.777 48.6602 340.082 49.0703 340.527 49.4453C340.996 49.8203 341.641 50.1719 342.461 50.5C343.305 50.8047 344.418 51.1094 345.801 51.4141C347.957 51.8828 349.75 52.4219 351.18 53.0312C352.633 53.6406 353.781 54.3789 354.625 55.2461C355.492 56.1133 356.102 57.1328 356.453 58.3047C356.828 59.4531 357.016 60.8242 357.016 62.418C357.016 64.1289 356.746 65.6758 356.207 67.0586C355.668 68.4414 354.824 69.625 353.676 70.6094C352.527 71.5938 351.051 72.3555 349.246 72.8945C347.441 73.4336 345.262 73.7031 342.707 73.7031C341.066 73.7031 339.566 73.5859 338.207 73.3516C336.871 73.1172 335.711 72.8477 334.727 72.543C333.578 72.2148 332.547 71.8281 331.633 71.3828Z" fill="black"/>
<defs>
<clipPath id="clip0">
<rect width="95" height="95" fill="white" transform="translate(2 3)"/>
</clipPath>
</defs>
</svg>
