<svg id="a8e852e2-c0ba-4fca-a58e-91e8abb97548" data-name="Layer 1" xmlns="http://www.w3.org/2000/svg" viewBox="0 0 1504.99 1071.81"><path d="M377.67,1457.29H272.59q-26.59,0-26.59-26.59v-26.8h26.59v26.8h78.28v-107h26.8Z" transform="translate(-246 -385.48)" fill="#243263"/><path d="M507.86,1457.29H401.07V1323.7H507.64v26.8h-80v26.81h79.56v26.59H427.66v26.8h80.2Z" transform="translate(-246 -385.48)" fill="#243263"/><path d="M687,1457.29h-26.8v-75.94l-36.37,75.94H590.18l-36.38-75.94v75.94h-27V1323.7h28.29l52.33,107,52.54-107h27Z" transform="translate(-246 -385.48)" fill="#243263"/><path d="M843.53,1429.21q-.21,14-6,21.06t-20.42,7H710.58V1323.7H817.15q13.83,0,20,6.7t6.17,20.1v22.55q0,8.29-2.66,12.34t-9.47,6q6.81,1.49,9.79,5.74t3,12.76Zm-26.38-51.69v-27h-80v27Zm0,53.18v-28.5h-80v28.5Z" transform="translate(-246 -385.48)" fill="#243263"/><path d="M997.75,1457.29H971V1403.9H891v53.39H864.37V1350.5q0-12.54,7.34-19.67T891,1323.7h80a28.35,28.35,0,0,1,10.74,2,24.55,24.55,0,0,1,8.51,5.64,26.79,26.79,0,0,1,5.53,8.51,27.53,27.53,0,0,1,2,10.63Zm-26.8-80V1350.5H891v26.81Z" transform="translate(-246 -385.48)" fill="#243263"/><path d="M1146,1350.5h-53.61v106.79H1066V1350.5h-53.61v-26.8H1146Z" transform="translate(-246 -385.48)" fill="#243263"/><path d="M1294.28,1457.29h-26.8V1403.9h-80v53.39H1160.9V1350.5q0-12.54,7.34-19.67t19.25-7.13h80a28.31,28.31,0,0,1,10.74,2,24.55,24.55,0,0,1,8.51,5.64,26.79,26.79,0,0,1,5.53,8.51,27.53,27.53,0,0,1,2,10.63Zm-26.8-80V1350.5h-80v26.81Z" transform="translate(-246 -385.48)" fill="#243263"/><path d="M1450.21,1457.29h-16.39l-90-90.62v90.62h-27V1323.7h22.54l84.46,87v-87h26.38Z" transform="translate(-246 -385.48)" fill="#243263"/><path d="M1607.4,1457.29h-40.84L1500.19,1399v58.29H1473.6V1323.7h26.59v55.09l64.67-55.09h40.42l-77.22,64.88Z" transform="translate(-246 -385.48)" fill="#243263"/><path d="M1751,1430.7q0,11.91-7.34,19.25t-19.25,7.34h-80.2a27.53,27.53,0,0,1-10.63-2,25.33,25.33,0,0,1-8.4-5.53,24.11,24.11,0,0,1-5.43-8.4,28.87,28.87,0,0,1-1.91-10.64v-107h26.37v107h80.2v-107H1751Z" transform="translate(-246 -385.48)" fill="#243263"/><path d="M317.28,1174.31c21.23.46,43.19,1.63,65.69,3.56l32.24-33.52C378,1153.22,345,1163.26,317.28,1174.31Z" transform="translate(-246 -385.48)" fill="#243263"/><path d="M381.62,1179.26l4.25-1.13-2.9-.26Z" transform="translate(-246 -385.48)" fill="#243263"/><polygon points="835.2 0 807.96 0 807.96 94.93 835.2 66.61 835.2 0" fill="#243263"/><polygon points="835.2 170.23 807.96 217.66 807.96 276.01 835.2 217.25 835.2 170.23" fill="#243263"/><polygon points="835.2 116.37 807.96 152.57 807.96 203.01 835.2 157.95 835.2 116.37" fill="#243263"/><polygon points="835.2 75.54 807.96 105.15 807.96 140.9 835.2 106.34 835.2 75.54" fill="#243263"/><polygon points="835.2 232.86 807.96 295.25 807.96 374.47 835.2 298.09 835.2 232.86" fill="#243263"/><path d="M415.21,1144.35q22.32-5.31,46.69-10L1054,490.63V480.41Z" transform="translate(-246 -385.48)" fill="#243263"/><polygon points="855.96 52.97 852 49.15 835.2 66.61 835.2 75.54 855.96 52.97" fill="#243263"/><polygon points="854.22 91.1 849.89 87.69 835.2 106.34 835.2 116.37 854.22 91.1" fill="#243263"/><path d="M590,1115.1q15.91-1.78,32.31-3.35L1054,538.05V526.38Z" transform="translate(-246 -385.48)" fill="#243263"/><polygon points="854.22 137.12 849.51 134.28 835.2 157.95 835.2 170.23 854.22 137.12" fill="#243263"/><path d="M742.63,1103.54q12.17-.52,24.49-.94L1054,603.14V588.49Z" transform="translate(-246 -385.48)" fill="#243263"/><polygon points="854.22 189.3 849.23 186.99 835.2 217.25 835.2 232.86 854.22 189.3" fill="#243263"/><path d="M850.18,1101.14q10.07,0,20.23,0L1054,680.73V661.49Z" transform="translate(-246 -385.48)" fill="#243263"/><path d="M931.91,1102.16l5.39.14,11.81.37L1054,786.46V760Z" transform="translate(-246 -385.48)" fill="#243263"/><polygon points="850.63 254.81 835.2 298.09 835.2 318.84 855.82 256.66 850.63 254.81" fill="#243263"/><path d="M1161.35,625.82V652l258.81,513q5.11,1.38,10.13,2.8Z" transform="translate(-246 -385.48)" fill="#243263"/><path d="M1161.35,587.74v26.41l281.09,557.14q5,1.49,10,3Z" transform="translate(-246 -385.48)" fill="#243263"/><path d="M1161.35,548.55v26.19L1466,1178.55q4.83,1.56,9.55,3.15Z" transform="translate(-246 -385.48)" fill="#243263"/><path d="M1161.35,512v26.19l326.87,647.89q4.71,1.68,9.3,3.37Z" transform="translate(-246 -385.48)" fill="#243263"/><path d="M1161.35,474.61v26.33l350.05,693.83q4.65,1.83,9.14,3.7Z" transform="translate(-246 -385.48)" fill="#243263"/><path d="M1054,1257.25h27.24v-31.81q-13.67-.4-27.24-.72Z" transform="translate(-246 -385.48)" fill="#243263"/><path d="M1081.2,704.31,1054,786.46v352.81q13.71.82,27.24,1.74Z" transform="translate(-246 -385.48)" fill="#243263"/><path d="M1178.81,434.72l-49.33-49.24v759.18q25,2.08,49.33,4.52Z" transform="translate(-246 -385.48)" fill="#243263"/><path d="M1129.48,1257.25h49.33v-27.78q-24.45-1.31-49.33-2.33Z" transform="translate(-246 -385.48)" fill="#243263"/><path d="M1124.33,385.48h-31.74V1141.8q16,1.14,31.74,2.43Z" transform="translate(-246 -385.48)" fill="#243263"/><path d="M1092.59,1225.79v31.46h31.74v-30.31q-10.49-.42-21-.79Z" transform="translate(-246 -385.48)" fill="#243263"/><path d="M1475.83,1198.08l-9.85-19.53q-6.68-2.16-13.57-4.26l10.18,20.53c2.33.55,4.64,1.12,6.93,1.68Q1472.7,1197.28,1475.83,1198.08Z" transform="translate(-246 -385.48)" fill="#243263"/><path d="M1410.09,1183.18q6.71,1.36,13.27,2.77c2.78.58,5.52,1.18,8.26,1.78L1420.16,1165c-67.21-18.24-147.48-33.45-236.66-44.45v29.11c79.39,8.08,152.69,18.84,217.39,31.67Z" transform="translate(-246 -385.48)" fill="#243263"/><path d="M873.8,1133.37q8.46,0,17,.14,14.82.16,29.79.48l11.35-31.83q-31.06-.84-61.5-1l-14,32.13C862.17,1133.32,868,1133.33,873.8,1133.37Z" transform="translate(-246 -385.48)" fill="#243263"/><path d="M1453.18,1192.59l-10.74-21.3q-6-1.76-12.15-3.49l11,22,5.87,1.33Z" transform="translate(-246 -385.48)" fill="#243263"/><path d="M1049.5,1139v-31.25q-49.1-3.4-100.39-5.1l-10.52,31.73q16.18.4,32.51,1Q1010.9,1136.74,1049.5,1139Z" transform="translate(-246 -385.48)" fill="#243263"/><path d="M564.42,1147.54,590,1115.1c-46,5.13-88.91,11.59-128.09,19.21l-29.56,32.13c34.35-6.43,71.93-12,112.24-16.7Q554.39,1148.6,564.42,1147.54Z" transform="translate(-246 -385.48)" fill="#243263"/><path d="M813.86,1133.55q10.64-.13,21.38-.18l14.94-32.23q-42.3.1-83.06,1.46l-18.63,32.46q22.57-.76,45.72-1.2Q804,1133.67,813.86,1133.55Z" transform="translate(-246 -385.48)" fill="#243263"/><path d="M714,1136.42l9-.4,19.64-32.48c-41.74,1.79-82,4.56-120.33,8.21l-24.45,32.5q44.58-4.05,92.61-6.66Q702.12,1137,714,1136.42Z" transform="translate(-246 -385.48)" fill="#243263"/><path d="M1520.54,1198.47l6.88,13.85c21.64,6.58,41.38,13.45,59.08,20.55C1568.94,1220.89,1546.77,1209.37,1520.54,1198.47Z" transform="translate(-246 -385.48)" fill="#243263"/><path d="M1511.4,1194.77q-6.78-2.68-13.88-5.32l8.21,16.55q6.74,1.89,13.25,3.8Z" transform="translate(-246 -385.48)" fill="#243263"/><path d="M1497.07,1203.63l-8.85-17.55c-4.15-1.47-8.38-2.94-12.69-4.38l9.26,18.67c2.7.69,5.37,1.4,8,2.1Z" transform="translate(-246 -385.48)" fill="#243263"/><path d="M1586.5,1225.61c-17.7-6-37.44-11.81-59.08-17.37-2.78-.71-5.6-1.43-8.44-2.13q-6.51-1.62-13.25-3.22l-5-1.16-3.7-.85-4.26-1q-4-.9-8-1.78l-7.06-1.54-1.9-.4-6.31-1.33-6.93-1.43-6.95-1.4-2.46-.48-6.07-1.19-5.87-1.12q-4.41-.84-8.88-1.67l-.74-.13-8.26-1.51-13.27-2.34-9.2-1.56c-64.7-10.85-138-20-217.39-26.78l-4.69-.41q-24.3-2.05-49.33-3.82l-5.15-.36q-15.74-1.1-31.74-2.06l-11.39-.67q-13.53-.78-27.24-1.47c-1.48-.08-3-.14-4.46-.21q-38.6-1.9-78.4-3.1-16.33-.48-32.51-.81-9-.19-18-.35-15-.24-29.79-.4l-17-.12q-8.74,0-17.42,0-10.62,0-21.14,0-10.74,0-21.38.15-9.87.11-19.65.26-23.13.36-45.72,1-12.84.36-25.5.81l-9,.34q-11.84.45-23.49,1-48,2.19-92.61,5.63-11.34.87-22.46,1.82c-3.68.31-7.33.63-11,1q-10,.9-19.84,1.86c-40.31,4-77.89,8.69-112.24,14.13q-5.56.87-11,1.78-24.3,4-46.23,8.54c-21.56,4.43-41.3,9.19-59.06,14.25,30.86,1.58,62.72,4.2,95.1,7.94,66.61,7.69,127.59,19.18,179.42,33,5.89-.61,11.82-1.21,17.83-1.78q14.36-1.38,29.14-2.65c31.51-2.69,64.52-5,98.82-6.85q11.82-.64,23.84-1.22,35.1-1.68,71.82-2.77,10.18-.3,20.51-.55c64.28-1.58,131.8-1.77,201.45-.43q13.56.27,27.24.61l11.39.3,10.7.3q10.56.32,21,.67l5.15.17q24.88.87,49.33,2c101.28,4.57,196.67,12.12,282.78,22l4.51.52,3.07.36,5.51.65,8,1,4,.48,3.37.41,5,.62,9.79,1.24.34,0,3,.39,7.9,1c4.06.54,8.11,1.08,12.12,1.63l7.59,1c4.33.61,8.64,1.21,12.92,1.83L1556,1257c45.79,6.71,88,14.1,126,22.06C1668.53,1260.29,1635.36,1242.19,1586.5,1225.61Z" transform="translate(-246 -385.48)" fill="#243263"/></svg>