<svg viewBox="0 0 512 510" fill="#243263" xmlns="http://www.w3.org/2000/svg">
<path d="M0.464783 398.543C8.42238 398.776 16.6536 399.367 25.0872 400.342L37.1717 383.406C23.2243 387.888 10.855 392.96 0.464783 398.543Z"  />
<path d="M24.5812 401.044L26.1743 400.473L25.0873 400.342L24.5812 401.044Z"  />
<path d="M286.803 0H276.593V47.9618L286.803 33.6536V0Z"  />
<path d="M286.803 86.0059L276.593 109.969V139.449L286.803 109.762V86.0059Z"  />
<path d="M286.803 58.794L276.593 77.0835V102.567L286.803 79.8016V58.794Z"  />
<path d="M286.803 38.1653L276.593 53.1253V71.1874L286.803 53.7265V38.1653Z"  />
<path d="M286.803 117.649L276.593 149.17V189.195L286.803 150.605V117.649Z"  />
<path d="M37.1718 383.406C42.7492 381.618 48.5828 379.934 54.6725 378.354L276.608 53.1253V47.9618L37.1718 383.406Z"  />
<path d="M294.585 26.7622L293.101 24.8322L286.803 33.6536V38.1653L294.585 26.7622Z"  />
<path d="M293.933 46.0267L292.31 44.3039L286.803 53.7265V58.794L293.933 46.0267Z"  />
<path d="M102.688 368.628C106.664 368.029 110.7 367.465 114.799 366.936L276.608 77.0834V71.1873L102.688 368.628Z"  />
<path d="M293.933 69.2775L292.167 67.8427L286.803 79.8016V86.0058L293.933 69.2775Z"  />
<path d="M159.898 362.788C162.939 362.613 165.999 362.454 169.077 362.313L276.608 109.969V102.567L159.898 362.788Z"  />
<path d="M293.933 95.6407L292.062 94.4736L286.803 109.762V117.649L293.933 95.6407Z"  />
<path d="M200.211 361.575C202.727 361.575 205.255 361.575 207.793 361.575L276.608 149.17V139.449L200.211 361.575Z"  />
<path d="M230.845 362.091L232.866 362.161L237.292 362.348L276.608 202.588V189.22L230.845 362.091Z"  />
<path d="M292.587 128.738L286.803 150.605V161.089L294.532 129.673L292.587 128.738Z"  />
<path d="M316.846 121.428V134.655L413.855 393.839C415.132 394.304 416.398 394.776 417.652 395.254L316.846 121.428Z"  />
<path d="M316.846 102.188V115.532L422.206 397.017C423.456 397.519 424.705 398.024 425.955 398.533L316.846 102.188Z"  />
<path d="M316.846 82.3884V95.6204L431.037 400.685C432.244 401.211 433.437 401.741 434.617 402.277L316.846 82.3884Z"  />
<path d="M316.846 63.9221V77.1541L439.366 404.49C440.543 405.056 441.705 405.623 442.852 406.192L316.846 63.9221Z"  />
<path d="M316.846 45.0314V58.3342L448.054 408.88C449.216 409.497 450.358 410.12 451.48 410.75L316.846 45.0314Z"  />
<path d="M276.608 440.447H286.818V424.376C283.402 424.241 279.999 424.12 276.608 424.012V440.447Z"  />
<path d="M286.803 161.084L276.608 202.588V380.84C280.034 381.116 283.437 381.409 286.818 381.719L286.803 161.084Z"  />
<path d="M323.39 24.8777L304.9 0V383.563C311.147 384.264 317.311 385.025 323.39 385.847V24.8777Z"  />
<path d="M304.9 440.447H323.39V426.412C317.281 425.971 311.117 425.578 304.9 425.235V440.447Z"  />
<path d="M302.97 0H291.073V382.118C295.071 382.502 299.037 382.911 302.97 383.346V0Z"  />
<path d="M291.073 424.553V440.447H302.97V425.134C300.348 424.992 297.725 424.859 295.098 424.734L291.073 424.553Z"  />
<path d="M434.722 410.553L431.03 400.685C429.36 399.958 427.665 399.24 425.943 398.533L429.759 408.905C430.632 409.183 431.498 409.471 432.357 409.754C433.151 410.017 433.94 410.283 434.722 410.553Z"  />
<path d="M410.081 403.025C411.757 403.483 413.415 403.949 415.055 404.424C416.097 404.717 417.124 405.02 418.151 405.323L413.855 393.839C388.663 384.624 358.575 376.939 325.148 371.382V386.089C354.906 390.171 382.381 395.608 406.632 402.09L410.081 403.025Z"  />
<path d="M209.064 377.859C211.178 377.859 213.302 377.882 215.436 377.93C219.139 377.984 222.862 378.064 226.602 378.172L230.857 362.091C223.095 361.808 215.411 361.639 207.805 361.585L202.557 377.818C204.705 377.834 206.89 377.839 209.064 377.859Z"  />
<path d="M426.232 407.779L422.206 397.017C420.707 396.425 419.189 395.837 417.652 395.254L421.775 406.369L423.975 407.041L426.232 407.779Z"  />
<path d="M274.921 380.703V364.915C262.652 363.77 250.109 362.911 237.292 362.338L233.349 378.369C237.392 378.504 241.454 378.672 245.535 378.874C255.48 379.332 265.276 379.942 274.921 380.703Z"  />
<path d="M93.0998 385.018L102.688 368.628C85.4459 371.22 69.362 374.484 54.6762 378.334L43.5963 394.567C56.4717 391.318 70.5577 388.504 85.667 386.13C88.1159 385.746 90.5935 385.375 93.0998 385.018Z"  />
<path d="M186.597 377.95C189.256 377.906 191.927 377.876 194.611 377.859L200.211 361.575C189.641 361.609 179.263 361.855 169.077 362.313L162.094 378.713C167.734 378.457 173.447 378.255 179.232 378.106C181.678 378.042 184.133 377.99 186.597 377.95Z"  />
<path d="M149.167 379.4L152.54 379.198L159.902 362.788C144.256 363.692 129.166 365.092 114.799 366.936L105.634 383.356C116.774 381.992 128.345 380.87 140.347 379.991C143.258 379.792 146.198 379.595 149.167 379.4Z"  />
<path d="M451.48 410.75L454.059 417.747C462.17 421.071 469.57 424.542 476.204 428.13C469.622 422.077 461.312 416.257 451.48 410.75Z"  />
<path d="M448.054 409.88C446.36 408.978 444.626 408.082 442.852 407.192L445.929 415.554C447.613 416.191 449.269 416.831 450.896 417.474L448.054 409.88Z"  />
<path d="M442.683 413.357L439.366 404.49C437.81 403.747 436.225 403.004 434.609 402.277L438.08 411.709C439.092 412.058 440.093 412.417 441.079 412.77L442.683 413.357Z"  />
<path d="M476.204 424.462C469.569 421.43 462.17 418.495 454.059 415.686C453.017 415.327 451.96 414.963 450.896 414.61C449.269 414.064 447.613 413.522 445.929 412.983L444.055 412.397L442.668 411.967L441.071 411.462C440.072 411.159 439.072 410.859 438.073 410.563L435.426 409.785L434.714 409.583L432.349 408.911L429.751 408.188L427.146 407.481L426.224 407.238L423.949 406.637L421.749 406.071C420.647 405.788 419.537 405.507 418.42 405.227L418.143 405.162L415.047 404.399L410.073 403.217L406.625 402.428C382.373 396.947 354.898 392.324 325.141 388.898L323.383 388.691C317.311 388.001 311.147 387.357 304.893 386.761L302.962 386.579C299.029 386.209 295.063 385.862 291.065 385.538L286.796 385.2C283.415 384.937 280.011 384.69 276.586 384.457C276.031 384.417 275.461 384.386 274.914 384.351C265.268 383.711 255.473 383.189 245.527 382.785C241.447 382.623 237.385 382.487 233.342 382.376C231.093 382.312 228.844 382.253 226.595 382.199C222.846 382.118 219.124 382.051 215.429 381.997L209.057 381.936C206.873 381.936 204.696 381.936 202.527 381.936C199.873 381.936 197.232 381.936 194.603 381.936C191.919 381.936 189.248 381.961 186.589 382.012C184.123 382.049 181.668 382.093 179.224 382.143C173.444 382.265 167.732 382.433 162.087 382.648C158.878 382.77 155.692 382.906 152.529 383.058L149.155 383.23C146.197 383.381 143.262 383.55 140.351 383.735C128.356 384.472 116.785 385.421 105.638 386.579C102.804 386.872 99.9978 387.179 97.2191 387.499C95.8398 387.655 94.4716 387.817 93.096 388.004C90.5972 388.307 88.1183 388.62 85.6594 388.944C70.5501 390.965 56.4641 393.334 43.5887 396.083C42.1994 396.376 40.825 396.675 39.4656 396.982C33.3934 398.329 27.6173 399.767 22.1373 401.297C14.056 403.535 6.65695 405.94 0 408.496C11.5672 409.295 23.5092 410.618 35.6461 412.508C60.6134 416.393 83.4704 422.198 102.898 429.18C105.106 428.872 107.328 428.569 109.581 428.281C113.169 427.816 116.81 427.37 120.503 426.942C132.314 425.583 144.687 424.416 157.544 423.481C160.498 423.266 163.476 423.06 166.48 422.865C175.251 422.299 184.224 421.833 193.4 421.466C195.944 421.365 198.506 421.272 201.088 421.188C225.182 420.389 250.49 420.293 276.597 420.97C279.985 421.061 283.389 421.164 286.807 421.279L291.076 421.43L295.087 421.582C297.726 421.69 300.35 421.802 302.958 421.92L304.889 422.006C311.106 422.299 317.269 422.636 323.379 423.017C361.342 425.326 397.097 429.14 429.373 434.132L431.063 434.394L432.214 434.576L434.279 434.905L437.278 435.41L438.777 435.653L440.041 435.86L441.915 436.173L445.584 436.799H445.712L446.836 436.996L449.797 437.502C451.319 437.775 452.837 438.047 454.34 438.325L457.185 438.83C458.808 439.139 460.424 439.442 462.028 439.755L464.772 440.321C481.935 443.711 497.757 447.445 512 451.466C506.951 441.983 494.518 432.838 476.204 424.462Z"  />
<path d="M44.7944 510H9.04596C3.01532 510 0 507.089 0 501.267V492.466H9.04596V501.267H35.6769V466.127H44.7944V510Z"  />
<path d="M89.0852 510H52.7551V466.127H89.0104V474.928H61.7942V483.733H88.8607V492.466H61.801V501.267H89.0852V510Z"  />
<path d="M150.029 510H140.911V485.06L128.538 510H117.091L104.714 485.06V510H95.5286V466.127H105.153L122.956 501.267L140.83 466.127H150.015L150.029 510Z"  />
<path d="M203.281 500.778C203.233 503.843 202.553 506.149 201.239 507.695C199.926 509.24 197.611 510.007 194.293 509.993H158.051V466.127H194.306C197.443 466.127 199.711 466.86 201.11 468.327C202.51 469.794 203.209 471.995 203.209 474.928V482.334C203.209 484.149 202.908 485.5 202.304 486.387C201.701 487.274 200.627 487.93 199.083 488.357C200.627 488.684 201.737 489.312 202.413 490.242C203.089 491.173 203.429 492.57 203.434 494.433L203.281 500.778ZM194.306 483.802V474.935H167.09V483.802H194.306ZM194.306 501.267V491.908H167.09V501.267H194.306Z"  />
<path d="M255.747 510H246.646V492.466H219.43V510H210.37V474.928C210.37 472.183 211.203 470.03 212.868 468.468C214.532 466.907 216.72 466.127 219.43 466.127H246.646C247.897 466.115 249.138 466.338 250.3 466.784C251.389 467.198 252.375 467.83 253.195 468.636C254.001 469.443 254.639 470.392 255.076 471.431C255.54 472.54 255.771 473.726 255.757 474.922L255.747 510ZM246.629 483.727V474.928H219.43V483.733L246.629 483.727Z"  />
<path d="M306.181 474.928H287.943V510H278.965V474.928H260.727V466.127H306.181V474.928Z"  />
<path d="M356.627 510H347.509V492.466H320.293V510H311.25V474.928C311.25 472.183 312.083 470.029 313.748 468.468C315.412 466.907 317.595 466.127 320.296 466.127H347.513C348.763 466.115 350.004 466.338 351.166 466.784C352.255 467.198 353.242 467.829 354.061 468.636C354.867 469.443 355.506 470.392 355.943 471.431C356.406 472.54 356.638 473.726 356.623 474.922L356.627 510ZM347.509 483.727V474.928H320.293V483.733L347.509 483.727Z"  />
<path d="M409.674 510H404.098L373.48 480.239V510H364.295V466.127H371.963L400.696 494.699V466.127H409.671L409.674 510Z"  />
<path d="M463.15 510H449.257L426.677 490.857V510H417.631V466.127H426.677V484.219L448.678 466.127H462.429L436.159 487.434L463.15 510Z"  />
<path d="M512.003 501.267C512.003 503.875 511.171 505.982 509.506 507.589C507.842 509.196 505.659 510 502.957 510H475.673C474.435 510.014 473.205 509.791 472.057 509.343C470.988 508.928 470.016 508.311 469.199 507.527C468.39 506.742 467.761 505.802 467.352 504.768C466.909 503.653 466.689 502.468 466.702 501.274V466.133H475.673V501.274H502.957V466.133H512.003V501.267Z"  />
</svg>
