<svg id="f2c6b06c-f867-46be-afb0-813b6afe66cc" data-name="Base" xmlns="http://www.w3.org/2000/svg" xmlns:xlink="http://www.w3.org/1999/xlink" viewBox="0 0 512 512"><defs><linearGradient id="a669f87b-f853-4124-87db-bb3432fd70d9" x1="0.47" y1="444.43" x2="37.17" y2="444.43" gradientUnits="userSpaceOnUse"><stop offset="0" stop-color="#005f7a"/><stop offset="1" stop-color="#243363"/></linearGradient><linearGradient id="af25ef2a-0486-4c11-a0bd-ceeba897852d" x1="24.59" y1="454.43" x2="26.18" y2="454.43" xlink:href="#a669f87b-f853-4124-87db-bb3432fd70d9"/><linearGradient id="e95af79e-4e31-4aba-9bfe-0e69163a0c89" x1="276.21" y1="27.22" x2="286.72" y2="27.22" xlink:href="#a669f87b-f853-4124-87db-bb3432fd70d9"/><linearGradient id="a8255bb4-2945-4995-8ec3-3b015dc7771f" x1="276.21" y1="127.85" x2="286.72" y2="127.85" xlink:href="#a669f87b-f853-4124-87db-bb3432fd70d9"/><linearGradient id="ac938241-ca62-4b52-b9a2-ded3d67086c5" x1="276.21" y1="91.5" x2="286.72" y2="91.5" xlink:href="#a669f87b-f853-4124-87db-bb3432fd70d9"/><linearGradient id="e4614255-8a64-43b9-8ef0-085f5d08a949" x1="276.21" y1="62.01" x2="286.72" y2="62.01" xlink:href="#a669f87b-f853-4124-87db-bb3432fd70d9"/><linearGradient id="f4c8aacc-74e9-48db-a816-0563bf44d492" x1="276.21" y1="174" x2="286.72" y2="174" xlink:href="#a669f87b-f853-4124-87db-bb3432fd70d9"/><linearGradient id="a21600a7-ff11-401f-b139-3ad3bbc68cba" x1="36.78" y1="244.61" x2="276.21" y2="244.61" xlink:href="#a669f87b-f853-4124-87db-bb3432fd70d9"/><linearGradient id="be10b812-f28f-4755-8615-6969cdb9c0a1" x1="286.72" y1="35.72" x2="294.5" y2="35.72" xlink:href="#a669f87b-f853-4124-87db-bb3432fd70d9"/><linearGradient id="f8423958-8684-43fc-b2ae-b5ddcfb36e59" x1="286.72" y1="58.46" x2="293.85" y2="58.46" xlink:href="#a669f87b-f853-4124-87db-bb3432fd70d9"/><linearGradient id="bc20c0ef-da2e-41b0-81c1-2002f6416fce" x1="102.29" y1="249.4" x2="276.21" y2="249.4" xlink:href="#a669f87b-f853-4124-87db-bb3432fd70d9"/><linearGradient id="f8f52f19-f175-4652-ab49-f14a14d81769" x1="286.72" y1="87.24" x2="293.85" y2="87.24" xlink:href="#a669f87b-f853-4124-87db-bb3432fd70d9"/><linearGradient id="b8c037bb-7ed7-4896-82b6-fb57a510b3a5" x1="159.51" y1="263.88" x2="276.21" y2="263.88" xlink:href="#a669f87b-f853-4124-87db-bb3432fd70d9"/><linearGradient id="acf6339c-cd18-4849-831e-93053d60e471" x1="286.72" y1="120.28" x2="293.85" y2="120.28" xlink:href="#a669f87b-f853-4124-87db-bb3432fd70d9"/><linearGradient id="b84db9fe-8abc-4a5b-9f8e-24fd9b87c393" x1="199.82" y1="284.12" x2="276.21" y2="284.12" xlink:href="#a669f87b-f853-4124-87db-bb3432fd70d9"/><linearGradient id="efef3039-bcbf-4739-9fa4-ced3fa7150b9" x1="230.46" y1="312.76" x2="276.21" y2="312.76" xlink:href="#a669f87b-f853-4124-87db-bb3432fd70d9"/><linearGradient id="ed01ff98-a9fb-41c5-b234-fa1a776eab91" x1="286.72" y1="164.35" x2="294.45" y2="164.35" xlink:href="#a669f87b-f853-4124-87db-bb3432fd70d9"/><linearGradient id="af35e2d9-0cd7-4fae-9f5f-a14fe8fed210" x1="316.76" y1="292.99" x2="417.57" y2="292.99" xlink:href="#a669f87b-f853-4124-87db-bb3432fd70d9"/><linearGradient id="b9beefd8-36a3-42bb-92e3-07b8b4d353d7" x1="316.76" y1="283.94" x2="425.85" y2="283.94" xlink:href="#a669f87b-f853-4124-87db-bb3432fd70d9"/><linearGradient id="a0dae9c9-ae55-43ec-87ba-8da589241ae3" x1="316.76" y1="274.83" x2="434.52" y2="274.83" xlink:href="#a669f87b-f853-4124-87db-bb3432fd70d9"/><linearGradient id="eb444225-bac9-40d7-ac5f-03ffc43a972f" x1="316.76" y1="266.58" x2="442.76" y2="266.58" xlink:href="#a669f87b-f853-4124-87db-bb3432fd70d9"/><linearGradient id="aa197817-d3a4-497f-9904-cec722477e17" x1="316.76" y1="258.46" x2="451.4" y2="258.46" xlink:href="#a669f87b-f853-4124-87db-bb3432fd70d9"/><linearGradient id="b2440da0-b414-4f2d-afcd-95de5050502e" x1="276.21" y1="491.2" x2="286.72" y2="491.2" xlink:href="#a669f87b-f853-4124-87db-bb3432fd70d9"/><linearGradient id="e0fbc0fc-7bc7-4d22-b38d-a26916cbb07a" x1="276.21" y1="307.8" x2="286.72" y2="307.8" xlink:href="#a669f87b-f853-4124-87db-bb3432fd70d9"/><linearGradient id="eda3310f-959c-4c7f-9e20-342bac6c6629" x1="304.74" y1="218.8" x2="322.76" y2="218.8" xlink:href="#a669f87b-f853-4124-87db-bb3432fd70d9"/><linearGradient id="bffb0427-7494-4903-9acf-783cc6bfecde" x1="304.74" y1="491.9" x2="322.76" y2="491.9" xlink:href="#a669f87b-f853-4124-87db-bb3432fd70d9"/><linearGradient id="e6175438-dc94-4334-810b-6c3dba6440ac" x1="291.22" y1="217.41" x2="303.24" y2="217.41" xlink:href="#a669f87b-f853-4124-87db-bb3432fd70d9"/><linearGradient id="b6199f2d-3546-4133-8fb1-4f87be9eab17" x1="291.22" y1="491.51" x2="303.24" y2="491.51" xlink:href="#a669f87b-f853-4124-87db-bb3432fd70d9"/><linearGradient id="bd03ffb0-43cf-4691-86de-105f8908af2d" x1="425.95" y1="458.8" x2="434.73" y2="458.8" xlink:href="#a669f87b-f853-4124-87db-bb3432fd70d9"/><linearGradient id="ba042457-345b-4fd5-8f4b-a82b98cc69b0" x1="325.77" y1="440.44" x2="418.77" y2="440.44" xlink:href="#a669f87b-f853-4124-87db-bb3432fd70d9"/><linearGradient id="b48ace3f-4aa1-4980-9c4c-684d7cf7a600" x1="202.54" y1="419.49" x2="230.85" y2="419.49" xlink:href="#a669f87b-f853-4124-87db-bb3432fd70d9"/><linearGradient id="aa74f7ca-88b7-4232-8a93-c1e933ead1df" x1="417.66" y1="455.37" x2="426.24" y2="455.37" xlink:href="#a669f87b-f853-4124-87db-bb3432fd70d9"/><linearGradient id="b1b44681-d803-4bb0-941b-f5e8f75ba865" x1="233.13" y1="421.36" x2="274.7" y2="421.36" xlink:href="#a669f87b-f853-4124-87db-bb3432fd70d9"/><linearGradient id="e060c6ae-d31c-4d5d-8fca-bd73df49f0bd" x1="43.6" y1="432.78" x2="102.69" y2="432.78" xlink:href="#a669f87b-f853-4124-87db-bb3432fd70d9"/><linearGradient id="e551bbfd-70a8-4924-bf7e-d57ac6c22f08" x1="162.1" y1="419.79" x2="200.22" y2="419.79" xlink:href="#a669f87b-f853-4124-87db-bb3432fd70d9"/><linearGradient id="b0cb6d2a-54a5-4520-86d7-9d6e41c385cd" x1="105.63" y1="423.11" x2="159.9" y2="423.11" xlink:href="#a669f87b-f853-4124-87db-bb3432fd70d9"/><linearGradient id="afe9abe3-3705-444c-ba5d-da21a2a9bba1" x1="451.49" y1="475.7" x2="476.22" y2="475.7" xlink:href="#a669f87b-f853-4124-87db-bb3432fd70d9"/><linearGradient id="b6203c78-5249-4921-bde4-d82cca7b1d7c" x1="442.86" y1="466.5" x2="450.91" y2="466.5" xlink:href="#a669f87b-f853-4124-87db-bb3432fd70d9"/><linearGradient id="bd218e7d-adb2-441d-b76d-c2856385b518" x1="434.62" y1="462.51" x2="442.69" y2="462.51" xlink:href="#a669f87b-f853-4124-87db-bb3432fd70d9"/><linearGradient id="ba1457de-8fa3-4132-95c4-3ff8fca45215" x1="0" y1="472.57" x2="512" y2="472.57" xlink:href="#a669f87b-f853-4124-87db-bb3432fd70d9"/></defs><g id="a61562ac-8b3f-4e0a-8f1c-e1011a0e0909" data-name="Logo"><path d="M37.17,434.83,25.09,454Q12.43,452.38.47,452A207.92,207.92,0,0,1,37.17,434.83Z" transform="translate(0 0)" fill="url(#a669f87b-f853-4124-87db-bb3432fd70d9)"/><path d="M24.59,454.83l1.59-.65L25.09,454Z" transform="translate(0 0)" fill="url(#af25ef2a-0486-4c11-a0bd-ceeba897852d)"/><polygon points="286.72 0.02 276.2 0.02 276.2 54.42 286.72 38.19 286.72 0.02" fill="url(#e95af79e-4e31-4aba-9bfe-0e69163a0c89)"/><polygon points="286.72 96.64 276.2 124.63 276.2 159.05 286.72 124.38 286.72 96.64" fill="url(#a8255bb4-2945-4995-8ec3-3b015dc7771f)"/><polygon points="286.72 65.94 276.2 87.3 276.2 117.06 286.72 90.47 286.72 65.94" fill="url(#ac938241-ca62-4b52-b9a2-ded3d67086c5)"/><polygon points="286.72 42.73 276.2 60.2 276.2 81.29 286.72 60.9 286.72 42.73" fill="url(#e4614255-8a64-43b9-8ef0-085f5d08a949)"/><polygon points="286.72 132.22 276.2 169.03 276.2 215.77 286.72 170.71 286.72 132.22" fill="url(#f4c8aacc-74e9-48db-a816-0563bf44d492)"/><path d="M36.78,434.83q8.37-3,17.5-5.76L276.21,60.25V54.39Z" transform="translate(0 0)" fill="url(#a21600a7-ff11-401f-b139-3ad3bbc68cba)"/><polygon points="294.5 30.35 293.02 28.16 286.72 38.17 286.72 43.28 294.5 30.35" fill="url(#be10b812-f28f-4755-8615-6969cdb9c0a1)"/><polygon points="293.85 52.2 292.23 50.25 286.72 60.93 286.72 66.68 293.85 52.2" fill="url(#f8423958-8684-43fc-b2ae-b5ddcfb36e59)"/><path d="M102.29,418.07q6-1,12.11-1.92L276.21,87.42V80.74Z" transform="translate(0 0)" fill="url(#bc20c0ef-da2e-41b0-81c1-2002f6416fce)"/><polygon points="293.85 78.57 292.08 76.94 286.72 90.5 286.72 97.54 293.85 78.57" fill="url(#f8f52f19-f175-4652-ab49-f14a14d81769)"/><path d="M159.51,411.44c3-.2,6.1-.37,9.18-.53L276.21,124.72v-8.4Z" transform="translate(0 0)" fill="url(#b8c037bb-7ed7-4896-82b6-fb57a510b3a5)"/><polygon points="293.85 108.47 291.98 107.14 286.72 124.48 286.72 133.43 293.85 108.47" fill="url(#acf6339c-cd18-4849-831e-93053d60e471)"/><path d="M199.82,410.07q3.78,0,7.58,0l68.81-240.91v-11Z" transform="translate(0 0)" fill="url(#b84db9fe-8abc-4a5b-9f8e-24fd9b87c393)"/><path d="M230.46,410.65l2,.09c1.48.06,3,.13,4.42.21l39.31-181.19V214.57Z" transform="translate(0 0)" fill="url(#efef3039-bcbf-4739-9fa4-ced3fa7150b9)"/><polygon points="292.5 146.01 286.72 170.81 286.72 182.69 294.45 147.07 292.5 146.01" fill="url(#ed01ff98-a9fb-41c5-b234-fa1a776eab91)"/><path d="M316.76,137.71v15l97,293.94c1.28.53,2.54,1.07,3.8,1.61Z" transform="translate(0 0)" fill="url(#af35e2d9-0cd7-4fae-9f5f-a14fe8fed210)"/><path d="M316.76,115.9V131L422.12,450.27c1.26.56,2.5,1.14,3.73,1.71Z" transform="translate(0 0)" fill="url(#b9beefd8-36a3-42bb-92e3-07b8b4d353d7)"/><path d="M316.76,93.44v15l114.18,346c1.21.59,2.4,1.19,3.58,1.8Z" transform="translate(0 0)" fill="url(#a0dae9c9-ae55-43ec-87ba-8da589241ae3)"/><path d="M316.76,72.49v15L439.28,458.74c1.18.64,2.34,1.28,3.48,1.93Z" transform="translate(0 0)" fill="url(#eb444225-bac9-40d7-ac5f-03ffc43a972f)"/><path d="M316.76,51.07V66.16L448,463.72c1.16.7,2.3,1.41,3.43,2.12Z" transform="translate(0 0)" fill="url(#aa197817-d3a4-497f-9904-cec722477e17)"/><path d="M276.21,500.52h10.51V482.3q-5.28-.24-10.51-.42Z" transform="translate(0 0)" fill="url(#b2440da0-b414-4f2d-afcd-95de5050502e)"/><path d="M286.72,182.69l-10.51,47.07V431.92c3.52.31,7,.64,10.51,1Z" transform="translate(0 0)" fill="url(#e0fbc0fc-7bc7-4d22-b38d-a26916cbb07a)"/><path d="M322.76,28.22,304.74,0V435q9.15,1.19,18,2.59Z" transform="translate(0 0)" fill="url(#eda3310f-959c-4c7f-9e20-342bac6c6629)"/><path d="M304.74,500.52h18V484.61q-8.92-.75-18-1.34Z" transform="translate(0 0)" fill="url(#bffb0427-7494-4903-9acf-783cc6bfecde)"/><path d="M303.24,0h-12V433.39q6.06.66,12,1.4Z" transform="translate(0 0)" fill="url(#e6175438-dc94-4334-810b-6c3dba6440ac)"/><path d="M291.22,482.5v18h12V483.15q-6-.36-12-.65Z" transform="translate(0 0)" fill="url(#b6199f2d-3546-4133-8fb1-4f87be9eab17)"/><path d="M434.73,465.62,431,454.43c-1.67-.83-3.36-1.64-5.09-2.45l3.82,11.77,2.6,1Z" transform="translate(0 0)" fill="url(#bd03ffb0-43cf-4691-86de-105f8908af2d)"/><path d="M410.7,457.08l5,1.58,3.09,1-4.3-13c-25.19-10.45-55.28-19.16-88.7-25.47v16.68A602.48,602.48,0,0,1,407.25,456Z" transform="translate(0 0)" fill="url(#ba042457-345b-4fd5-8f4b-a82b98cc69b0)"/><path d="M209.07,428.54c2.12,0,4.24,0,6.36.08,3.7.06,7.43.16,11.17.27l4.25-18.24q-11.64-.47-23-.56l-5.26,18.41Z" transform="translate(0 0)" fill="url(#b48ace3f-4aa1-4980-9c4c-684d7cf7a600)"/><path d="M426.24,462.47l-4-12.2c-1.49-.68-3-1.34-4.55-2l4.1,12.63,2.21.76Z" transform="translate(0 0)" fill="url(#aa74f7ca-88b7-4232-8a93-c1e933ead1df)"/><path d="M274.7,431.77v-17.9c-12.26-1.3-24.83-2.28-37.63-2.92l-3.94,18.18q6.06.22,12.18.55Q260.24,430.48,274.7,431.77Z" transform="translate(0 0)" fill="url(#b1b44681-d803-4bb0-941b-f5e8f75ba865)"/><path d="M93.1,436.65l9.59-18.58a413.84,413.84,0,0,0-48,11L43.6,447.49a418.48,418.48,0,0,1,42.07-9.58Q89.35,437.27,93.1,436.65Z" transform="translate(0 0)" fill="url(#e060c6ae-d31c-4d5d-8fca-bd73df49f0bd)"/><path d="M186.6,428.64q4-.08,8-.1l5.6-18.47q-15.87.06-31.14.84l-7,18.59q8.46-.44,17.14-.68Q182.9,428.72,186.6,428.64Z" transform="translate(0 0)" fill="url(#e551bbfd-70a8-4924-bf7e-d57ac6c22f08)"/><path d="M149.15,430.28l3.39-.22,7.36-18.62c-15.64,1-30.72,2.62-45.1,4.71l-9.17,18.62q16.73-2.31,34.72-3.82C143.26,430.71,146.2,430.49,149.15,430.28Z" transform="translate(0 0)" fill="url(#b0cb6d2a-54a5-4520-86d7-9d6e41c385cd)"/><path d="M451.49,465.84l2.58,7.94a219.58,219.58,0,0,1,22.15,11.77A133.65,133.65,0,0,0,451.49,465.84Z" transform="translate(0 0)" fill="url(#afe9abe3-3705-444c-ba5d-da21a2a9bba1)"/><path d="M448.06,463.72c-1.69-1-3.42-2-5.2-3.05l3.08,9.49c1.68.71,3.34,1.44,5,2.17Z" transform="translate(0 0)" fill="url(#b6203c78-5249-4921-bde4-d82cca7b1d7c)"/><path d="M442.69,468.79l-3.31-10.05q-2.34-1.26-4.76-2.51l3.47,10.7,3,1.2Z" transform="translate(0 0)" fill="url(#bd218e7d-adb2-441d-b76d-c2856385b518)"/><path d="M476.22,481.39a236.49,236.49,0,0,0-22.15-9.95l-3.16-1.22q-2.45-.93-5-1.85l-1.86-.66-1.39-.49-1.59-.56-3-1-2.65-.88-.71-.22-2.36-.77-2.6-.82-2.61-.8-.92-.27-2.27-.69-2.21-.64-3.32-1-.28-.07-3.09-.86-5-1.34-3.45-.9a698.16,698.16,0,0,0-81.48-15.35l-1.76-.23q-9.11-1.18-18.49-2.19l-1.93-.21q-5.91-.62-11.9-1.18l-4.27-.38c-3.38-.3-6.79-.58-10.21-.84-.55-.05-1.12-.08-1.67-.12q-14.48-1.1-29.39-1.78-6.12-.27-12.18-.46c-2.26-.08-4.52-.14-6.76-.2-3.74-.1-7.47-.18-11.17-.23-2.12,0-4.24-.06-6.36-.07l-6.53,0q-4,0-7.92,0c-2.69,0-5.36,0-8,.09-2.47,0-4.92.08-7.36.14q-8.67.21-17.14.59-4.82.19-9.56.47l-3.39.19c-3,.17-5.89.36-8.8.56q-18,1.26-34.72,3.23c-2.83.34-5.64.68-8.42,1L93.1,440c-2.5.35-5,.7-7.43,1.07-15.11,2.26-29.2,5-42.07,8.09l-4.14,1q-9.1,2.32-17.33,4.9A223.51,223.51,0,0,0,0,463.28c11.57.91,23.51,2.41,35.65,4.55a333.79,333.79,0,0,1,67.25,18.92c2.21-.35,4.43-.69,6.68-1q5.39-.78,10.92-1.51c11.81-1.55,24.19-2.86,37.05-3.93q4.42-.37,8.93-.7,13.16-1,26.92-1.58,3.82-.18,7.69-.32c24.1-.91,49.4-1,75.51-.24q5.08.15,10.21.34l4.27.17,4,.18q4,.17,7.89.38l1.93.1q9.33.5,18.49,1.13a1029,1029,0,0,1,106,12.59l1.69.29,1.15.21,2.06.37,3,.55,1.48.28,1.27.23,1.87.36,3.67.71.12,0,1.13.22,3,.59,4.55.94,2.84.59,4.84,1.05,2.75.61c17.16,3.84,33,8.08,47.21,12.64C507,501.26,494.53,490.89,476.22,481.39Z" transform="translate(0 0)" fill="url(#ba1457de-8fa3-4132-95c4-3ff8fca45215)"/></g></svg>