<svg version="1.0" xmlns="http://www.w3.org/2000/svg"
 width="668.000000pt" height="475.000000pt" viewBox="0 0 668.000000 475.000000"
 preserveAspectRatio="xMidYMid meet">

<g transform="translate(0.000000,475.000000) scale(0.100000,-0.100000)" stroke="none">
<path id="1611048580177" d="M3590 4543 l0 -207 60 59 c45 44 60 55 60 40 0 -17 2 -17 25 5 l25
23 0 -64 c-1 -53 -5 -69 -25 -94 l-25 -30 0 63 c0 34 -3 62 -6 62 -3 0 -29
-25 -57 -56 -40 -44 -52 -53 -57 -40 -4 13 -27 -6 -100 -81 -51 -54 -152 -159
-224 -233 -203 -209 -380 -393 -631 -655 -296 -308 -463 -482 -651 -675 -82
-85 -262 -272 -399 -415 -137 -143 -310 -323 -385 -400 -301 -311 -431 -447
-428 -450 2 -2 44 5 93 15 49 10 91 17 92 16 1 -1 -26 -33 -60 -71 -51 -57
-57 -67 -37 -62 45 11 353 56 455 67 110 12 104 9 176 108 26 36 28 42 12 42
-29 0 -357 -48 -446 -65 -44 -8 -83 -13 -86 -10 -2 3 22 34 55 68 33 34 83 87
111 117 52 57 235 256 708 769 154 167 288 313 298 324 9 11 61 68 115 126 54
58 237 257 406 441 170 184 356 387 415 450 58 64 196 213 306 333 l200 217 5
-72 5 -72 55 69 c38 48 56 64 58 52 3 -14 8 -12 27 11 l24 27 1 -82 c0 -67 -4
-89 -22 -120 l-23 -38 -5 85 -5 84 -54 -73 c-44 -59 -56 -70 -61 -56 -7 19 -5
21 -275 -320 -40 -49 -123 -156 -186 -236 -63 -80 -213 -271 -334 -423 -121
-153 -265 -336 -320 -406 -55 -70 -180 -228 -277 -351 -97 -123 -281 -357
-409 -519 -127 -162 -237 -301 -243 -309 -9 -12 0 -13 58 -7 78 9 77 12 13
-72 -22 -29 -37 -55 -34 -58 3 -3 66 -1 139 5 73 6 193 14 266 17 l132 7 22
36 c11 20 30 51 41 70 l21 34 -145 -7 c-79 -3 -195 -11 -258 -17 -62 -6 -115
-8 -117 -6 -5 4 111 160 949 1272 203 270 498 662 656 872 157 210 289 382
293 383 4 0 9 -45 10 -100 l3 -100 54 92 c43 72 56 87 61 72 6 -16 9 -14 26
16 l19 35 3 -90 c3 -77 0 -97 -20 -139 l-23 -50 -5 95 -5 94 -55 -98 c-46 -80
-56 -93 -61 -75 -6 27 6 45 -189 -277 -73 -121 -230 -380 -348 -575 -118 -195
-279 -461 -357 -590 -78 -129 -215 -355 -304 -502 -89 -147 -164 -274 -167
-283 -5 -12 3 -15 40 -15 25 0 46 -3 46 -6 0 -3 -16 -35 -36 -70 l-36 -64 189
2 188 3 32 65 c17 35 30 66 28 68 -2 2 -82 3 -179 2 -97 0 -176 3 -176 7 0 5
6 17 14 28 7 11 215 371 461 800 246 429 489 852 540 940 51 88 123 214 160
280 38 66 73 126 79 134 8 11 12 -14 16 -100 l5 -114 16 35 c84 177 93 194 97
175 3 -15 9 -10 28 25 l23 45 0 -135 c0 -119 -3 -142 -24 -195 l-24 -60 0 128
c-1 71 -5 126 -9 123 -4 -2 -30 -58 -57 -122 -44 -104 -51 -115 -55 -89 l-6
30 -13 -24 c-7 -13 -44 -90 -81 -170 -94 -205 -688 -1483 -749 -1615 -28 -59
-51 -110 -51 -112 0 -2 18 -4 40 -4 22 0 40 -4 40 -9 0 -5 -11 -34 -25 -65
-14 -31 -25 -61 -25 -66 0 -6 55 -10 138 -10 l137 0 23 63 c12 34 22 65 22 70
0 4 -56 7 -124 7 -71 0 -127 4 -131 10 -3 5 175 425 397 932 l403 923 5 -163
5 -163 55 153 c45 127 55 148 60 123 5 -27 7 -25 25 30 l20 60 3 -1036 2
-1037 23 -6 c12 -3 43 -6 70 -6 l47 0 0 1680 0 1680 -70 0 -70 0 0 -123 c0
-119 -1 -124 -25 -147 l-25 -23 0 146 0 147 -60 0 -60 0 0 -207z"/>
<path id="1611048580177" d="M3920 3067 c0 -922 3 -1678 8 -1680 4 -3 53 -8 110 -12 l102 -8 0
1019 c0 587 4 1014 9 1009 5 -6 110 -210 234 -455 898 -1778 832 -1643 801
-1637 -16 3 -119 25 -229 50 -267 61 -765 143 -787 130 -10 -5 -10 -95 0 -109
4 -6 106 -23 227 -38 247 -30 586 -83 594 -93 3 -3 -10 -3 -29 1 -77 13 -515
65 -675 80 -545 50 -971 69 -1580 69 -789 0 -1374 -39 -1924 -129 -84 -14
-154 -24 -156 -22 -2 2 24 32 56 67 33 35 58 65 56 67 -8 9 -356 -95 -387
-116 -11 -7 9 -10 65 -11 44 0 105 -4 135 -8 61 -7 66 -5 -95 -42 -55 -12
-104 -25 -108 -29 -4 -4 44 -10 108 -14 303 -18 823 -99 1039 -162 27 -7 51
-12 55 -10 10 6 516 44 746 56 110 6 405 13 655 17 1147 15 2400 -74 3230
-231 96 -19 177 -31 180 -29 3 3 -15 23 -40 45 -56 49 -230 134 -374 183 -60
20 -147 54 -193 75 -64 30 -83 35 -83 24 0 -23 -31 -13 -41 13 -6 17 -5 21 7
16 7 -3 14 -3 14 0 0 3 -228 463 -506 1023 -279 561 -618 1245 -755 1522
l-249 503 0 165 0 166 -88 86 c-49 48 -98 96 -110 106 l-22 19 0 -1676z m422
623 c102 -201 346 -684 543 -1075 197 -390 440 -873 541 -1071 101 -199 184
-367 184 -373 0 -8 -5 -9 -19 -1 -28 15 -33 13 -21 -9 13 -26 13 -31 -4 -31
-16 0 -31 17 -40 47 -6 18 -4 22 8 17 20 -8 -1 38 -265 566 -954 1913 -1171
2360 -1120 2305 5 -6 92 -174 193 -375z m198 -555 c210 -418 515 -1022 676
-1341 162 -320 294 -584 294 -588 0 -4 -10 -4 -22 -1 -17 6 -20 4 -15 -9 4 -9
10 -23 13 -31 12 -30 -26 -15 -46 18 -24 38 -25 51 -5 43 8 -3 15 -3 15 -1 0
6 -299 611 -879 1778 -370 744 -466 950 -422 902 4 -6 180 -352 391 -770z
m110 -381 c254 -505 530 -1050 611 -1210 82 -161 149 -295 149 -299 0 -4 -11
-5 -24 -3 -19 4 -22 1 -18 -14 2 -10 8 -21 13 -24 14 -8 10 -34 -5 -34 -28 0
-68 86 -43 92 16 3 15 4 -760 1562 -295 591 -433 878 -433 900 l0 31 23 -41
c13 -22 232 -454 487 -960z m-248 316 c934 -1849 910 -1800 889 -1800 -24 0
-25 -6 -6 -40 19 -33 18 -40 -3 -40 -11 0 -26 16 -40 45 -26 54 -26 53 -7 57
11 2 -96 225 -396 828 -566 1135 -699 1409 -699 1433 0 13 4 17 9 12 4 -6 119
-228 253 -495z"/>
<path id="1611048580177" d="M3648 3150 c-50 -146 -57 -160 -57 -121 -1 24 -3 42 -6 39 -5 -5 -50
-130 -275 -763 -43 -121 -119 -334 -169 -474 -50 -140 -91 -256 -91 -258 0 -2
17 -3 37 -1 l36 3 228 684 c125 376 230 686 233 689 4 3 6 -341 6 -765 l0
-771 56 -7 c31 -4 58 -5 60 -2 2 2 3 433 2 958 l-3 954 -57 -165z"/>
<path id="1611048580177" d="M3106 1514 c-10 -33 -21 -64 -23 -70 -3 -8 40 -13 144 -18 81 -3 192
-9 246 -12 l97 -6 0 70 0 69 -132 7 c-73 3 -174 9 -223 12 l-91 6 -18 -58z"/>
<path id="1611048580177" d="M3590 960 l0 -70 60 0 61 0 -3 68 -3 67 -57 3 -58 3 0 -71z"/>
<path id="1611048580177" d="M3760 955 l0 -65 70 0 70 0 0 65 0 65 -70 0 -70 0 0 -65z"/>
<path id="1611048580177" d="M3927 1014 c-4 -4 -7 -34 -7 -66 l0 -58 110 0 110 0 0 60 0 60 -89 0
c-49 0 -96 2 -103 5 -8 3 -17 2 -21 -1z"/>
<path id="1611048580177" d="M470 355 l0 -235 -175 0 -175 0 0 55 0 55 -57 0 -58 0 2 -37 c1 -21
2 -60 2 -86 1 -40 6 -54 30 -78 l29 -29 261 0 261 0 0 295 0 295 -60 0 -60 0
0 -235z"/>
<path id="1611048580177" d="M690 295 l0 -295 240 0 241 0 -3 58 -3 57 -178 0 -178 0 3 60 3 60
173 3 172 2 0 55 0 55 -175 0 -175 0 0 60 0 60 175 0 175 0 0 60 0 60 -235 0
-235 0 0 -295z"/>
<path id="1611048580177" d="M1250 295 l0 -295 60 0 60 0 2 163 c3 159 3 161 19 127 9 -19 44 -92
78 -162 l61 -128 76 0 75 0 79 162 78 163 1 -162 1 -163 60 0 60 0 0 295 0
295 -60 0 -59 0 -117 -237 -117 -238 -116 238 -115 237 -63 0 -63 0 0 -295z"/>
<path id="1611048580177" d="M2070 295 l0 -295 261 0 261 0 29 29 c26 27 29 36 31 103 2 106 -1
121 -23 140 l-20 17 21 21 c17 17 20 33 20 119 0 91 -2 102 -24 128 l-24 28
-266 3 -266 3 0 -296z m470 115 l0 -60 -180 0 -180 0 0 60 0 60 180 0 180 0 0
-60z m-2 -232 c-2 -35 -6 -62 -10 -60 -5 1 -84 2 -178 2 l-170 0 0 60 0 60
180 0 181 0 -3 -62z"/>
<path id="1611048580177" d="M2814 580 c-12 -4 -31 -21 -43 -36 -20 -26 -21 -36 -21 -285 l0 -259
55 0 54 0 3 118 3 117 178 3 177 2 0 -120 0 -120 60 0 60 0 0 246 c0 358 12
344 -297 343 -114 0 -218 -4 -229 -9z m406 -170 l0 -60 -180 0 -180 0 0 60 0
60 180 0 180 0 0 -60z"/>
<path id="1611048580177" d="M3408 534 c-1 -31 -1 -58 1 -60 2 -2 55 -4 118 -4 l113 0 0 -235 0
-235 60 0 60 0 0 235 0 235 120 0 120 0 0 60 0 60 -294 0 -294 0 -4 -56z"/>
<path id="1611048580177" d="M4120 571 c-54 -28 -59 -55 -59 -328 l-1 -243 60 0 59 0 3 118 3 117
175 0 175 0 3 -117 3 -118 54 0 55 0 0 258 c0 282 -1 286 -60 317 -23 12 -71
15 -232 15 -179 0 -208 -2 -238 -19z m418 -158 l-3 -58 -177 -3 -178 -2 0 60
0 60 180 0 181 0 -3 -57z"/>
<path id="1611048580177" d="M4760 295 l0 -295 55 0 55 0 0 195 c0 107 3 195 8 195 4 0 95 -88
202 -195 173 -174 198 -195 227 -195 l33 0 0 295 0 295 -55 0 -55 0 0 -192 -1
-193 -188 193 -189 192 -46 0 -46 0 0 -295z"/>
<path id="1611048580177" d="M5450 295 l0 -295 60 0 59 0 3 126 3 125 143 -126 143 -126 86 3 86
3 -171 148 -171 149 159 134 c87 74 162 138 165 144 4 6 -24 10 -77 10 l-83
-1 -140 -119 -140 -119 -3 119 -3 120 -59 0 -60 0 0 -295z"/>
<path id="1611048580177" d="M6090 340 c0 -358 -15 -340 292 -340 195 0 216 2 246 20 18 11 37 32
42 46 6 14 10 137 10 275 l0 249 -60 0 -60 0 0 -235 0 -235 -170 0 c-93 0
-173 0 -177 0 -5 0 -9 105 -10 233 l-1 232 -56 3 -56 3 0 -251z"/>
</g>
</svg>
