<svg xmlns="http://www.w3.org/2000/svg" xmlns:xlink="http://www.w3.org/1999/xlink" viewBox="0 0 98.704 35.704" fill="#fff" fill-rule="evenodd" stroke="#000" stroke-linecap="round" stroke-linejoin="round"><use xlink:href="#D" x="1.852" y="1.852"/><defs><linearGradient id="A" x1="-16.82%" y1="91.95%" x2="76.23%" y2="-1.09%"><stop offset="10.8%" stop-color="#c757bc"/><stop offset="17.3%" stop-color="#cd5ca9"/><stop offset="49.2%" stop-color="#e8744f"/><stop offset="71.6%" stop-color="#f88316"/><stop offset="82.3%" stop-color="#ff8900"/></linearGradient><linearGradient id="B" x1="31.92%" y1="135.93%" x2="77.28%" y2="45.62%"><stop offset="29.6%" stop-color="#00afff"/><stop offset="69.4%" stop-color="#5282ff"/><stop offset="100%" stop-color="#945dff"/></linearGradient><linearGradient id="C" x1="-2.37%" y1="52.28%" x2="61.13%" y2="-8.00%"><stop offset="29.6%" stop-color="#00afff"/><stop offset="69.4%" stop-color="#5282ff"/><stop offset="100%" stop-color="#945dff"/></linearGradient></defs><symbol id="D" overflow="visible"><g stroke="none"><g fill="#000400" fill-rule="nonzero"><path d="M36.652 7.596h3.682v7.319l6.793-7.318h4.444l-6.815 7.067 7.126 9.637h-4.426l-5.185-7.126-1.937 2.007V24.3h-3.681zm13.274 10.4v-.048c0-3.681 2.963-6.667 6.963-6.667 3.97 0 6.911 2.941 6.911 6.667v.048c0 3.682-2.963 6.667-6.963 6.667-3.97 0-6.911-2.941-6.911-6.667zm10.281 0v-.048c0-1.852-1.363-3.541-3.333-3.541-2.082 0-3.326 1.604-3.326 3.493v.048c0 1.852 1.363 3.541 3.333 3.541 2.081 0 3.322-1.604 3.322-3.493z"/><path d="M64.8 20.7v-6.037h-1.53v-3.111h1.53V8.274h3.63v3.278h3.015v3.111h-3.015v5.482c0 .837.359 1.244 1.17 1.244.626.003 1.243-.154 1.793-.456v2.919c-.767.456-1.648.741-2.87.741-2.222 0-3.73-.889-3.73-3.852zm7.692-13.822h3.63v17.456h-3.63zm4.948 0h3.826v3.23h-3.822zm.096 4.641h3.63v12.815h-3.63zm5.019 0h3.63v1.852c.837-1.111 1.915-2.056 3.756-2.056 2.752 0 4.352 1.852 4.352 4.759v8.296h-3.63v-7.189c0-1.722-.815-2.607-2.2-2.607s-2.27.889-2.27 2.607v7.148h-3.63z"/></g><path d="M15.778.007L0 16.626v14.863l15.785-15.815L31.489 0z" fill="url(#A)" fill-rule="nonzero"/><path d="M0 31.493l15.785-15.815 15.704 15.815z" fill="url(#B)" fill-rule="nonzero"/><path d="M0 .007h15.778L0 16.626z" fill="url(#C)" fill-rule="nonzero"/></g></symbol></svg>