<svg id="a2fbaf10-2359-45df-9fc5-c3a2f8012840" data-name="Base" xmlns="http://www.w3.org/2000/svg" viewBox="0 0 508.5 512"><path d="M362,414.63C341.86,347.51,238.73,365.9,238.73,283c0-95.33-110.5-101.82-110.5-189.47C128.23,42.6,46.45,12.12,14.6.57A9.3,9.3,0,0,0,2.11,9.3L1.75,454.55c0,8,7.76,14.43,17.34,14.43l345.33-.18.36-33.35A70.2,70.2,0,0,0,362,414.63Z" transform="translate(-1.75)" fill="#a15f45"/><path d="M362,414.78c-20-67.12-122.44-48.73-122.44-131.68,0-95.33-109.77-101.82-109.77-189.47C129.79,42.75,48.54,12.27,16.9.72a9.23,9.23,0,0,0-12.23,7C36.75,30.34,71.44,68.07,66,111.33,55.15,198.3,175.8,205.47,175.8,300.8c0,82.95,102.45,64.56,122.44,131.68A70.51,70.51,0,0,1,301,453.3L300.85,469l63.57,0,.35-33.35A70.15,70.15,0,0,0,362,414.78Z" transform="translate(-1.75)" fill="#8d4e35"/><path d="M491.27,512H20.19A18.07,18.07,0,0,1,2.11,493.92V455.39H471.74c21,0,38,17.49,37.6,38.93A18.05,18.05,0,0,1,491.27,512Z" transform="translate(-1.75)" fill="#7cb742"/><path d="M161.26,107.52,319.39,325.17a13.45,13.45,0,0,0,4.16,4c1.42.79,2.56.88,3.42.25l17.73-12.88c.86-.62,1.13-1.73.82-3.33A13.59,13.59,0,0,0,343,308L184,89.1A170.17,170.17,0,0,1,161.26,107.52Z" transform="translate(-1.75)" fill="#a15f45"/><path d="M466.32,405.28V394.54l-9.55-3.39-3.27-7.91,4.35-9.15-7.6-7.6L441,370.87l-7.82-3.23L429.8,358H419.06l-3.42,9.62-7.82,3.23-9.22-4.38L391,374.08l4.35,9.16-3.27,7.9-9.55,3.4v10.74l9.55,3.39,3.27,7.91L391,425.74l7.59,7.59,9.22-4.38,7.82,3.23,3.42,9.62H429.8l3.42-9.62L441,429l9.22,4.38,7.6-7.59-4.35-9.16,3.27-7.9ZM425,419.69A19.94,19.94,0,1,1,445,399.75,19.94,19.94,0,0,1,425,419.69Z" transform="translate(-1.75)" fill="#f0544a"/><path d="M509.35,346.4V335.66l-9.62-3.41-3.24-7.82,4.38-9.22-7.59-7.59L484.06,312l-7.82-3.24-3.42-9.62H462.08l-3.42,9.62L450.85,312l-9.22-4.38-7.6,7.59,4.39,9.22-3.24,7.81-4.31,3.17c0,5.36-5.31,5.63-5.31,11l9.62,3.41,3.24,7.82L434,366.86l7.6,7.59,9.22-4.38,7.81,3.24,3.42,9.62h10.74l3.42-9.62,7.82-3.24,9.22,4.38,7.59-7.59-4.38-9.22,3.24-7.82ZM467,359.87a19.94,19.94,0,1,1,19.94-19.94A19.94,19.94,0,0,1,467,359.87Z" transform="translate(-1.75)" fill="#88bf40"/><path d="M448.21,337.35V326.61l-9.62-3.42-3.24-7.82,4.38-9.22-7.59-7.59-9.22,4.38-7.82-3.24-3.42-9.62H400.94l-3.42,9.62-7.81,3.24-9.22-4.38-7.6,7.59,4.39,9.22L374,323.19l-9.62,3.42v10.74l9.62,3.42,3.24,7.81-4.39,9.22,7.6,7.6,9.22-4.39,7.81,3.24,3.42,9.62h10.74l3.42-9.62,7.82-3.24,9.22,4.39,7.59-7.6-4.38-9.22,3.24-7.81Zm-41.06,15a19.94,19.94,0,1,1,19.94-19.94A19.94,19.94,0,0,1,407.15,352.4Z" transform="translate(-1.75)" fill="#ffc11c"/><path d="M475.38,430.48V415.1L463.2,401.69a5.56,5.56,0,0,1-1.41-3.73,5.07,5.07,0,0,1,4.81-5.29h0a4.59,4.59,0,0,1,3.39,1.55l5.39,5.93V372.68a4.87,4.87,0,0,1,3.44-4.8c3-.76,5.62,1.71,5.62,4.85v12.46h11.72a14.16,14.16,0,0,1,14.09,14.23h0a14.28,14.28,0,0,1-4.13,10.07l-5.83,5.89v15.1Z" transform="translate(-1.75)" fill="#f5be99"/><path d="M470.85,421.42h34v22.65h-34Z" transform="translate(-1.75)" fill="#0294bb"/><path d="M491.23,430.48h4.53V435h-4.53Z" transform="translate(-1.75)" fill="#7fcce6"/></svg>