<svg version="1.0" xmlns="http://www.w3.org/2000/svg"
 viewBox="0 0 918.000000 380.000000"
 preserveAspectRatio="xMidYMid meet">

<g transform="translate(0.000000,380.000000) scale(0.100000,-0.100000)" stroke="none">
<path id="1611048656476" d="M13 2458 c3 -1321 4 -1334 25 -1446 62 -323 193 -548 412 -712 177
-131 389 -210 655 -245 107 -14 495 -15 3585 -12 l3465 2 100 23 c479 111 749
398 816 870 17 122 6 391 -21 516 -52 242 -161 418 -345 554 -77 57 -237 136
-340 167 -183 56 -201 57 -910 65 -713 8 -732 9 -848 64 -80 38 -141 97 -177
169 -109 223 -36 505 159 611 104 56 99 56 1174 56 l987 0 0 325 0 325 -1011
0 c-862 0 -1027 -2 -1116 -16 -133 -19 -256 -55 -361 -104 -348 -164 -531
-489 -532 -947 -1 -600 293 -959 870 -1065 107 -20 163 -22 770 -28 719 -8
704 -6 833 -71 151 -77 227 -213 227 -408 0 -180 -94 -343 -235 -407 -124 -57
-15 -55 -2263 -51 -1897 3 -2073 4 -2142 20 -392 89 -592 287 -685 680 -39
167 -49 276 -49 527 0 484 85 774 283 970 108 107 218 167 384 209 143 37 234
41 965 41 l712 0 0 326 0 325 -802 -4 c-767 -4 -808 -5 -913 -25 -745 -143
-1156 -607 -1260 -1422 -9 -69 -19 -219 -22 -335 -14 -501 68 -925 236 -1227
l49 -88 -686 0 c-729 0 -805 4 -935 49 -214 74 -334 202 -384 407 -15 62 -17
193 -20 1357 l-4 1287 -325 0 -325 0 4 -1332z"/>
</g>
</svg>
