<?xml version="1.0" encoding="utf-8"?>
<!-- Generator: Adobe Illustrator 25.2.0, SVG Export Plug-In . SVG Version: 6.00 Build 0)  -->
<svg version="1.1" id="Layer_1" xmlns="http://www.w3.org/2000/svg" xmlns:xlink="http://www.w3.org/1999/xlink" x="0px" y="0px"
	 viewBox="0 0 918 380" style="enable-background:new 0 0 918 380;" xml:space="preserve">
<g transform="translate(0.000000,380.000000) scale(0.100000,-0.100000)">
	<path id="_x31_611048656476" d="M892,2342.1c2.4-1078.1,3.3-1088.7,20.4-1180.1c50.6-263.6,157.5-447.2,336.2-581.1
		c144.5-106.9,317.5-171.4,534.6-200c87.3-11.4,404-12.2,2925.8-9.8l2827.9,1.6l81.6,18.8c390.9,90.6,611.3,324.8,666,710
		c13.9,99.6,4.9,319.1-17.1,421.1c-42.4,197.5-131.4,341.1-281.6,452.1c-62.8,46.5-193.4,111-277.5,136.3
		c-149.4,45.7-164,46.5-742.7,53c-581.9,6.5-597.4,7.3-692.1,52.2c-65.3,31-115.1,79.2-144.5,137.9c-89,182-29.4,412.1,129.8,498.7
		c84.9,45.7,80.8,45.7,958.1,45.7h805.5v265.2v265.2h-825.1c-703.5,0-838.2-1.6-910.8-13.1c-108.5-15.5-208.9-44.9-294.6-84.9
		c-284-133.8-433.4-399.1-434.2-772.9c-0.8-489.7,239.1-782.7,710-869.2c87.3-16.3,133-18,628.4-22.9
		c586.8-6.5,574.6-4.9,679.8-57.9c123.2-62.8,185.3-173.8,185.3-333c0-146.9-76.7-279.9-191.8-332.2
		c-101.2-46.5-12.2-44.9-1846.9-41.6c-1548.2,2.4-1691.8,3.3-1748.2,16.3c-319.9,72.6-483.2,234.2-559.1,555
		c-31.8,136.3-40,225.3-40,430.1c0,395,69.4,631.7,231,791.7c88.1,87.3,177.9,136.3,313.4,170.6c116.7,30.2,191,33.5,787.6,33.5
		h581.1v266.1V3430l-654.5-3.3c-626-3.3-659.4-4.1-745.1-20.4c-608-116.7-943.5-495.4-1028.3-1160.5c-7.3-56.3-15.5-178.7-18-273.4
		c-11.4-408.9,55.5-754.9,192.6-1001.4l40-71.8h-559.9c-595,0-657,3.3-763.1,40c-174.7,60.4-272.6,164.9-313.4,332.2
		c-12.2,50.6-13.9,157.5-16.3,1107.5l-3.3,1050.4H1154H888.8L892,2342.1z"/>
</g>
</svg>
