<svg id="b666bd6c-eb97-4ac0-b2eb-c67499860c01" data-name="Base" xmlns="http://www.w3.org/2000/svg" viewBox="0 0 511.99 512"><g id="ab4992bd-9238-4149-95e6-56b6c8e236bd" data-name="Logo"><rect x="8.53" y="110.94" width="494.92" height="307.19" rx="17.07" fill="#4ac4d1"/><path d="M503.46,128V349.87a17.12,17.12,0,0,1-17.07,17.07H25.61A17.12,17.12,0,0,1,8.54,349.87V315.74H384a68.47,68.47,0,0,0,68.26-68.27V110.94h34.13A17.12,17.12,0,0,1,503.46,128Z" transform="translate(-0.01 0)" fill="#00b6bd"/><path d="M291.06,58.31c0,28.32-15.27,51.19-34.13,51.19S222.8,86.63,222.8,58.31s34.13-51.2,34.13-51.2S291.06,30.06,291.06,58.31Z" transform="translate(-0.01 0)" fill="#ccdd58"/><path d="M503.46,366.94v34.13a17.12,17.12,0,0,1-17.07,17.07H25.61A17.12,17.12,0,0,1,8.54,401.07V366.94Z" transform="translate(-0.01 0)" fill="#e1e0e2"/><path d="M503.46,366.94v34.13a17.12,17.12,0,0,1-17.07,17.07H452.26a17.12,17.12,0,0,0,17.07-17.07V366.94Z" transform="translate(-0.01 0)" fill="#c6c5ca"/><path d="M376.39,503.47H137.47l17.06-34.13H367.86Z" transform="translate(-0.01 0)" fill="#e1e0e2"/><path d="M376.39,503.47h-4.27l-4.26-17.07H154.53L146,503.47h-8.53l17.06-34.13H367.86Z" transform="translate(-0.01 0)" fill="#8a8890"/><path d="M308.13,179.21h34.13a51.2,51.2,0,0,1-51.2,51.2H256.93A51.2,51.2,0,0,1,308.13,179.21Z" transform="translate(-0.01 0)" fill="#ccdd58"/><path d="M221.87,418.14h68.26v51.19H221.87Z" transform="translate(-0.01 0)" fill="#8a8890"/><path d="M256.93,179.21H222.8A51.2,51.2,0,0,1,171.6,128h34.13A51.2,51.2,0,0,1,256.93,179.21Z" transform="translate(-0.01 0)" fill="#ccdd58"/><path d="M291.06,58.31c0,28.32-15.27,51.19-34.13,51.19a31.62,31.62,0,0,1-26.62-19.11,23.29,23.29,0,0,0,9.55,2c18.86,0,34.13-22.87,34.13-51.2a51.46,51.46,0,0,0-12.11-30.46C271.35,18.46,291.06,36.89,291.06,58.31Z" transform="translate(-0.01 0)" fill="#a9d277"/><path d="M342.26,179.21a51.2,51.2,0,0,1-51.2,51.2h-25.6a51.2,51.2,0,0,0,51.2-51.2Z" transform="translate(-0.01 0)" fill="#a9d277"/><path d="M256.93,179.21H222.8A51,51,0,0,1,183,160.09a49.07,49.07,0,0,0,14.25,2h34.13A50.32,50.32,0,0,0,220,130.06,51.2,51.2,0,0,1,256.93,179.21Z" transform="translate(-0.01 0)" fill="#a9d277"/><path d="M256.93,281.61H222.8a51.2,51.2,0,0,1-51.2-51.2h34.13A51.2,51.2,0,0,1,256.93,281.61Z" transform="translate(-0.01 0)" fill="#ccdd58"/><path d="M256.93,281.61H222.8A51,51,0,0,1,183,262.49a49.07,49.07,0,0,0,14.25,2.05h34.13A50.32,50.32,0,0,0,220,232.46,51.2,51.2,0,0,1,256.93,281.61Z" transform="translate(-0.01 0)" fill="#a9d277"/><path d="M221.87,418.14h68.26v25.6H221.87Z" transform="translate(-0.01 0)" fill="#58575d"/><path d="M361.24,51.21h31.29V34.15H358.4a8.49,8.49,0,0,0-5.12,1.7l-34.13,25.6L329.38,75.1Z" transform="translate(-0.01 0)" fill="#010101"/><path d="M409.6,0H512V17.08H409.6Z" transform="translate(-0.01 0)" fill="#010101"/><path d="M409.6,34.15H512V51.21H409.6Z" transform="translate(-0.01 0)" fill="#010101"/><path d="M409.6,68.28H512V85.34H409.6Z" transform="translate(-0.01 0)" fill="#010101"/><path d="M182.62,75.1l10.23-13.65-34.13-25.6a8.49,8.49,0,0,0-5.12-1.7H119.47V51.21h31.29Z" transform="translate(-0.01 0)" fill="#010101"/><path d="M0,0H102.4V17.08H0Z" transform="translate(-0.01 0)" fill="#010101"/><path d="M0,34.15H102.4V51.21H0Z" transform="translate(-0.01 0)" fill="#010101"/><path d="M0,68.28H102.4V85.34H0Z" transform="translate(-0.01 0)" fill="#010101"/><path d="M34.14,256h102.4v17.06H34.14Z" transform="translate(-0.01 0)" fill="#010101"/><path d="M34.14,290.14h102.4v17.07H34.14Z" transform="translate(-0.01 0)" fill="#010101"/><path d="M34.14,324.27h102.4v17.07H34.14Z" transform="translate(-0.01 0)" fill="#010101"/><path d="M460.79,238.94h17.07v102.4H460.79Z" transform="translate(-0.01 0)" fill="#010101"/><path d="M426.66,256h17.07v85.33H426.66Z" transform="translate(-0.01 0)" fill="#010101"/><path d="M392.53,273.07H409.6v68.27H392.53Z" transform="translate(-0.01 0)" fill="#010101"/><path d="M358.4,290.14h17.06v51.2H358.4Z" transform="translate(-0.01 0)" fill="#010101"/><path d="M324.26,307.21h17.07v34.13H324.26Z" transform="translate(-0.01 0)" fill="#010101"/><path d="M486.39,102.41H298.67v17.07H486.39a8.53,8.53,0,0,1,8.54,8.53V358.4H264.53V238.94h25.6a59.79,59.79,0,0,0,59.73-59.73,8.53,8.53,0,0,0-8.53-8.53H307.2a59.48,59.48,0,0,0-42.67,18v-70.4c19.71-5.37,34.14-29.18,34.14-58.54,0-32.42-36.36-57.25-37.89-58.28a8.54,8.54,0,0,0-9.56,0c-1.53,1-37.89,25.86-37.89,58.28,0,29.36,14.43,53.17,34.14,58.54v19.2a59.48,59.48,0,0,0-42.67-18H170.67a8.53,8.53,0,0,0-8.53,8.53,59.79,59.79,0,0,0,59.73,59.73h25.6v52.14a59.53,59.53,0,0,0-42.67-18H170.67a8.53,8.53,0,0,0-8.53,8.54,59.79,59.79,0,0,0,59.73,59.73h25.6V358.4H17.07V128a8.53,8.53,0,0,1,8.54-8.53h128V102.41h-128A25.68,25.68,0,0,0,0,128V401.07a25.68,25.68,0,0,0,25.6,25.6H213.33V460.8H153.6a8.33,8.33,0,0,0-7.59,4.69l-17.07,34.14a8.53,8.53,0,0,0,7.6,12.37H375.46a8.53,8.53,0,0,0,6.74-3.24,8.69,8.69,0,0,0,1.54-7.34l-8.53-34.13a8.53,8.53,0,0,0-8.28-6.49H298.67V426.67H486.39a25.68,25.68,0,0,0,25.6-25.6V128A25.68,25.68,0,0,0,486.39,102.41ZM308.13,187.74h24.74a42.73,42.73,0,0,1-41.81,34.13H266.31A42.76,42.76,0,0,1,308.13,187.74ZM222.8,170.68A42.77,42.77,0,0,1,181,136.54h24.75a42.74,42.74,0,0,1,41.81,34.14Zm0,102.39A42.75,42.75,0,0,1,181,238.94h24.75a42.74,42.74,0,0,1,41.81,34.13Zm8.53-213.31c0-17.58,17.07-33.62,25.6-40.54,8.53,6.92,25.6,23,25.6,40.54,0,23.12-11.69,42.66-25.6,42.66S231.33,82.88,231.33,59.76ZM361.2,477.87l4.27,17.06H151.29l8.53-17.06ZM230.4,460.8V426.67h51.2V460.8Zm256-51.2H25.61a8.53,8.53,0,0,1-8.54-8.53v-25.6H494.93v25.6A8.53,8.53,0,0,1,486.39,409.6Z" transform="translate(-0.01 0)" fill="#010101"/></g></svg>