<svg id="a8fb9311-4b70-480e-b636-f4b77e4115f4" data-name="Base" xmlns="http://www.w3.org/2000/svg" xmlns:xlink="http://www.w3.org/1999/xlink" viewBox="0 0 512 511.56"><defs><linearGradient id="b7f31ff6-f295-4b8b-9cf2-674605d0b768" x1="222.56" y1="456.78" x2="290.79" y2="456.78" gradientUnits="userSpaceOnUse"><stop offset="0" stop-color="#fff"/><stop offset="0" stop-color="#fec450"/><stop offset="1" stop-color="#f6926c"/></linearGradient></defs><g id="b35c7c25-faa5-4666-a775-bb25dfd39627" data-name="Logo"><g id="b17e44ef-d93b-4ebe-bd4d-21dad0003277" data-name="Bar"><polygon points="79.95 402 60.34 511.56 111.61 511.56 128.74 402 79.95 402" fill="#fec450" style="isolation:isolate"/><polygon points="240.34 402 222.56 511.56 272.01 511.56 290.79 402 240.34 402" fill="url(#b7f31ff6-f295-4b8b-9cf2-674605d0b768)" style="isolation:isolate"/><polygon points="0 402 0 511.56 31.3 511.56 46.94 402 0 402" fill="#fec450" style="isolation:isolate"/><polygon points="160.19 402 142.26 511.56 192.97 511.56 209.42 402 160.19 402" fill="#fec450" style="isolation:isolate"/><polygon points="483.71 402 466.64 511.56 512 511.56 512 402 483.71 402" fill="#f6926c" style="isolation:isolate"/><polygon points="402.19 402 384.69 511.56 434.49 511.56 452.98 402 402.19 402" fill="#f6926c" style="isolation:isolate"/><polygon points="321.02 402 302.46 511.56 353.11 511.56 369.16 402 321.02 402" fill="#f6926c" style="isolation:isolate"/></g><g id="beec8b12-384d-47a6-80d6-c4361e06b918" data-name="Truck"><path d="M89.66,267.14V232.88H35.24l15.83,35.29a9.57,9.57,0,0,0,8.73,5.66H84.9a35.92,35.92,0,0,1,4.76-6.69Z" transform="translate(0)" fill="#8d9ca8"/><path d="M491.62,232.88h-402v35.05a35.48,35.48,0,0,1,27.52-13.12,35.9,35.9,0,0,1,35.65,34.37h28.72a35.67,35.67,0,0,1,71.3,0H373.51a35.68,35.68,0,0,1,71.31,0h39.61a9.56,9.56,0,0,0,9.57-9.57V233.82Z" transform="translate(0)" fill="#a0adbb"/><path d="M491.32,148.8,466,99.93A23.91,23.91,0,0,0,444.77,87h-86.4V235.44H494V159.8A24,24,0,0,0,491.32,148.8Z" transform="translate(0)" fill="#faea5e"/><path d="M358.37,87H384V235.44H358.37Z" transform="translate(0)" fill="#fdf498"/><path d="M358.37,128H384v12.79H358.37Z" transform="translate(0)" fill="#fed600"/><path d="M467.47,155.87l-22.79-43.65a4,4,0,0,0-3.59-2.18h-35a1.63,1.63,0,0,0-1.62,1.62v38.9a8.11,8.11,0,0,0,8.1,8.11h53.25a1.92,1.92,0,0,0,1.69-2.8Z" transform="translate(0)" fill="#fff"/><path d="M424.9,149.11V112a1.94,1.94,0,0,1,2-1.91H406.34a1.92,1.92,0,0,0-1.91,1.92V149.1a9.57,9.57,0,0,0,9.57,9.57h20.65A9.66,9.66,0,0,1,424.9,149.11Z" transform="translate(0)" fill="#f3fafe"/><path d="M466.39,166.34H415.85a16.53,16.53,0,0,1-16.54-16.53v-36a8.89,8.89,0,0,1,8.88-8.88h33.53a11.49,11.49,0,0,1,10.21,6.19l22,42.06a9.19,9.19,0,0,1,.28,8.38A8.64,8.64,0,0,1,466.39,166.34Zm-4.13-6.28Zm0,0h0Zm-50.15-42.33V151a2.6,2.6,0,0,0,2.6,2.6h44.94L441,117.72Z" transform="translate(0)" fill="#5a6d76"/><circle cx="409" cy="291.41" r="36.62" fill="#5a6d76"/><path d="M392.36,291.41A36.62,36.62,0,0,1,419,256.18a36.62,36.62,0,1,0,0,70.45A36.62,36.62,0,0,1,392.36,291.41Z" transform="translate(0)" fill="#465b62"/><path d="M409,304.1a12.7,12.7,0,1,1,12.69-12.69A12.71,12.71,0,0,1,409,304.1Z" transform="translate(0)" fill="#fff"/><circle cx="217.07" cy="291.41" r="36.62" fill="#5a6d76"/><path d="M200.55,291.41a36.63,36.63,0,0,1,26.57-35.21A36.61,36.61,0,1,0,217.07,328a37,37,0,0,0,10.05-1.4A36.64,36.64,0,0,1,200.55,291.41Z" transform="translate(0)" fill="#465b62"/><circle cx="217.07" cy="291.41" r="12.7" fill="#fff"/><circle cx="117.08" cy="291.41" r="36.62" fill="#5a6d76"/><path d="M100.53,291.41a36.64,36.64,0,0,1,26.58-35.22,36.62,36.62,0,1,0-10,71.83,36.49,36.49,0,0,0,10-1.4,36.63,36.63,0,0,1-26.58-35.21Z" transform="translate(0)" fill="#465b62"/><circle cx="117.08" cy="291.41" r="12.7" fill="#fff"/><path d="M358.37,235.44H22.78A4.78,4.78,0,0,1,18,230.66V4.78A4.78,4.78,0,0,1,22.78,0h330.8a4.79,4.79,0,0,1,4.79,4.78Z" transform="translate(0)" fill="#33bdef"/><path d="M59,230.64V4.81A4.84,4.84,0,0,1,63.83,0h-41A4.78,4.78,0,0,0,18,4.78V230.66a4.78,4.78,0,0,0,4.78,4.78H63.83A4.84,4.84,0,0,1,59,230.64Z" transform="translate(0)" fill="#35a6de"/><path d="M18,38.39H358.37V197.05H18Z" transform="translate(0)" fill="#35a6de"/><path d="M18,38.39H59V197.05H18Z" transform="translate(0)" fill="#1090cf"/><path d="M399.31,202v-19.3a6.71,6.71,0,0,1,5.83-6.83,6.4,6.4,0,0,1,7,6.37V202.5a6.4,6.4,0,0,1-7,6.37A6.71,6.71,0,0,1,399.31,202Z" transform="translate(0)" fill="#5a6d76"/><polygon points="189.31 195.04 123.84 131.49 146.53 108.14 174.02 135.93 174.02 38.39 204.17 38.39 205.35 135.93 230.48 109.33 252.71 129.43 189.31 195.04" fill="#faea5e"/></g></g></svg>