<svg viewBox="0 0 928 669" fill="none" xmlns="http://www.w3.org/2000/svg">
<path d="M464.1 314.74C449.16 314.74 434.1 310.74 434.1 302.9C434.1 295.06 449.16 291 464.1 291C479.04 291 494.1 295 494.1 302.84C494.1 310.68 479.02 314.74 464.1 314.74ZM464.1 295.06C448.2 295 438 299.7 438 303C438 306.3 448.14 310.84 464 310.84C479.86 310.84 490 306.2 490 303C490 299.8 480 295 464.1 295V295.06Z" fill="#46B31F"/>
<path d="M464.1 354.12C449.16 354.12 434.1 350.12 434.1 342.28V303H438.1V342.28C438.1 345.48 448.24 350.12 464.1 350.12C479.96 350.12 490.1 345.48 490.1 342.28V303H494.1V342.28C494.14 350.06 479.02 354.12 464.1 354.12Z" fill="#46B31F"/>
<path d="M464.24 328.78C449.3 328.78 434.24 324.78 434.24 316.94H438.24C438.24 320.14 448.38 324.78 464.24 324.78C480.1 324.78 490.24 320.14 490.24 316.94H494.24C494.28 324.72 479.16 328.78 464.24 328.78Z" fill="#46B31F"/>
<path d="M464.24 342.5C449.3 342.5 434.24 338.5 434.24 330.66H438.24C438.24 333.84 448.38 338.5 464.24 338.5C480.1 338.5 490.24 333.84 490.24 330.66H494.24C494.28 338.42 479.16 342.5 464.24 342.5Z" fill="#46B31F"/>
<path d="M463.76 365C448.8 365 437.38 360.8 434 354.06L437.58 352.24C439.58 356.24 447.74 361 463.82 361C479.38 361 488.5 355.96 490.02 352.38L493.7 353.94C490.9 360.44 478.6 365 463.76 365Z" fill="#46B31F"/>
<path d="M463.76 379.38C448.8 379.38 437.38 375.18 433.94 368.44L437.52 366.64C439.52 370.64 447.68 375.38 463.76 375.38C479.32 375.38 488.44 370.34 489.96 366.76L493.64 368.32C490.9 374.82 478.6 379.38 463.76 379.38Z" fill="#46B31F"/>
<path d="M438.04 349.32H434.04V383.08H438.04V349.32Z" fill="#46B31F"/>
<path d="M494.28 364.32H490.28V383.08H494.28V364.32Z" fill="#46B31F"/>
<path d="M456.8 353.06H452.8V369.94H456.8V353.06Z" fill="#46B31F"/>
<path d="M475.52 356.82H471.52V384.94H475.52V356.82Z" fill="#46B31F"/>
<path d="M494.28 349.32H490.28V360.58H494.28V349.32Z" fill="#46B31F"/>
<path d="M415.98 411V393.938H420.797C422.281 393.938 423.594 394.266 424.734 394.922C425.875 395.578 426.754 396.512 427.371 397.723C427.996 398.934 428.312 400.324 428.32 401.895V402.984C428.32 404.594 428.008 406.004 427.383 407.215C426.766 408.426 425.879 409.355 424.723 410.004C423.574 410.652 422.234 410.984 420.703 411H415.98ZM418.23 395.789V409.16H420.598C422.332 409.16 423.68 408.621 424.641 407.543C425.609 406.465 426.094 404.93 426.094 402.938V401.941C426.094 400.004 425.637 398.5 424.723 397.43C423.816 396.352 422.527 395.805 420.855 395.789H418.23ZM439.219 411C439.094 410.75 438.992 410.305 438.914 409.664C437.906 410.711 436.703 411.234 435.305 411.234C434.055 411.234 433.027 410.883 432.223 410.18C431.426 409.469 431.027 408.57 431.027 407.484C431.027 406.164 431.527 405.141 432.527 404.414C433.535 403.68 434.949 403.312 436.77 403.312H438.879V402.316C438.879 401.559 438.652 400.957 438.199 400.512C437.746 400.059 437.078 399.832 436.195 399.832C435.422 399.832 434.773 400.027 434.25 400.418C433.727 400.809 433.465 401.281 433.465 401.836H431.285C431.285 401.203 431.508 400.594 431.953 400.008C432.406 399.414 433.016 398.945 433.781 398.602C434.555 398.258 435.402 398.086 436.324 398.086C437.785 398.086 438.93 398.453 439.758 399.188C440.586 399.914 441.016 400.918 441.047 402.199V408.035C441.047 409.199 441.195 410.125 441.492 410.812V411H439.219ZM435.621 409.348C436.301 409.348 436.945 409.172 437.555 408.82C438.164 408.469 438.605 408.012 438.879 407.449V404.848H437.18C434.523 404.848 433.195 405.625 433.195 407.18C433.195 407.859 433.422 408.391 433.875 408.773C434.328 409.156 434.91 409.348 435.621 409.348ZM447.387 395.25V398.32H449.754V399.996H447.387V407.859C447.387 408.367 447.492 408.75 447.703 409.008C447.914 409.258 448.273 409.383 448.781 409.383C449.031 409.383 449.375 409.336 449.812 409.242V411C449.242 411.156 448.688 411.234 448.148 411.234C447.18 411.234 446.449 410.941 445.957 410.355C445.465 409.77 445.219 408.938 445.219 407.859V399.996H442.91V398.32H445.219V395.25H447.387ZM460.125 411C460 410.75 459.898 410.305 459.82 409.664C458.812 410.711 457.609 411.234 456.211 411.234C454.961 411.234 453.934 410.883 453.129 410.18C452.332 409.469 451.934 408.57 451.934 407.484C451.934 406.164 452.434 405.141 453.434 404.414C454.441 403.68 455.855 403.312 457.676 403.312H459.785V402.316C459.785 401.559 459.559 400.957 459.105 400.512C458.652 400.059 457.984 399.832 457.102 399.832C456.328 399.832 455.68 400.027 455.156 400.418C454.633 400.809 454.371 401.281 454.371 401.836H452.191C452.191 401.203 452.414 400.594 452.859 400.008C453.312 399.414 453.922 398.945 454.688 398.602C455.461 398.258 456.309 398.086 457.23 398.086C458.691 398.086 459.836 398.453 460.664 399.188C461.492 399.914 461.922 400.918 461.953 402.199V408.035C461.953 409.199 462.102 410.125 462.398 410.812V411H460.125ZM456.527 409.348C457.207 409.348 457.852 409.172 458.461 408.82C459.07 408.469 459.512 408.012 459.785 407.449V404.848H458.086C455.43 404.848 454.102 405.625 454.102 407.18C454.102 407.859 454.328 408.391 454.781 408.773C455.234 409.156 455.816 409.348 456.527 409.348ZM476.086 404.801C476.086 406.738 475.641 408.297 474.75 409.477C473.859 410.648 472.664 411.234 471.164 411.234C469.562 411.234 468.324 410.668 467.449 409.535L467.344 411H465.352V393H467.52V399.715C468.395 398.629 469.602 398.086 471.141 398.086C472.68 398.086 473.887 398.668 474.762 399.832C475.645 400.996 476.086 402.59 476.086 404.613V404.801ZM473.918 404.555C473.918 403.078 473.633 401.938 473.062 401.133C472.492 400.328 471.672 399.926 470.602 399.926C469.172 399.926 468.145 400.59 467.52 401.918V407.402C468.184 408.73 469.219 409.395 470.625 409.395C471.664 409.395 472.473 408.992 473.051 408.188C473.629 407.383 473.918 406.172 473.918 404.555ZM486.656 411C486.531 410.75 486.43 410.305 486.352 409.664C485.344 410.711 484.141 411.234 482.742 411.234C481.492 411.234 480.465 410.883 479.66 410.18C478.863 409.469 478.465 408.57 478.465 407.484C478.465 406.164 478.965 405.141 479.965 404.414C480.973 403.68 482.387 403.312 484.207 403.312H486.316V402.316C486.316 401.559 486.09 400.957 485.637 400.512C485.184 400.059 484.516 399.832 483.633 399.832C482.859 399.832 482.211 400.027 481.688 400.418C481.164 400.809 480.902 401.281 480.902 401.836H478.723C478.723 401.203 478.945 400.594 479.391 400.008C479.844 399.414 480.453 398.945 481.219 398.602C481.992 398.258 482.84 398.086 483.762 398.086C485.223 398.086 486.367 398.453 487.195 399.188C488.023 399.914 488.453 400.918 488.484 402.199V408.035C488.484 409.199 488.633 410.125 488.93 410.812V411H486.656ZM483.059 409.348C483.738 409.348 484.383 409.172 484.992 408.82C485.602 408.469 486.043 408.012 486.316 407.449V404.848H484.617C481.961 404.848 480.633 405.625 480.633 407.18C480.633 407.859 480.859 408.391 481.312 408.773C481.766 409.156 482.348 409.348 483.059 409.348ZM499.266 407.637C499.266 407.051 499.043 406.598 498.598 406.277C498.16 405.949 497.391 405.668 496.289 405.434C495.195 405.199 494.324 404.918 493.676 404.59C493.035 404.262 492.559 403.871 492.246 403.418C491.941 402.965 491.789 402.426 491.789 401.801C491.789 400.762 492.227 399.883 493.102 399.164C493.984 398.445 495.109 398.086 496.477 398.086C497.914 398.086 499.078 398.457 499.969 399.199C500.867 399.941 501.316 400.891 501.316 402.047H499.137C499.137 401.453 498.883 400.941 498.375 400.512C497.875 400.082 497.242 399.867 496.477 399.867C495.688 399.867 495.07 400.039 494.625 400.383C494.18 400.727 493.957 401.176 493.957 401.73C493.957 402.254 494.164 402.648 494.578 402.914C494.992 403.18 495.738 403.434 496.816 403.676C497.902 403.918 498.781 404.207 499.453 404.543C500.125 404.879 500.621 405.285 500.941 405.762C501.27 406.23 501.434 406.805 501.434 407.484C501.434 408.617 500.98 409.527 500.074 410.215C499.168 410.895 497.992 411.234 496.547 411.234C495.531 411.234 494.633 411.055 493.852 410.695C493.07 410.336 492.457 409.836 492.012 409.195C491.574 408.547 491.355 407.848 491.355 407.098H493.523C493.562 407.824 493.852 408.402 494.391 408.832C494.938 409.254 495.656 409.465 496.547 409.465C497.367 409.465 498.023 409.301 498.516 408.973C499.016 408.637 499.266 408.191 499.266 407.637ZM509.52 411.234C507.801 411.234 506.402 410.672 505.324 409.547C504.246 408.414 503.707 406.902 503.707 405.012V404.613C503.707 403.355 503.945 402.234 504.422 401.25C504.906 400.258 505.578 399.484 506.438 398.93C507.305 398.367 508.242 398.086 509.25 398.086C510.898 398.086 512.18 398.629 513.094 399.715C514.008 400.801 514.465 402.355 514.465 404.379V405.281H505.875C505.906 406.531 506.27 407.543 506.965 408.316C507.668 409.082 508.559 409.465 509.637 409.465C510.402 409.465 511.051 409.309 511.582 408.996C512.113 408.684 512.578 408.27 512.977 407.754L514.301 408.785C513.238 410.418 511.645 411.234 509.52 411.234ZM509.25 399.867C508.375 399.867 507.641 400.188 507.047 400.828C506.453 401.461 506.086 402.352 505.945 403.5H512.297V403.336C512.234 402.234 511.938 401.383 511.406 400.781C510.875 400.172 510.156 399.867 509.25 399.867Z" fill="black"/>
<path d="M95 74.5H5C4.46957 74.5 3.96086 74.2893 3.58579 73.9142C3.21071 73.5391 3 73.0304 3 72.5V27.5C3 26.9696 3.21071 26.4609 3.58579 26.0858C3.96086 25.7107 4.46957 25.5 5 25.5H95C95.5304 25.5 96.0391 25.7107 96.4142 26.0858C96.7893 26.4609 97 26.9696 97 27.5V72.5C97 73.0304 96.7893 73.5391 96.4142 73.9142C96.0391 74.2893 95.5304 74.5 95 74.5ZM7 70.5H93V29.5H7V70.5Z" fill="#4112A4"/>
<path d="M58.3799 21.0599C57.8826 19.2179 56.7923 17.591 55.2775 16.4309C53.7627 15.2709 51.9079 14.6422 49.9999 14.6422C48.0919 14.6422 46.2371 15.2709 44.7223 16.4309C43.2075 17.591 42.1172 19.2179 41.6199 21.0599L37.7599 19.9999C38.4737 17.2981 40.0614 14.9085 42.2754 13.2034C44.4895 11.4984 47.2054 10.5738 49.9999 10.5738C52.7944 10.5738 55.5103 11.4984 57.7243 13.2034C59.9384 14.9085 61.5261 17.2981 62.2399 19.9999L58.3799 21.0599Z" fill="#4112A4"/>
<path d="M65.0399 16.96C63.7749 14.0318 61.6805 11.538 59.0151 9.78596C56.3496 8.03394 53.2296 7.10036 50.0399 7.10036C46.8502 7.10036 43.7303 8.03394 41.0648 9.78596C38.3993 11.538 36.305 14.0318 35.0399 16.96L31.3599 15.38C32.9209 11.7065 35.5281 8.57356 38.8568 6.37126C42.1855 4.16895 46.0886 2.99466 50.0799 2.99466C54.0712 2.99466 57.9743 4.16895 61.303 6.37126C64.6318 8.57356 67.239 11.7065 68.7999 15.38L65.0399 16.96Z" fill="#4112A4"/>
<path d="M49.9999 89.36C47.2124 89.3707 44.4998 88.4581 42.2856 86.7649C40.0713 85.0716 38.4799 82.6929 37.7599 80L41.6199 78.98C42.1172 80.822 43.2075 82.4489 44.7223 83.609C46.2371 84.769 48.0919 85.3977 49.9999 85.3977C51.9079 85.3977 53.7627 84.769 55.2775 83.609C56.7923 82.4489 57.8826 80.822 58.3799 78.98L62.2399 80C61.5198 82.6929 59.9285 85.0716 57.7142 86.7649C55.4999 88.4581 52.7874 89.3707 49.9999 89.36Z" fill="#4112A4"/>
<path d="M49.9999 97C46.0086 97.0031 42.1048 95.8306 38.7757 93.629C35.4465 91.4273 32.8395 88.294 31.2799 84.62L34.9599 83.04C36.2249 85.9682 38.3193 88.462 40.9848 90.214C43.6502 91.966 46.7702 92.8996 49.9599 92.8996C53.1496 92.8996 56.2696 91.966 58.935 90.214C61.6005 88.462 63.6949 85.9682 64.9599 83.04L68.6399 84.62C67.0857 88.2815 64.491 91.4062 61.1775 93.6069C57.864 95.8076 53.9776 96.9874 49.9999 97Z" fill="#4112A4"/>
<path d="M16.26 61.2399C18.8447 61.2399 20.94 59.1446 20.94 56.5599C20.94 53.9753 18.8447 51.8799 16.26 51.8799C13.6754 51.8799 11.58 53.9753 11.58 56.5599C11.58 59.1446 13.6754 61.2399 16.26 61.2399Z" fill="#4112A4"/>
<path d="M18.2599 59.3799H14.2599V72.4999H18.2599V59.3799Z" fill="#4112A4"/>
<path d="M19.1 44.42C21.6846 44.42 23.78 42.3247 23.78 39.74C23.78 37.1553 21.6846 35.06 19.1 35.06C16.5153 35.06 14.42 37.1553 14.42 39.74C14.42 42.3247 16.5153 44.42 19.1 44.42Z" fill="#4112A4"/>
<path d="M33.26 72.5001H29.26V52.7001L18.58 42.0401L21.42 39.2201L33.26 51.0401V72.5001Z" fill="#4112A4"/>
<path d="M89.5001 51.9999H74.2401V36.7599H89.5001V51.9999ZM78.2401 47.9999H85.5001V40.7599H78.2401V47.9999Z" fill="#4112A4"/>
<path d="M62.18 49.0601C64.7647 49.0601 66.86 46.9648 66.86 44.3801C66.86 41.7954 64.7647 39.7001 62.18 39.7001C59.5953 39.7001 57.5 41.7954 57.5 44.3801C57.5 46.9648 59.5953 49.0601 62.18 49.0601Z" fill="#4112A4"/>
<path d="M76.2401 42.3799H63.1201V46.3799H76.2401V42.3799Z" fill="#4112A4"/>
<path d="M55.62 65.94C58.2047 65.94 60.3 63.8447 60.3 61.26C60.3 58.6754 58.2047 56.58 55.62 56.58C53.0353 56.58 50.94 58.6754 50.94 61.26C50.94 63.8447 53.0353 65.94 55.62 65.94Z" fill="#4112A4"/>
<path d="M94.9999 59.2599H59.3799V63.2599H94.9999V59.2599Z" fill="#4112A4"/>
<path d="M45.3201 53.7399C47.9048 53.7399 50.0001 51.6446 50.0001 49.0599C50.0001 46.4753 47.9048 44.3799 45.3201 44.3799C42.7354 44.3799 40.6401 46.4753 40.6401 49.0599C40.6401 51.6446 42.7354 53.7399 45.3201 53.7399Z" fill="#4112A4"/>
<path d="M43.0001 49.58L31.1801 37.76L31.1201 27.52L35.1201 27.48L35.1601 36.1L45.8401 46.76L43.0001 49.58Z" fill="#4112A4"/>
<path d="M28.9805 129V111.938H33.7969C35.2812 111.938 36.5938 112.266 37.7344 112.922C38.875 113.578 39.7539 114.512 40.3711 115.723C40.9961 116.934 41.3125 118.324 41.3203 119.895V120.984C41.3203 122.594 41.0078 124.004 40.3828 125.215C39.7656 126.426 38.8789 127.355 37.7227 128.004C36.5742 128.652 35.2344 128.984 33.7031 129H28.9805ZM31.2305 113.789V127.16H33.5977C35.332 127.16 36.6797 126.621 37.6406 125.543C38.6094 124.465 39.0938 122.93 39.0938 120.938V119.941C39.0938 118.004 38.6367 116.5 37.7227 115.43C36.8164 114.352 35.5273 113.805 33.8555 113.789H31.2305ZM53.8945 124.547H46.7461L45.1406 129H42.8203L49.3359 111.938H51.3047L57.832 129H55.5234L53.8945 124.547ZM47.4258 122.695H53.2266L50.3203 114.715L47.4258 122.695ZM73.0195 121.02C73.0195 122.668 72.7578 124.09 72.2344 125.285C71.7109 126.473 70.9766 127.402 70.0312 128.074L73.0781 130.465L71.543 131.883L67.9453 129.023C67.3828 129.164 66.7891 129.234 66.1641 129.234C64.8203 129.234 63.6289 128.906 62.5898 128.25C61.5508 127.586 60.7422 126.645 60.1641 125.426C59.5938 124.199 59.3008 122.781 59.2852 121.172V119.941C59.2852 118.301 59.5703 116.852 60.1406 115.594C60.7109 114.336 61.5156 113.375 62.5547 112.711C63.6016 112.039 64.7969 111.703 66.1406 111.703C67.5156 111.703 68.7227 112.035 69.7617 112.699C70.8086 113.363 71.6133 114.32 72.1758 115.57C72.7383 116.812 73.0195 118.266 73.0195 119.93V121.02ZM70.7695 119.918C70.7695 117.91 70.3672 116.363 69.5625 115.277C68.7656 114.184 67.625 113.637 66.1406 113.637C64.7266 113.637 63.6094 114.18 62.7891 115.266C61.9766 116.344 61.5586 117.844 61.5352 119.766V121.02C61.5352 122.973 61.9414 124.512 62.7539 125.637C63.5742 126.762 64.7109 127.324 66.1641 127.324C67.6172 127.324 68.7422 126.797 69.5391 125.742C70.3359 124.68 70.7461 123.16 70.7695 121.184V119.918Z" fill="black"/>
<path d="M95 608.5H5C4.46957 608.5 3.96086 608.289 3.58579 607.914C3.21071 607.539 3 607.03 3 606.5V561.5C3 560.97 3.21071 560.461 3.58579 560.086C3.96086 559.711 4.46957 559.5 5 559.5H95C95.5304 559.5 96.0391 559.711 96.4142 560.086C96.7893 560.461 97 560.97 97 561.5V606.5C97 607.03 96.7893 607.539 96.4142 607.914C96.0391 608.289 95.5304 608.5 95 608.5ZM7 604.5H93V563.5H7V604.5Z" fill="#4112A4"/>
<path d="M58.3799 555.06C57.8826 553.218 56.7923 551.591 55.2775 550.431C53.7627 549.271 51.9079 548.642 49.9999 548.642C48.0919 548.642 46.2371 549.271 44.7223 550.431C43.2075 551.591 42.1172 553.218 41.6199 555.06L37.7599 554C38.4737 551.298 40.0614 548.908 42.2754 547.203C44.4895 545.498 47.2054 544.574 49.9999 544.574C52.7944 544.574 55.5103 545.498 57.7243 547.203C59.9384 548.908 61.5261 551.298 62.2399 554L58.3799 555.06Z" fill="#4112A4"/>
<path d="M65.0399 550.96C63.7749 548.032 61.6805 545.538 59.0151 543.786C56.3496 542.034 53.2296 541.1 50.0399 541.1C46.8502 541.1 43.7303 542.034 41.0648 543.786C38.3993 545.538 36.305 548.032 35.0399 550.96L31.3599 549.38C32.9209 545.707 35.5281 542.574 38.8568 540.371C42.1855 538.169 46.0886 536.995 50.0799 536.995C54.0712 536.995 57.9743 538.169 61.303 540.371C64.6318 542.574 67.239 545.707 68.7999 549.38L65.0399 550.96Z" fill="#4112A4"/>
<path d="M49.9999 623.36C47.2124 623.371 44.4998 622.458 42.2856 620.765C40.0713 619.072 38.4799 616.693 37.7599 614L41.6199 612.98C42.1172 614.822 43.2075 616.449 44.7223 617.609C46.2371 618.769 48.0919 619.398 49.9999 619.398C51.9079 619.398 53.7627 618.769 55.2775 617.609C56.7923 616.449 57.8826 614.822 58.3799 612.98L62.2399 614C61.5198 616.693 59.9285 619.072 57.7142 620.765C55.4999 622.458 52.7874 623.371 49.9999 623.36Z" fill="#4112A4"/>
<path d="M49.9999 631C46.0086 631.003 42.1048 629.831 38.7757 627.629C35.4465 625.427 32.8395 622.294 31.2799 618.62L34.9599 617.04C36.2249 619.968 38.3193 622.462 40.9848 624.214C43.6502 625.966 46.7702 626.9 49.9599 626.9C53.1496 626.9 56.2696 625.966 58.935 624.214C61.6005 622.462 63.6949 619.968 64.9599 617.04L68.6399 618.62C67.0857 622.281 64.491 625.406 61.1775 627.607C57.864 629.808 53.9776 630.987 49.9999 631Z" fill="#4112A4"/>
<path d="M16.26 595.24C18.8447 595.24 20.94 593.145 20.94 590.56C20.94 587.975 18.8447 585.88 16.26 585.88C13.6754 585.88 11.58 587.975 11.58 590.56C11.58 593.145 13.6754 595.24 16.26 595.24Z" fill="#4112A4"/>
<path d="M18.2599 593.38H14.2599V606.5H18.2599V593.38Z" fill="#4112A4"/>
<path d="M19.1 578.42C21.6846 578.42 23.78 576.325 23.78 573.74C23.78 571.155 21.6846 569.06 19.1 569.06C16.5153 569.06 14.42 571.155 14.42 573.74C14.42 576.325 16.5153 578.42 19.1 578.42Z" fill="#4112A4"/>
<path d="M33.26 606.5H29.26V586.7L18.58 576.04L21.42 573.22L33.26 585.04V606.5Z" fill="#4112A4"/>
<path d="M89.5001 586H74.2401V570.76H89.5001V586ZM78.2401 582H85.5001V574.76H78.2401V582Z" fill="#4112A4"/>
<path d="M62.18 583.06C64.7647 583.06 66.86 580.965 66.86 578.38C66.86 575.795 64.7647 573.7 62.18 573.7C59.5953 573.7 57.5 575.795 57.5 578.38C57.5 580.965 59.5953 583.06 62.18 583.06Z" fill="#4112A4"/>
<path d="M76.2401 576.38H63.1201V580.38H76.2401V576.38Z" fill="#4112A4"/>
<path d="M55.62 599.94C58.2047 599.94 60.3 597.845 60.3 595.26C60.3 592.675 58.2047 590.58 55.62 590.58C53.0353 590.58 50.94 592.675 50.94 595.26C50.94 597.845 53.0353 599.94 55.62 599.94Z" fill="#4112A4"/>
<path d="M94.9999 593.26H59.3799V597.26H94.9999V593.26Z" fill="#4112A4"/>
<path d="M45.3201 587.74C47.9048 587.74 50.0001 585.645 50.0001 583.06C50.0001 580.475 47.9048 578.38 45.3201 578.38C42.7354 578.38 40.6401 580.475 40.6401 583.06C40.6401 585.645 42.7354 587.74 45.3201 587.74Z" fill="#4112A4"/>
<path d="M43.0001 583.58L31.1801 571.76L31.1201 561.52L35.1201 561.48L35.1601 570.1L45.8401 580.76L43.0001 583.58Z" fill="#4112A4"/>
<path d="M28.9805 663V645.938H33.7969C35.2812 645.938 36.5938 646.266 37.7344 646.922C38.875 647.578 39.7539 648.512 40.3711 649.723C40.9961 650.934 41.3125 652.324 41.3203 653.895V654.984C41.3203 656.594 41.0078 658.004 40.3828 659.215C39.7656 660.426 38.8789 661.355 37.7227 662.004C36.5742 662.652 35.2344 662.984 33.7031 663H28.9805ZM31.2305 647.789V661.16H33.5977C35.332 661.16 36.6797 660.621 37.6406 659.543C38.6094 658.465 39.0938 656.93 39.0938 654.938V653.941C39.0938 652.004 38.6367 650.5 37.7227 649.43C36.8164 648.352 35.5273 647.805 33.8555 647.789H31.2305ZM53.8945 658.547H46.7461L45.1406 663H42.8203L49.3359 645.938H51.3047L57.832 663H55.5234L53.8945 658.547ZM47.4258 656.695H53.2266L50.3203 648.715L47.4258 656.695ZM73.0195 655.02C73.0195 656.668 72.7578 658.09 72.2344 659.285C71.7109 660.473 70.9766 661.402 70.0312 662.074L73.0781 664.465L71.543 665.883L67.9453 663.023C67.3828 663.164 66.7891 663.234 66.1641 663.234C64.8203 663.234 63.6289 662.906 62.5898 662.25C61.5508 661.586 60.7422 660.645 60.1641 659.426C59.5938 658.199 59.3008 656.781 59.2852 655.172V653.941C59.2852 652.301 59.5703 650.852 60.1406 649.594C60.7109 648.336 61.5156 647.375 62.5547 646.711C63.6016 646.039 64.7969 645.703 66.1406 645.703C67.5156 645.703 68.7227 646.035 69.7617 646.699C70.8086 647.363 71.6133 648.32 72.1758 649.57C72.7383 650.812 73.0195 652.266 73.0195 653.93V655.02ZM70.7695 653.918C70.7695 651.91 70.3672 650.363 69.5625 649.277C68.7656 648.184 67.625 647.637 66.1406 647.637C64.7266 647.637 63.6094 648.18 62.7891 649.266C61.9766 650.344 61.5586 651.844 61.5352 653.766V655.02C61.5352 656.973 61.9414 658.512 62.7539 659.637C63.5742 660.762 64.7109 661.324 66.1641 661.324C67.6172 661.324 68.7422 660.797 69.5391 659.742C70.3359 658.68 70.7461 657.16 70.7695 655.184V653.918Z" fill="black"/>
<path d="M923 74.5H833C832.47 74.5 831.961 74.2893 831.586 73.9142C831.211 73.5391 831 73.0304 831 72.5V27.5C831 26.9696 831.211 26.4609 831.586 26.0858C831.961 25.7107 832.47 25.5 833 25.5H923C923.53 25.5 924.039 25.7107 924.414 26.0858C924.789 26.4609 925 26.9696 925 27.5V72.5C925 73.0304 924.789 73.5391 924.414 73.9142C924.039 74.2893 923.53 74.5 923 74.5ZM835 70.5H921V29.5H835V70.5Z" fill="#4112A4"/>
<path d="M886.38 21.0599C885.883 19.2179 884.792 17.591 883.277 16.4309C881.763 15.2709 879.908 14.6422 878 14.6422C876.092 14.6422 874.237 15.2709 872.722 16.4309C871.208 17.591 870.117 19.2179 869.62 21.0599L865.76 19.9999C866.474 17.2981 868.061 14.9085 870.275 13.2034C872.489 11.4984 875.205 10.5738 878 10.5738C880.794 10.5738 883.51 11.4984 885.724 13.2034C887.938 14.9085 889.526 17.2981 890.24 19.9999L886.38 21.0599Z" fill="#4112A4"/>
<path d="M893.04 16.96C891.775 14.0318 889.681 11.538 887.015 9.78596C884.35 8.03394 881.23 7.10036 878.04 7.10036C874.85 7.10036 871.73 8.03394 869.065 9.78596C866.399 11.538 864.305 14.0318 863.04 16.96L859.36 15.38C860.921 11.7065 863.528 8.57356 866.857 6.37126C870.186 4.16895 874.089 2.99466 878.08 2.99466C882.071 2.99466 885.974 4.16895 889.303 6.37126C892.632 8.57356 895.239 11.7065 896.8 15.38L893.04 16.96Z" fill="#4112A4"/>
<path d="M878 89.36C875.212 89.3707 872.5 88.4581 870.286 86.7649C868.071 85.0716 866.48 82.6929 865.76 80L869.62 78.98C870.117 80.822 871.208 82.4489 872.722 83.609C874.237 84.769 876.092 85.3977 878 85.3977C879.908 85.3977 881.763 84.769 883.277 83.609C884.792 82.4489 885.883 80.822 886.38 78.98L890.24 80C889.52 82.6929 887.928 85.0716 885.714 86.7649C883.5 88.4581 880.787 89.3707 878 89.36Z" fill="#4112A4"/>
<path d="M878 97C874.009 97.0031 870.105 95.8306 866.776 93.629C863.447 91.4273 860.839 88.294 859.28 84.62L862.96 83.04C864.225 85.9682 866.319 88.462 868.985 90.214C871.65 91.966 874.77 92.8996 877.96 92.8996C881.15 92.8996 884.27 91.966 886.935 90.214C889.6 88.462 891.695 85.9682 892.96 83.04L896.64 84.62C895.086 88.2815 892.491 91.4062 889.178 93.6069C885.864 95.8076 881.978 96.9874 878 97Z" fill="#4112A4"/>
<path d="M844.26 61.2399C846.845 61.2399 848.94 59.1446 848.94 56.5599C848.94 53.9753 846.845 51.8799 844.26 51.8799C841.675 51.8799 839.58 53.9753 839.58 56.5599C839.58 59.1446 841.675 61.2399 844.26 61.2399Z" fill="#4112A4"/>
<path d="M846.26 59.3799H842.26V72.4999H846.26V59.3799Z" fill="#4112A4"/>
<path d="M847.1 44.42C849.685 44.42 851.78 42.3247 851.78 39.74C851.78 37.1553 849.685 35.06 847.1 35.06C844.515 35.06 842.42 37.1553 842.42 39.74C842.42 42.3247 844.515 44.42 847.1 44.42Z" fill="#4112A4"/>
<path d="M861.26 72.5001H857.26V52.7001L846.58 42.0401L849.42 39.2201L861.26 51.0401V72.5001Z" fill="#4112A4"/>
<path d="M917.5 51.9999H902.24V36.7599H917.5V51.9999ZM906.24 47.9999H913.5V40.7599H906.24V47.9999Z" fill="#4112A4"/>
<path d="M890.18 49.0601C892.765 49.0601 894.86 46.9648 894.86 44.3801C894.86 41.7954 892.765 39.7001 890.18 39.7001C887.595 39.7001 885.5 41.7954 885.5 44.3801C885.5 46.9648 887.595 49.0601 890.18 49.0601Z" fill="#4112A4"/>
<path d="M904.24 42.3799H891.12V46.3799H904.24V42.3799Z" fill="#4112A4"/>
<path d="M883.62 65.94C886.205 65.94 888.3 63.8447 888.3 61.26C888.3 58.6754 886.205 56.58 883.62 56.58C881.035 56.58 878.94 58.6754 878.94 61.26C878.94 63.8447 881.035 65.94 883.62 65.94Z" fill="#4112A4"/>
<path d="M923 59.2599H887.38V63.2599H923V59.2599Z" fill="#4112A4"/>
<path d="M873.32 53.7399C875.905 53.7399 878 51.6446 878 49.0599C878 46.4753 875.905 44.3799 873.32 44.3799C870.735 44.3799 868.64 46.4753 868.64 49.0599C868.64 51.6446 870.735 53.7399 873.32 53.7399Z" fill="#4112A4"/>
<path d="M871 49.58L859.18 37.76L859.12 27.52L863.12 27.48L863.16 36.1L873.84 46.76L871 49.58Z" fill="#4112A4"/>
<path d="M856.98 129V111.938H861.797C863.281 111.938 864.594 112.266 865.734 112.922C866.875 113.578 867.754 114.512 868.371 115.723C868.996 116.934 869.312 118.324 869.32 119.895V120.984C869.32 122.594 869.008 124.004 868.383 125.215C867.766 126.426 866.879 127.355 865.723 128.004C864.574 128.652 863.234 128.984 861.703 129H856.98ZM859.23 113.789V127.16H861.598C863.332 127.16 864.68 126.621 865.641 125.543C866.609 124.465 867.094 122.93 867.094 120.938V119.941C867.094 118.004 866.637 116.5 865.723 115.43C864.816 114.352 863.527 113.805 861.855 113.789H859.23ZM881.895 124.547H874.746L873.141 129H870.82L877.336 111.938H879.305L885.832 129H883.523L881.895 124.547ZM875.426 122.695H881.227L878.32 114.715L875.426 122.695ZM901.02 121.02C901.02 122.668 900.758 124.09 900.234 125.285C899.711 126.473 898.977 127.402 898.031 128.074L901.078 130.465L899.543 131.883L895.945 129.023C895.383 129.164 894.789 129.234 894.164 129.234C892.82 129.234 891.629 128.906 890.59 128.25C889.551 127.586 888.742 126.645 888.164 125.426C887.594 124.199 887.301 122.781 887.285 121.172V119.941C887.285 118.301 887.57 116.852 888.141 115.594C888.711 114.336 889.516 113.375 890.555 112.711C891.602 112.039 892.797 111.703 894.141 111.703C895.516 111.703 896.723 112.035 897.762 112.699C898.809 113.363 899.613 114.32 900.176 115.57C900.738 116.812 901.02 118.266 901.02 119.93V121.02ZM898.77 119.918C898.77 117.91 898.367 116.363 897.562 115.277C896.766 114.184 895.625 113.637 894.141 113.637C892.727 113.637 891.609 114.18 890.789 115.266C889.977 116.344 889.559 117.844 889.535 119.766V121.02C889.535 122.973 889.941 124.512 890.754 125.637C891.574 126.762 892.711 127.324 894.164 127.324C895.617 127.324 896.742 126.797 897.539 125.742C898.336 124.68 898.746 123.16 898.77 121.184V119.918Z" fill="black"/>
<path d="M923 608.5H833C832.47 608.5 831.961 608.289 831.586 607.914C831.211 607.539 831 607.03 831 606.5V561.5C831 560.97 831.211 560.461 831.586 560.086C831.961 559.711 832.47 559.5 833 559.5H923C923.53 559.5 924.039 559.711 924.414 560.086C924.789 560.461 925 560.97 925 561.5V606.5C925 607.03 924.789 607.539 924.414 607.914C924.039 608.289 923.53 608.5 923 608.5ZM835 604.5H921V563.5H835V604.5Z" fill="#4112A4"/>
<path d="M886.38 555.06C885.883 553.218 884.792 551.591 883.277 550.431C881.763 549.271 879.908 548.642 878 548.642C876.092 548.642 874.237 549.271 872.722 550.431C871.208 551.591 870.117 553.218 869.62 555.06L865.76 554C866.474 551.298 868.061 548.908 870.275 547.203C872.489 545.498 875.205 544.574 878 544.574C880.794 544.574 883.51 545.498 885.724 547.203C887.938 548.908 889.526 551.298 890.24 554L886.38 555.06Z" fill="#4112A4"/>
<path d="M893.04 550.96C891.775 548.032 889.681 545.538 887.015 543.786C884.35 542.034 881.23 541.1 878.04 541.1C874.85 541.1 871.73 542.034 869.065 543.786C866.399 545.538 864.305 548.032 863.04 550.96L859.36 549.38C860.921 545.707 863.528 542.574 866.857 540.371C870.186 538.169 874.089 536.995 878.08 536.995C882.071 536.995 885.974 538.169 889.303 540.371C892.632 542.574 895.239 545.707 896.8 549.38L893.04 550.96Z" fill="#4112A4"/>
<path d="M878 623.36C875.212 623.371 872.5 622.458 870.286 620.765C868.071 619.072 866.48 616.693 865.76 614L869.62 612.98C870.117 614.822 871.208 616.449 872.722 617.609C874.237 618.769 876.092 619.398 878 619.398C879.908 619.398 881.763 618.769 883.277 617.609C884.792 616.449 885.883 614.822 886.38 612.98L890.24 614C889.52 616.693 887.928 619.072 885.714 620.765C883.5 622.458 880.787 623.371 878 623.36Z" fill="#4112A4"/>
<path d="M878 631C874.009 631.003 870.105 629.831 866.776 627.629C863.447 625.427 860.839 622.294 859.28 618.62L862.96 617.04C864.225 619.968 866.319 622.462 868.985 624.214C871.65 625.966 874.77 626.9 877.96 626.9C881.15 626.9 884.27 625.966 886.935 624.214C889.6 622.462 891.695 619.968 892.96 617.04L896.64 618.62C895.086 622.281 892.491 625.406 889.178 627.607C885.864 629.808 881.978 630.987 878 631Z" fill="#4112A4"/>
<path d="M844.26 595.24C846.845 595.24 848.94 593.145 848.94 590.56C848.94 587.975 846.845 585.88 844.26 585.88C841.675 585.88 839.58 587.975 839.58 590.56C839.58 593.145 841.675 595.24 844.26 595.24Z" fill="#4112A4"/>
<path d="M846.26 593.38H842.26V606.5H846.26V593.38Z" fill="#4112A4"/>
<path d="M847.1 578.42C849.685 578.42 851.78 576.325 851.78 573.74C851.78 571.155 849.685 569.06 847.1 569.06C844.515 569.06 842.42 571.155 842.42 573.74C842.42 576.325 844.515 578.42 847.1 578.42Z" fill="#4112A4"/>
<path d="M861.26 606.5H857.26V586.7L846.58 576.04L849.42 573.22L861.26 585.04V606.5Z" fill="#4112A4"/>
<path d="M917.5 586H902.24V570.76H917.5V586ZM906.24 582H913.5V574.76H906.24V582Z" fill="#4112A4"/>
<path d="M890.18 583.06C892.765 583.06 894.86 580.965 894.86 578.38C894.86 575.795 892.765 573.7 890.18 573.7C887.595 573.7 885.5 575.795 885.5 578.38C885.5 580.965 887.595 583.06 890.18 583.06Z" fill="#4112A4"/>
<path d="M904.24 576.38H891.12V580.38H904.24V576.38Z" fill="#4112A4"/>
<path d="M883.62 599.94C886.205 599.94 888.3 597.845 888.3 595.26C888.3 592.675 886.205 590.58 883.62 590.58C881.035 590.58 878.94 592.675 878.94 595.26C878.94 597.845 881.035 599.94 883.62 599.94Z" fill="#4112A4"/>
<path d="M923 593.26H887.38V597.26H923V593.26Z" fill="#4112A4"/>
<path d="M873.32 587.74C875.905 587.74 878 585.645 878 583.06C878 580.475 875.905 578.38 873.32 578.38C870.735 578.38 868.64 580.475 868.64 583.06C868.64 585.645 870.735 587.74 873.32 587.74Z" fill="#4112A4"/>
<path d="M871 583.58L859.18 571.76L859.12 561.52L863.12 561.48L863.16 570.1L873.84 580.76L871 583.58Z" fill="#4112A4"/>
<path d="M856.98 663V645.938H861.797C863.281 645.938 864.594 646.266 865.734 646.922C866.875 647.578 867.754 648.512 868.371 649.723C868.996 650.934 869.312 652.324 869.32 653.895V654.984C869.32 656.594 869.008 658.004 868.383 659.215C867.766 660.426 866.879 661.355 865.723 662.004C864.574 662.652 863.234 662.984 861.703 663H856.98ZM859.23 647.789V661.16H861.598C863.332 661.16 864.68 660.621 865.641 659.543C866.609 658.465 867.094 656.93 867.094 654.938V653.941C867.094 652.004 866.637 650.5 865.723 649.43C864.816 648.352 863.527 647.805 861.855 647.789H859.23ZM881.895 658.547H874.746L873.141 663H870.82L877.336 645.938H879.305L885.832 663H883.523L881.895 658.547ZM875.426 656.695H881.227L878.32 648.715L875.426 656.695ZM901.02 655.02C901.02 656.668 900.758 658.09 900.234 659.285C899.711 660.473 898.977 661.402 898.031 662.074L901.078 664.465L899.543 665.883L895.945 663.023C895.383 663.164 894.789 663.234 894.164 663.234C892.82 663.234 891.629 662.906 890.59 662.25C889.551 661.586 888.742 660.645 888.164 659.426C887.594 658.199 887.301 656.781 887.285 655.172V653.941C887.285 652.301 887.57 650.852 888.141 649.594C888.711 648.336 889.516 647.375 890.555 646.711C891.602 646.039 892.797 645.703 894.141 645.703C895.516 645.703 896.723 646.035 897.762 646.699C898.809 647.363 899.613 648.32 900.176 649.57C900.738 650.812 901.02 652.266 901.02 653.93V655.02ZM898.77 653.918C898.77 651.91 898.367 650.363 897.562 649.277C896.766 648.184 895.625 647.637 894.141 647.637C892.727 647.637 891.609 648.18 890.789 649.266C889.977 650.344 889.559 651.844 889.535 653.766V655.02C889.535 656.973 889.941 658.512 890.754 659.637C891.574 660.762 892.711 661.324 894.164 661.324C895.617 661.324 896.742 660.797 897.539 659.742C898.336 658.68 898.746 657.16 898.77 655.184V653.918Z" fill="black"/>
<line x1="128.267" y1="90.7042" x2="397.267" y2="275.704" stroke="#C8C8C8" stroke-width="8" stroke-dasharray="5 10"/>
<line y1="-4" x2="326.475" y2="-4" transform="matrix(0.823953 -0.566659 -0.566659 -0.823953 126 545)" stroke="#C8C8C8" stroke-width="8" stroke-dasharray="5 10"/>
<line x1="799.733" y1="546.296" x2="530.733" y2="361.296" stroke="#C8C8C8" stroke-width="8" stroke-dasharray="5 10"/>
<line y1="-4" x2="326.475" y2="-4" transform="matrix(0.823953 -0.566659 -0.566659 -0.823953 533 277)" stroke="#C8C8C8" stroke-width="8" stroke-dasharray="5 10"/>
</svg>
