<svg viewBox="0 0 1079 837" fill="none" xmlns="http://www.w3.org/2000/svg">
<path d="M78.1771 331.81L134.107 348.277L1077.88 233.309L991.129 230.601V228.05L621.552 267.297L541.365 275.953L496.916 282.071L78.1771 331.81Z" fill="#9C9C9C"/>
<path d="M492.337 394.931L493.923 306.218L575.584 295.687V412.153" fill="#9C9C9C"/>
<path d="M492.337 394.931L493.923 306.218L575.584 295.687V412.153" stroke="#121113" stroke-miterlimit="10" stroke-linecap="round" stroke-linejoin="round"/>
<path d="M499.663 281.811C499.663 281.811 485.971 282.813 484.943 285.221L484.899 286.705L499.082 285.235L499.663 281.811Z" fill="#9C9C9C" stroke="#121113" stroke-miterlimit="10" stroke-linecap="round" stroke-linejoin="round"/>
<path d="M512.194 19.0703L503.036 20.346L505.069 71.608L502.366 73.5216L503.371 129.717L499.976 131.474L500.311 200.141L497.251 202.21L499.641 285.078L507.459 284.61L506.431 202.21L508.464 199.503L507.794 131.644L511.524 128.285L510.496 73.3653L513.556 70.9702L512.194 19.0703Z" fill="#9C9C9C" stroke="#121113" stroke-miterlimit="10" stroke-linecap="round" stroke-linejoin="round"/>
<path d="M512.194 19.0703L529.393 20.9838C529.393 20.9838 538.595 159.318 538.595 158.798C538.595 158.277 543.375 245.532 543.375 245.532L544.112 280.158L507.414 284.61L506.386 202.223L508.419 199.503L507.749 131.644L511.479 128.285L510.452 73.3523L513.512 70.9571L512.194 19.0703Z" fill="#121113" stroke="#121113" stroke-miterlimit="10" stroke-linecap="round" stroke-linejoin="round"/>
<path d="M531.001 19.9034C531.001 19.9034 529.482 14.9178 520.771 14.3841C512.06 13.8504 503.125 16.7142 503.036 20.359" fill="#121113"/>
<path d="M531.001 19.9034C531.001 19.9034 529.482 14.9178 520.771 14.3841C512.06 13.8504 503.125 16.7142 503.036 20.359" stroke="#121113" stroke-miterlimit="10" stroke-linecap="round" stroke-linejoin="round"/>
<path d="M522.67 14.3711L520.771 10.6351H515.835L513.556 14.3711" fill="#121113"/>
<path d="M522.67 14.3711L520.771 10.6351H515.835L513.556 14.3711" stroke="#121113" stroke-miterlimit="10" stroke-linecap="round" stroke-linejoin="round"/>
<path d="M510.876 15.0479C510.876 15.0479 192.137 100.584 6.38818 138.686" stroke="#121113" stroke-width="3" stroke-miterlimit="10" stroke-linecap="round" stroke-linejoin="round"/>
<path d="M563.634 34.0922L579.672 40.5618" stroke="#121113" stroke-width="3" stroke-miterlimit="10" stroke-linecap="round" stroke-linejoin="round"/>
<path d="M610.25 52.0691C610.25 52.0691 899.171 170.318 1061.98 195.48" stroke="#121113" stroke-width="3" stroke-miterlimit="10" stroke-linecap="round" stroke-linejoin="round"/>
<path d="M517.287 36.3182V49.8822L528.5 50.52V45.8989L530.197 44.7794L529.527 41.9026L531.56 39.0258L531.895 38.2317L537.322 37.7501L537.68 36.6306L582.151 32.4781L581.816 29.1326L517.287 36.3182Z" fill="#121113" stroke="#121113" stroke-miterlimit="10" stroke-linecap="round" stroke-linejoin="round"/>
<path d="M517.287 22.2595V36.3182L581.816 29.1327V13.9675L517.287 22.2595Z" fill="#9C9C9C" stroke="#121113" stroke-miterlimit="10" stroke-linecap="round" stroke-linejoin="round"/>
<path d="M523.026 23.2098L522.96 32.439" stroke="#121113" stroke-miterlimit="10" stroke-linecap="round" stroke-linejoin="round"/>
<path d="M527.939 22.6501L527.874 31.8793" stroke="#121113" stroke-miterlimit="10" stroke-linecap="round" stroke-linejoin="round"/>
<path d="M532.853 22.0903L532.788 31.3195" stroke="#121113" stroke-miterlimit="10" stroke-linecap="round" stroke-linejoin="round"/>
<path d="M537.767 21.5305L537.702 30.7598" stroke="#121113" stroke-miterlimit="10" stroke-linecap="round" stroke-linejoin="round"/>
<path d="M542.682 20.9708L542.616 30.2" stroke="#121113" stroke-miterlimit="10" stroke-linecap="round" stroke-linejoin="round"/>
<path d="M547.596 20.4111L547.53 29.6403" stroke="#121113" stroke-miterlimit="10" stroke-linecap="round" stroke-linejoin="round"/>
<path d="M552.51 19.8513L552.444 29.0806" stroke="#121113" stroke-miterlimit="10" stroke-linecap="round" stroke-linejoin="round"/>
<path d="M557.424 19.2916L557.358 28.5208" stroke="#121113" stroke-miterlimit="10" stroke-linecap="round" stroke-linejoin="round"/>
<path d="M562.338 18.7318L562.272 27.9611" stroke="#121113" stroke-miterlimit="10" stroke-linecap="round" stroke-linejoin="round"/>
<path d="M567.252 18.1721L567.186 27.4013" stroke="#121113" stroke-miterlimit="10" stroke-linecap="round" stroke-linejoin="round"/>
<path d="M572.165 17.6123L572.1 26.8416" stroke="#121113" stroke-miterlimit="10" stroke-linecap="round" stroke-linejoin="round"/>
<path d="M577.079 17.0526L577.014 26.2819" stroke="#121113" stroke-miterlimit="10" stroke-linecap="round" stroke-linejoin="round"/>
<path d="M517.287 89.9233V105.062L528.5 105.7V101.079L530.197 99.9597L529.527 97.0828L531.56 94.206L531.895 93.412L537.322 92.9303L537.68 91.8108L582.151 89.2725L581.816 85.901L517.287 89.9233Z" fill="#121113" stroke="#121113" stroke-miterlimit="10" stroke-linecap="round" stroke-linejoin="round"/>
<path d="M517.287 75.8256V89.8843L581.816 85.901V70.7359L517.287 75.8256Z" fill="#9C9C9C" stroke="#121113" stroke-miterlimit="10" stroke-linecap="round" stroke-linejoin="round"/>
<path d="M523.026 77.0623L522.96 86.2915" stroke="#121113" stroke-miterlimit="10" stroke-linecap="round" stroke-linejoin="round"/>
<path d="M527.939 76.7498L527.874 85.9791" stroke="#121113" stroke-miterlimit="10" stroke-linecap="round" stroke-linejoin="round"/>
<path d="M532.853 76.4244L532.788 85.6536" stroke="#121113" stroke-miterlimit="10" stroke-linecap="round" stroke-linejoin="round"/>
<path d="M537.767 76.112L537.702 85.3412" stroke="#121113" stroke-miterlimit="10" stroke-linecap="round" stroke-linejoin="round"/>
<path d="M542.682 75.7996L542.616 85.0288" stroke="#121113" stroke-miterlimit="10" stroke-linecap="round" stroke-linejoin="round"/>
<path d="M547.596 75.4872L547.53 84.7164" stroke="#121113" stroke-miterlimit="10" stroke-linecap="round" stroke-linejoin="round"/>
<path d="M552.51 75.1747L552.444 84.4039" stroke="#121113" stroke-miterlimit="10" stroke-linecap="round" stroke-linejoin="round"/>
<path d="M557.424 74.8623L557.358 84.0916" stroke="#121113" stroke-miterlimit="10" stroke-linecap="round" stroke-linejoin="round"/>
<path d="M562.338 74.5369L562.272 83.7662" stroke="#121113" stroke-miterlimit="10" stroke-linecap="round" stroke-linejoin="round"/>
<path d="M567.252 74.2245L567.186 83.4537" stroke="#121113" stroke-miterlimit="10" stroke-linecap="round" stroke-linejoin="round"/>
<path d="M572.165 73.912L572.1 83.1413" stroke="#121113" stroke-miterlimit="10" stroke-linecap="round" stroke-linejoin="round"/>
<path d="M577.079 73.5996L577.014 82.8289" stroke="#121113" stroke-miterlimit="10" stroke-linecap="round" stroke-linejoin="round"/>
<path d="M517.287 148.111V165.632L528.5 165.41V159.865L530.197 158.837L529.527 155.921L531.56 153.161L531.895 152.38L537.322 152.185L537.68 151.091L582.151 150.909L581.816 147.525L517.287 148.111Z" fill="#121113" stroke="#121113" stroke-miterlimit="10" stroke-linecap="round" stroke-linejoin="round"/>
<path d="M517.287 134.026V148.071L581.816 147.525V132.36L517.287 134.026Z" fill="#9C9C9C" stroke="#121113" stroke-miterlimit="10" stroke-linecap="round" stroke-linejoin="round"/>
<path d="M523.026 135.562L522.96 144.791" stroke="#121113" stroke-miterlimit="10" stroke-linecap="round" stroke-linejoin="round"/>
<path d="M527.939 135.51L527.874 144.726" stroke="#121113" stroke-miterlimit="10" stroke-linecap="round" stroke-linejoin="round"/>
<path d="M532.853 135.458L532.788 144.674" stroke="#121113" stroke-miterlimit="10" stroke-linecap="round" stroke-linejoin="round"/>
<path d="M537.767 135.393L537.702 144.622" stroke="#121113" stroke-miterlimit="10" stroke-linecap="round" stroke-linejoin="round"/>
<path d="M542.682 135.341L542.616 144.57" stroke="#121113" stroke-miterlimit="10" stroke-linecap="round" stroke-linejoin="round"/>
<path d="M547.596 135.289L547.53 144.518" stroke="#121113" stroke-miterlimit="10" stroke-linecap="round" stroke-linejoin="round"/>
<path d="M552.51 135.236L552.444 144.466" stroke="#121113" stroke-miterlimit="10" stroke-linecap="round" stroke-linejoin="round"/>
<path d="M557.424 135.184L557.358 144.414" stroke="#121113" stroke-miterlimit="10" stroke-linecap="round" stroke-linejoin="round"/>
<path d="M562.338 135.132L562.272 144.349" stroke="#121113" stroke-miterlimit="10" stroke-linecap="round" stroke-linejoin="round"/>
<path d="M567.252 135.08L567.186 144.297" stroke="#121113" stroke-miterlimit="10" stroke-linecap="round" stroke-linejoin="round"/>
<path d="M572.165 135.014L572.1 144.243" stroke="#121113" stroke-miterlimit="10" stroke-linecap="round" stroke-linejoin="round"/>
<path d="M577.079 134.963L577.014 144.192" stroke="#121113" stroke-miterlimit="10" stroke-linecap="round" stroke-linejoin="round"/>
<path d="M517.287 219.68V237.201L528.5 236.511V231.877L530.197 230.926L529.527 227.985L531.56 225.303L531.895 224.535L537.322 224.561L537.68 223.481L582.151 225.095L581.816 221.697L517.287 219.68Z" fill="#121113" stroke="#121113" stroke-miterlimit="10" stroke-linecap="round" stroke-linejoin="round"/>
<path d="M517.287 205.582V219.64L581.816 221.697V206.519L517.287 205.582Z" fill="#9C9C9C" stroke="#121113" stroke-miterlimit="10" stroke-linecap="round" stroke-linejoin="round"/>
<path d="M523.026 207.352L522.96 216.581" stroke="#121113" stroke-miterlimit="10" stroke-linecap="round" stroke-linejoin="round"/>
<path d="M527.939 207.495L527.874 216.725" stroke="#121113" stroke-miterlimit="10" stroke-linecap="round" stroke-linejoin="round"/>
<path d="M532.853 207.639L532.788 216.868" stroke="#121113" stroke-miterlimit="10" stroke-linecap="round" stroke-linejoin="round"/>
<path d="M537.767 207.782L537.702 217.011" stroke="#121113" stroke-miterlimit="10" stroke-linecap="round" stroke-linejoin="round"/>
<path d="M542.682 207.938L542.616 217.154" stroke="#121113" stroke-miterlimit="10" stroke-linecap="round" stroke-linejoin="round"/>
<path d="M547.596 208.081L547.53 217.297" stroke="#121113" stroke-miterlimit="10" stroke-linecap="round" stroke-linejoin="round"/>
<path d="M552.51 208.224L552.444 217.44" stroke="#121113" stroke-miterlimit="10" stroke-linecap="round" stroke-linejoin="round"/>
<path d="M557.424 208.367L557.358 217.584" stroke="#121113" stroke-miterlimit="10" stroke-linecap="round" stroke-linejoin="round"/>
<path d="M562.338 208.511L562.272 217.727" stroke="#121113" stroke-miterlimit="10" stroke-linecap="round" stroke-linejoin="round"/>
<path d="M567.252 208.654L567.186 217.883" stroke="#121113" stroke-miterlimit="10" stroke-linecap="round" stroke-linejoin="round"/>
<path d="M572.165 208.797L572.1 218.026" stroke="#121113" stroke-miterlimit="10" stroke-linecap="round" stroke-linejoin="round"/>
<path d="M577.079 208.94L577.014 218.169" stroke="#121113" stroke-miterlimit="10" stroke-linecap="round" stroke-linejoin="round"/>
<path d="M531.895 38.2317L518.627 36.8389" stroke="#9C9C9C" stroke-width="0.5" stroke-miterlimit="10" stroke-linecap="round" stroke-linejoin="round"/>
<path d="M530.197 44.7794L518.247 43.725" stroke="#9C9C9C" stroke-width="0.5" stroke-miterlimit="10" stroke-linecap="round" stroke-linejoin="round"/>
<path d="M531.894 93.4119L518.247 92.9824" stroke="#9C9C9C" stroke-width="0.5" stroke-miterlimit="10" stroke-linecap="round" stroke-linejoin="round"/>
<path d="M530.197 99.9596L517.89 99.1916" stroke="#9C9C9C" stroke-width="0.5" stroke-miterlimit="10" stroke-linecap="round" stroke-linejoin="round"/>
<path d="M531.895 152.38H517.331" stroke="#9C9C9C" stroke-width="0.5" stroke-miterlimit="10" stroke-linecap="round" stroke-linejoin="round"/>
<path d="M528.499 159.865H517.532" stroke="#9C9C9C" stroke-width="0.5" stroke-miterlimit="10" stroke-linecap="round" stroke-linejoin="round"/>
<path d="M516.817 231.733L528.499 231.877" stroke="#9C9C9C" stroke-width="0.5" stroke-miterlimit="10" stroke-linecap="round" stroke-linejoin="round"/>
<path d="M517.599 224.144L531.895 224.535" stroke="#9C9C9C" stroke-width="0.5" stroke-miterlimit="10" stroke-linecap="round" stroke-linejoin="round"/>
<path d="M528.455 318.298L548.758 315.422" stroke="#121113" stroke-miterlimit="10" stroke-linecap="round" stroke-linejoin="round"/>
<path d="M522.736 303.003L503.371 305.802L500.11 401.986L511.591 400.711L521.173 403.705L522.736 303.003Z" fill="#121113" stroke="#121113" stroke-miterlimit="10" stroke-linecap="round" stroke-linejoin="round"/>
<path d="M529.638 341.326V367.621L544.447 359.498C544.447 359.498 547.731 356.79 545.274 354.083C542.817 351.375 529.638 341.326 529.638 341.326Z" fill="#121113" stroke="#121113" stroke-miterlimit="10" stroke-linecap="round" stroke-linejoin="round"/>
<path d="M574.869 352.534L563.366 356.4C563.366 356.4 560.083 358.717 562.54 360.657C564.997 362.596 574.043 374.963 574.043 374.963L574.869 352.534Z" fill="#121113" stroke="#121113" stroke-miterlimit="10" stroke-linecap="round" stroke-linejoin="round"/>
<path d="M537.88 369.547L550.21 362.974C550.21 362.974 552.667 361.815 556.799 364.913C560.909 368.011 569.129 377.67 569.129 377.67L537.88 369.547Z" fill="#121113" stroke="#121113" stroke-miterlimit="10" stroke-linecap="round" stroke-linejoin="round"/>
<path d="M563.054 297.523L542.928 300.113L537.434 303.758V305.75L573.15 309.759L573.306 306.869C573.306 306.882 567.878 301.779 563.054 297.523Z" fill="#121113" stroke="#121113" stroke-miterlimit="10" stroke-linecap="round" stroke-linejoin="round"/>
<path d="M573.239 312.323L563.366 315.031C563.366 315.031 564.193 316.58 566.65 318.897C569.107 321.214 574.87 325.861 574.87 325.861L573.239 312.323Z" fill="#121113" stroke="#121113" stroke-miterlimit="10" stroke-linecap="round" stroke-linejoin="round"/>
<path d="M548.758 315.422L533.168 325.848H528.455V318.298" fill="#121113"/>
<path d="M548.758 315.422L533.168 325.848H528.455V318.298" stroke="#121113" stroke-miterlimit="10" stroke-linecap="round" stroke-linejoin="round"/>
<path d="M573.149 336.067L537.434 332.058V330.066L553.494 319.405C553.494 319.405 555.861 317.634 561.043 322.073C566.248 326.512 573.328 333.177 573.328 333.177L573.149 336.067Z" fill="#121113" stroke="#121113" stroke-miterlimit="10" stroke-linecap="round" stroke-linejoin="round"/>
<path d="M574.713 341.612L536.942 336.509V338.501L553.94 352.26C553.94 352.26 556.777 353.367 559.614 352.039C562.45 350.711 574.49 344.346 574.49 344.346L574.713 341.612Z" fill="#121113" stroke="#121113" stroke-miterlimit="10" stroke-linecap="round" stroke-linejoin="round"/>
<path d="M529.638 379.05V405.345L544.447 399.11C544.447 399.11 547.731 396.819 545.274 393.799C542.817 390.779 529.638 379.05 529.638 379.05Z" fill="#121113" stroke="#121113" stroke-miterlimit="10" stroke-linecap="round" stroke-linejoin="round"/>
<path d="M574.869 396.025L563.366 398.42C563.366 398.42 560.083 400.32 562.54 402.572C564.997 404.824 574.043 418.349 574.043 418.349L574.869 396.025Z" fill="#121113" stroke="#121113" stroke-miterlimit="10" stroke-linecap="round" stroke-linejoin="round"/>
<path d="M574.713 385.077L536.942 375.158V377.162L553.94 393.096C553.94 393.096 556.777 394.566 559.614 393.59C562.45 392.614 574.49 387.784 574.49 387.784L574.713 385.077Z" fill="#121113" stroke="#121113" stroke-miterlimit="10" stroke-linecap="round" stroke-linejoin="round"/>
<path d="M585.881 294.451L574.668 293.539V362.557" stroke="#121113" stroke-miterlimit="10" stroke-linecap="round" stroke-linejoin="round"/>
<path d="M125.575 347.535L1075.76 230.328" stroke="#121113" stroke-miterlimit="10" stroke-linecap="round" stroke-linejoin="round"/>
<path d="M622.468 270.551L1002.36 229.247" stroke="#121113" stroke-miterlimit="10" stroke-linecap="round" stroke-linejoin="round"/>
<path d="M41.0989 341.391L574.468 276.383" stroke="#121113" stroke-miterlimit="10" stroke-linecap="round" stroke-linejoin="round"/>
<path d="M544.247 275.836L1004.53 226.943" stroke="#121113" stroke-miterlimit="10" stroke-linecap="round" stroke-linejoin="round"/>
<path d="M1039.71 245.896C1039.58 245.818 1039.4 245.753 1039.15 245.727L1007.01 242.069L1077.88 233.309L1077.15 231.994L999.594 241.588C999.349 241.523 999.081 241.47 998.768 241.483C998.299 241.496 997.874 241.627 997.629 241.822V241.835L691.085 279.741V278.622L672.323 280.978V282.071L565.689 295.258L564.751 295.037L564.304 295.427L436.518 311.23L433.302 310.54C432.23 310.306 431.024 310.41 430.197 310.761L399.619 314.628V315.799L333.168 324.013L331.18 323.531C329.773 323.193 328.031 323.453 327.294 324.117C327.071 324.325 327.004 324.56 327.004 324.781L54.9474 358.405L55.6845 359.719L114.317 352.469C113.96 353.067 114.474 353.705 115.68 354.018L168.349 367.465L171.498 369.157L98.3468 379.545L99.1733 380.846L257.739 358.339C258.007 358.379 258.275 358.392 258.543 358.392C259.369 358.392 260.173 358.209 260.732 357.91L399.686 338.176V340.232L432.163 335.299V333.568L489.098 325.484L490.751 325.835C491.131 325.913 491.555 325.953 491.957 325.953C493.052 325.953 494.101 325.653 494.593 325.158C494.749 325.002 494.816 324.833 494.839 324.664L672.323 299.475V301.506L691.085 298.799V296.807L1068.95 243.163L1068.12 241.861L1039.71 245.896ZM359.302 324.039L377.439 334.752L359.302 330.352V324.039ZM355.415 322.659L348.67 327.762L337.033 324.937L355.415 322.659ZM290.394 332.604L309.269 342.055L290.394 337.473V332.604ZM287.022 331.107L281.773 335.377L271.922 332.982L287.022 331.107ZM266.025 333.711C265.981 334.231 266.539 334.739 267.567 334.987L278.869 337.733L257.359 355.189L240.383 350.855L212.575 340.311L266.025 333.711ZM226.289 347.262L211.011 343.37V341.482L226.289 347.262ZM208.13 342.628L208.085 342.615L208.13 342.576V342.628ZM205.539 341.964L203.484 341.443L206.678 341.053L205.539 341.964ZM119.298 351.857L136.542 349.722L135.849 350.008L157.382 361.581L119.298 351.857ZM164.686 363.442L138.664 349.462L198.056 342.12C197.877 342.667 198.391 343.239 199.508 343.526L202.657 344.333L175.697 366.267L164.686 363.442ZM176.881 368.389C176.993 368.324 177.127 368.259 177.216 368.181C177.484 367.959 177.529 367.712 177.507 367.478L205.204 344.958L208.13 345.713V363.95L176.881 368.389ZM211.011 363.546V346.455L251.239 356.725L253.383 357.532L211.011 363.546ZM287.513 352.677L261.044 356.439C260.799 356.205 260.441 355.983 259.905 355.84L281.437 338.358L287.513 339.829V352.677ZM287.513 336.77L284.341 336.002L287.513 333.424V336.77ZM290.394 352.273V340.532L320.883 347.939L290.394 352.273ZM316.975 343.929L290.506 330.678L328.679 325.953L345.587 330.066L324.748 345.83L316.975 343.929ZM356.398 342.901L327.517 347.001C327.428 346.858 327.294 346.741 327.115 346.611L348.156 330.691L356.376 332.695V342.901H356.398ZM356.398 329.636L351.238 328.374L356.398 324.469V329.636ZM359.302 342.497V333.398L382.911 339.139L359.302 342.497ZM399.641 336.757L390.506 338.059L399.641 331.329V336.757ZM399.641 328.803L387.937 337.421C387.691 337.291 387.401 337.173 387.066 337.095L383.671 336.275L359.726 322.125L399.641 317.192V328.803ZM643.866 288.853L644.112 288.606L658.184 298.681L643.866 296.325V288.853ZM432.141 332.149V322.685L445.922 330.183L432.141 332.149ZM432.141 320.615V313.261L458.43 318.91L448.111 329.311L432.141 320.615ZM467.99 327.059L451.149 329.454L461.066 319.47L468.013 320.967V327.059H467.99ZM467.99 317.973L463.501 317.01L467.99 312.48V317.973ZM470.872 326.655V321.579L485.078 324.638L470.872 326.655ZM470.872 318.598V311.256L492.717 323.284L470.872 318.598ZM516.661 320.147L498.479 322.724L516.661 305.906V320.147ZM516.817 302.769L495.33 322.633L470.514 308.965C470.202 308.783 469.71 308.705 469.219 308.731C468.727 308.757 468.303 308.913 468.102 309.121L460.843 316.437L440.673 312.102L516.996 302.665C516.951 302.704 516.862 302.73 516.817 302.769ZM519.565 319.743V305.021L539.734 316.879L519.565 319.743ZM519.23 302.652C519.096 302.574 518.895 302.508 518.694 302.456L562.54 297.041L541.812 315.916L519.23 302.652ZM544.805 316.151L566.292 296.573L607.659 291.457L633.636 295.726L624.277 304.878L544.805 316.151ZM640.985 302.495L628.03 304.331L636.384 296.169L640.985 296.924V302.495ZM640.985 295.844L637.322 295.245L640.985 291.665V295.844ZM640.985 288.541L634.597 294.802L611.434 291.001L640.985 287.343V288.541ZM642.325 287.226H641.856L642.392 287.161L642.325 287.226ZM643.866 302.092V297.406L659.167 299.918L643.866 302.092ZM645.139 286.862C645.117 286.849 645.095 286.849 645.072 286.836L649.316 286.315L672.01 290.038L661.132 298.291L645.139 286.862ZM672.323 298.057L663.098 299.371L672.323 292.381V298.057ZM672.323 289.01L653.069 285.846L672.323 283.464V289.01ZM995.618 243.475L991.352 246.99L979.402 245.48L995.618 243.475ZM968.48 246.834L962.896 251.246L948.422 249.307L968.48 246.834ZM969.731 248.5V252.158L965.777 251.624L969.731 248.5ZM942.681 251.793L950.343 257.195L942.681 256.167V251.793ZM938.482 250.543L933.568 254.943L918.871 252.965L938.482 250.543ZM912.728 255.477L922.154 261.452L912.728 260.189V255.477ZM908.954 254.201L904.352 259.07L887.667 256.831L908.954 254.201ZM885.768 259.239L895.596 265.006L885.768 263.626V259.239ZM882.485 257.469L876.99 262.376L860.997 260.124L882.485 257.469ZM853.113 261.1L845.764 267.258L825.996 264.446L853.113 261.1ZM817.397 265.526L811.389 271.033L793.743 268.455L817.397 265.526ZM817.71 268.208V271.944L814.203 271.423L817.71 268.208ZM780.006 270.147L775.226 275.511L757.558 272.92L780.006 270.147ZM691.085 295.388V293.175L698.322 294.36L691.085 295.388ZM691.085 292.095V287.994L698.523 293.305L691.085 292.095ZM691.085 285.521V282.41L709.557 285.443L701.427 292.915L691.085 285.521ZM717.375 291.652L703.996 293.553L712.305 285.898L717.353 286.732V291.652H717.375ZM717.375 285.651L713.31 284.987L717.375 281.251V285.651ZM718.715 277.75C718.201 277.763 717.755 277.906 717.531 278.114L710.562 284.532L691.108 281.329V281.134L719.006 277.685C719.028 277.711 719.028 277.737 719.05 277.763C718.916 277.763 718.827 277.737 718.715 277.75ZM720.256 291.248V287.213L733.457 289.387L720.256 291.248ZM720.256 286.12V280.548L731.425 287.955L720.256 286.12ZM720.078 278.088L742.034 281.303L735.065 288.02L720.078 278.088ZM748.825 287.187L737.455 288.801L744.804 281.707L748.825 282.293V287.187ZM748.825 281.225L745.787 280.783L748.825 277.841V281.225ZM751.706 286.784V282.722L765.778 284.779L751.706 286.784ZM751.706 281.655V276.786L763.232 283.334L751.706 281.655ZM751.371 274.469C751.058 274.287 750.589 274.196 750.098 274.222C749.606 274.248 749.182 274.391 748.981 274.599L742.995 280.366L722.066 277.307L754.141 273.337C754.275 273.441 754.476 273.532 754.766 273.571L774.4 276.448L767.855 283.816L751.371 274.469ZM780.274 282.722L770.737 284.076L777.169 276.851L780.296 277.307V282.722H780.274ZM780.274 276.253L777.996 275.914L780.274 273.35V276.253ZM783.155 282.319V277.75L799.014 280.067L783.155 282.319ZM783.155 276.669V271.566L799.729 279.09L783.155 276.669ZM783.289 269.744L789.812 268.937L810.406 271.957L803.035 278.713L783.289 269.744ZM805.872 279.09L813.198 272.36L817.71 273.024V277.372H817.978L805.872 279.09ZM820.614 276.995V273.441L832.943 275.25L820.614 276.995ZM820.614 272.373V267.18L834.283 274.378L820.614 272.373ZM820.591 265.123L821.976 264.954L844.67 268.169L837.611 274.092L820.591 265.123ZM853.671 272.308L840.917 274.118L847.529 268.585L853.694 269.458V272.308H853.671ZM853.671 268.39L848.601 267.674L853.671 263.431V268.39ZM856.553 271.892V269.861L863.723 270.876L856.553 271.892ZM856.553 268.794V263.027L867.006 270.278L856.553 268.794ZM856.642 260.671L856.977 260.632L875.963 263.313L869.173 269.366L856.642 260.671ZM882.865 268.156L872.076 269.692L878.777 263.704L882.865 264.277V268.156ZM882.865 263.209L879.805 262.78L882.865 260.046V263.209ZM885.768 267.752V264.693L896.602 266.216L885.768 267.752ZM887.019 257.807L903.459 260.02L898.925 264.81L887.019 257.807ZM909.825 264.329L901.404 265.526L906.251 260.385L909.802 260.866V264.329H909.825ZM909.825 259.812L907.167 259.447L909.825 256.623V259.812ZM912.728 263.925V261.257L922.378 262.558L912.728 263.925ZM913.421 253.642L914.761 253.472L932.518 255.855L926.041 261.647L913.421 253.642ZM939.778 260.085L929.436 261.556L935.377 256.258L939.8 256.857V260.085H939.778ZM939.778 255.776L936.383 255.321L939.778 252.301V255.776ZM942.681 259.669V257.234L951.504 258.419L942.681 259.669ZM954.631 257.781L943.485 249.932L944.312 249.828L961.734 252.158L954.631 257.781ZM958.451 257.43L964.638 252.535L969.753 253.212V255.529H971.786L958.451 257.43ZM972.634 255.412V253.603L979.201 254.475L972.634 255.412ZM972.634 252.548V248.161L980.899 253.655L972.634 252.548ZM973.282 246.248L975.717 245.948C975.851 246.053 976.074 246.131 976.32 246.157L990.213 247.914L983.758 253.225L973.282 246.248ZM997.45 251.897L986.907 253.394L993.117 248.278L997.45 248.825V251.897ZM997.45 247.771L994.234 247.367L997.45 244.725V247.771ZM1000.33 251.481V249.19L1008.86 250.27L1000.33 251.481ZM1000.33 248.135V244.061L1009.42 249.281L1000.33 248.135ZM1012.91 249.697L1013.49 249.476L1001.74 242.72L1002.65 242.603C1002.7 242.616 1002.72 242.629 1002.77 242.629L1036.02 246.404L1012.91 249.697Z" fill="#121113" stroke="#121113" stroke-miterlimit="10" stroke-linecap="round" stroke-linejoin="round"/>
<path d="M52.3787 335.754L498.301 281.72" stroke="#121113" stroke-miterlimit="10" stroke-linecap="round" stroke-linejoin="round"/>
<path d="M472.659 38.7654V304.825" stroke="#121113" stroke-miterlimit="10" stroke-linecap="round" stroke-linejoin="round"/>
<path d="M403.885 55.4796V312.102" stroke="#121113" stroke-miterlimit="10" stroke-linecap="round" stroke-linejoin="round"/>
<path d="M286.932 84.5862V326.109" stroke="#121113" stroke-miterlimit="10" stroke-linecap="round" stroke-linejoin="round"/>
<path d="M67.947 135.809V324.403" stroke="#121113" stroke-miterlimit="10" stroke-linecap="round" stroke-linejoin="round"/>
<path d="M349.988 69.4992V319.105" stroke="#121113" stroke-miterlimit="10" stroke-linecap="round" stroke-linejoin="round"/>
<path d="M219.276 101.3V335.312" stroke="#121113" stroke-miterlimit="10" stroke-linecap="round" stroke-linejoin="round"/>
<path d="M637.768 22.0512V283.529" stroke="#121113" stroke-miterlimit="10" stroke-linecap="round" stroke-linejoin="round"/>
<path d="M676.745 39.8458V279.845" stroke="#121113" stroke-miterlimit="10" stroke-linecap="round" stroke-linejoin="round"/>
<path d="M706.564 53.8654V274.847" stroke="#121113" stroke-miterlimit="10" stroke-linecap="round" stroke-linejoin="round"/>
<path d="M742.102 66.2579V271.124" stroke="#121113" stroke-miterlimit="10" stroke-linecap="round" stroke-linejoin="round"/>
<path d="M770.781 80.2775V266.789" stroke="#121113" stroke-miterlimit="10" stroke-linecap="round" stroke-linejoin="round"/>
<path d="M801.717 93.2166V263.73" stroke="#121113" stroke-miterlimit="10" stroke-linecap="round" stroke-linejoin="round"/>
<path d="M824.656 102.915V260.879" stroke="#121113" stroke-miterlimit="10" stroke-linecap="round" stroke-linejoin="round"/>
<path d="M849.874 113.159V258.718" stroke="#121113" stroke-miterlimit="10" stroke-linecap="round" stroke-linejoin="round"/>
<path d="M872.813 122.323V254.852" stroke="#121113" stroke-miterlimit="10" stroke-linecap="round" stroke-linejoin="round"/>
<path d="M896.892 131.487V251.52" stroke="#121113" stroke-miterlimit="10" stroke-linecap="round" stroke-linejoin="round"/>
<path d="M918.67 139.037V248.187" stroke="#121113" stroke-miterlimit="10" stroke-linecap="round" stroke-linejoin="round"/>
<path d="M940.448 146.054V247.406" stroke="#121113" stroke-miterlimit="10" stroke-linecap="round" stroke-linejoin="round"/>
<path d="M957.647 151.443V244.712" stroke="#121113" stroke-miterlimit="10" stroke-linecap="round" stroke-linejoin="round"/>
<path d="M976.007 158.446V241.522" stroke="#121113" stroke-miterlimit="10" stroke-linecap="round" stroke-linejoin="round"/>
<path d="M995.484 162.768V216.139" stroke="#121113" stroke-miterlimit="10" stroke-linecap="round" stroke-linejoin="round"/>
<path d="M1013.84 169.237V233.087" stroke="#121113" stroke-miterlimit="10" stroke-linecap="round" stroke-linejoin="round"/>
<path d="M628.589 60.335V269.562" stroke="#121113" stroke-miterlimit="10" stroke-linecap="round" stroke-linejoin="round"/>
<path d="M661.847 72.7274V266.268" stroke="#121113" stroke-miterlimit="10" stroke-linecap="round" stroke-linejoin="round"/>
<path d="M698.546 86.7471V261.608" stroke="#121113" stroke-miterlimit="10" stroke-linecap="round" stroke-linejoin="round"/>
<path d="M723.763 96.4449V259.265" stroke="#121113" stroke-miterlimit="10" stroke-linecap="round" stroke-linejoin="round"/>
<path d="M751.281 107.236V256.024" stroke="#121113" stroke-miterlimit="10" stroke-linecap="round" stroke-linejoin="round"/>
<path d="M778.8 115.32V252.795" stroke="#121113" stroke-miterlimit="10" stroke-linecap="round" stroke-linejoin="round"/>
<path d="M888.873 153.591V240.937" stroke="#121113" stroke-miterlimit="10" stroke-linecap="round" stroke-linejoin="round"/>
<path d="M476.098 26.9067V283.594" stroke="#121113" stroke-miterlimit="10" stroke-linecap="round" stroke-linejoin="round"/>
<path d="M430.242 36.6046V288.775" stroke="#121113" stroke-miterlimit="10" stroke-linecap="round" stroke-linejoin="round"/>
<path d="M379.807 51.1709V295.388" stroke="#121113" stroke-miterlimit="10" stroke-linecap="round" stroke-linejoin="round"/>
<path d="M327.048 63.0296V302.938" stroke="#121113" stroke-miterlimit="10" stroke-linecap="round" stroke-linejoin="round"/>
<path d="M275.474 76.5025V307.247" stroke="#121113" stroke-miterlimit="10" stroke-linecap="round" stroke-linejoin="round"/>
<path d="M212.396 92.1362V306.7" stroke="#121113" stroke-miterlimit="10" stroke-linecap="round" stroke-linejoin="round"/>
<path d="M79.4055 123.95V303.38" stroke="#121113" stroke-miterlimit="10" stroke-linecap="round" stroke-linejoin="round"/>
<path d="M148.201 106.156L149.341 116.934V315.539" stroke="#121113" stroke-miterlimit="10" stroke-linecap="round" stroke-linejoin="round"/>
<path d="M550.233 295.388V16.3497" stroke="#121113" stroke-miterlimit="10" stroke-linecap="round" stroke-linejoin="round"/>
<path d="M609.066 10.4529C609.066 10.4529 608.307 6.70389 601.874 5.63647C595.441 4.56906 589.366 4.03535 585.189 5.98794C581.012 7.95355 580.118 10.1144 580.118 10.1144" fill="#121113"/>
<path d="M609.066 10.4529C609.066 10.4529 608.307 6.70389 601.874 5.63647C595.441 4.56906 589.366 4.03535 585.189 5.98794C581.012 7.95355 580.118 10.1144 580.118 10.1144" stroke="#121113" stroke-miterlimit="10" stroke-linecap="round" stroke-linejoin="round"/>
<path d="M574.356 291.314L572.993 204.449L578.086 201.26L576.724 128.767L579.784 126.853L578.756 67.7679L581.816 65.5289L580.119 10.1274L589.634 9.00793L591.667 65.2165L587.936 66.6484L589.634 127.01L585.881 128.611L587.936 202.054L584.541 204.605L585.211 292.745L574.356 291.314Z" fill="#9C9C9C" stroke="#121113" stroke-miterlimit="10" stroke-linecap="round" stroke-linejoin="round"/>
<path d="M585.658 412.387L585.881 294.451L574.668 293.539L575.584 417.998" fill="#9C9C9C"/>
<path d="M585.658 412.387L585.881 294.451L574.668 293.539L575.584 417.998" stroke="#121113" stroke-miterlimit="10" stroke-linecap="round" stroke-linejoin="round"/>
<path d="M624.121 404.355V292.993C624.121 292.993 606.744 295.167 596.692 294.451C586.641 293.722 585.881 294.451 585.881 294.451V410.539" fill="#121113"/>
<path d="M624.121 404.356V292.993C624.121 292.993 606.744 295.167 596.692 294.451C586.641 293.722 585.881 294.451 585.881 294.451V410.539" stroke="#121113" stroke-miterlimit="10" stroke-linecap="round" stroke-linejoin="round"/>
<path d="M590.125 4.93353L593.543 0.650848H597.318L601.874 5.63646" fill="#121113"/>
<path d="M590.125 4.93353L593.543 0.650848H597.318L601.874 5.63646" stroke="#121113" stroke-miterlimit="10" stroke-linecap="round" stroke-linejoin="round"/>
<path d="M585.189 6.00095C585.189 6.00095 278.511 92.683 3.35046 149.829" stroke="#121113" stroke-width="3" stroke-miterlimit="10" stroke-linecap="round" stroke-linejoin="round"/>
<path d="M607.19 8.21387C607.19 8.21387 851.013 117.481 935.869 144.075C1020.7 170.669 1068.1 183.609 1068.1 183.609" stroke="#121113" stroke-width="3" stroke-miterlimit="10" stroke-linecap="round" stroke-linejoin="round"/>
<path d="M567.208 292.264C567.208 292.264 577.059 296.091 601.159 294.815C625.26 293.54 638.171 289.387 638.171 289.387V287.317L621.53 286.042L620.86 203.33L618.135 201.416L618.805 129.561L615.41 126.684L614.383 68.2496L610.987 65.3727L610.317 10.9215L589.612 9.00793L591.644 65.2165L587.914 66.6484L589.612 127.01L585.881 128.611L587.914 202.054L584.519 204.605L585.189 292.745L574.334 291.314L567.208 292.264Z" fill="#121113" stroke="#121113" stroke-miterlimit="10" stroke-linecap="round" stroke-linejoin="round"/>
<path d="M275.414 320.412C275.414 327.914 269.33 333.996 261.825 333.996C254.32 333.996 248.236 327.914 248.236 320.412C248.236 312.91 254.32 306.828 261.825 306.828C269.33 306.828 275.414 312.91 275.414 320.412Z" fill="#E59500" stroke="black"/>
<path d="M429.221 303.98C429.221 311.482 423.138 317.564 415.632 317.564C408.127 317.564 402.043 311.482 402.043 303.98C402.043 296.478 408.127 290.396 415.632 290.396C423.138 290.396 429.221 296.478 429.221 303.98Z" fill="#E59500" stroke="black"/>
<path d="M555.678 287.084C555.678 294.586 549.595 300.668 542.089 300.668C534.584 300.668 528.5 294.586 528.5 287.084C528.5 279.582 534.584 273.5 542.089 273.5C549.595 273.5 555.678 279.582 555.678 287.084Z" fill="#00A0E5" stroke="black"/>
<path d="M524.324 348.58C524.324 356.082 518.24 362.164 510.734 362.164C503.229 362.164 497.145 356.082 497.145 348.58C497.145 341.078 503.229 334.996 510.734 334.996C518.24 334.996 524.324 341.078 524.324 348.58Z" fill="#E500CE" stroke="black"/>
<path d="M587.725 353.274C587.725 360.777 581.641 366.859 574.136 366.859C566.631 366.859 560.547 360.777 560.547 353.274C560.547 345.772 566.631 339.69 574.136 339.69C581.641 339.69 587.725 345.772 587.725 353.274Z" fill="#E50000" stroke="black"/>
<path d="M148.611 334.496C148.611 341.998 142.527 348.08 135.022 348.08C127.516 348.08 121.432 341.998 121.432 334.496C121.432 326.994 127.516 320.912 135.022 320.912C142.527 320.912 148.611 326.994 148.611 334.496Z" fill="#17CA5E" stroke="black"/>
<path d="M1016.27 231.213C1016.27 238.715 1010.19 244.797 1002.68 244.797C995.178 244.797 989.094 238.715 989.094 231.213C989.094 223.711 995.178 217.629 1002.68 217.629C1010.19 217.629 1016.27 223.711 1016.27 231.213Z" fill="#17CA5E" stroke="black"/>
<path d="M726.269 264.076C726.269 271.578 720.185 277.66 712.68 277.66C705.175 277.66 699.091 271.578 699.091 264.076C699.091 256.574 705.175 250.492 712.68 250.492C720.185 250.492 726.269 256.574 726.269 264.076Z" fill="#E59500" stroke="black"/>
<path d="M877.729 249.992C877.729 257.494 871.645 263.576 864.139 263.576C856.634 263.576 850.55 257.494 850.55 249.992C850.55 242.49 856.634 236.408 864.139 236.408C871.645 236.408 877.729 242.49 877.729 249.992Z" fill="#E59500" stroke="black"/>
<line x1="483.807" y1="526.197" x2="146.807" y2="343.197" stroke="#C8C8C8" stroke-width="5" stroke-dasharray="5 5"/>
<line x1="496.452" y1="507.963" x2="274.452" y2="332.963" stroke="#C8C8C8" stroke-width="5" stroke-dasharray="5 5"/>
<path d="M553.64 758.88H565.3V747.2H561.3V751.68C558.336 749.129 554.702 747.483 550.829 746.937C546.957 746.392 543.009 746.969 539.456 748.602C535.902 750.234 532.892 752.853 530.783 756.146C528.674 759.44 527.556 763.269 527.56 767.18H531.56C531.561 764.014 532.477 760.915 534.197 758.257C535.917 755.599 538.368 753.493 541.255 752.194C544.142 750.895 547.344 750.458 550.474 750.934C553.604 751.411 556.53 752.781 558.9 754.88H553.64V758.88Z" fill="#3F8624"/>
<path d="M548 783.64C543.983 783.64 540.105 782.167 537.1 779.5H542.36V775.5H530.7V787.16H534.7V782.7C537.665 785.252 541.302 786.899 545.176 787.444C549.05 787.988 552.999 787.409 556.554 785.774C560.108 784.139 563.118 781.517 565.225 778.221C567.332 774.925 568.448 771.092 568.44 767.18H564.44C564.44 771.542 562.709 775.726 559.626 778.812C556.544 781.898 552.362 783.635 548 783.64Z" fill="#3F8624"/>
<path d="M582.28 738.56C581.48 732.46 578.28 728.04 573.34 726.56C571.635 726.065 569.836 725.988 568.095 726.336C566.354 726.684 564.723 727.447 563.34 728.56C561.965 725.533 560.07 722.771 557.74 720.4C554.239 716.749 549.701 714.261 544.741 713.27C539.78 712.279 534.635 712.834 530 714.86C525.667 716.926 521.99 720.152 519.378 724.18C516.766 728.208 515.32 732.881 515.2 737.68C515.2 738.14 515.2 738.6 515.2 739.06C511.52 740.169 508.318 742.48 506.106 745.623C503.894 748.767 502.801 752.561 503 756.4C503 756.9 503 757.38 503 757.86C503.375 762.512 505.501 766.848 508.95 769.993C512.399 773.137 516.913 774.855 521.58 774.8H523.58V770.8H521.58C517.928 770.863 514.388 769.534 511.681 767.082C508.973 764.631 507.299 761.24 507 757.6C507 757.22 507 756.82 507 756.4C506.804 753.167 507.779 749.972 509.748 747.4C511.717 744.829 514.548 743.053 517.72 742.4C518.204 742.294 518.631 742.013 518.919 741.61C519.208 741.207 519.336 740.712 519.28 740.22C519.177 739.357 519.124 738.489 519.12 737.62C519.231 733.612 520.436 729.71 522.604 726.336C524.772 722.963 527.82 720.246 531.42 718.48C535.337 716.734 539.699 716.247 543.904 717.085C548.11 717.924 551.952 720.046 554.9 723.16C557.539 725.876 559.535 729.15 560.74 732.74C560.861 733.083 561.073 733.388 561.354 733.619C561.634 733.851 561.973 734.002 562.333 734.056C562.693 734.109 563.061 734.063 563.397 733.923C563.733 733.783 564.025 733.554 564.24 733.26C565.108 732.008 566.347 731.059 567.781 730.546C569.216 730.033 570.775 729.982 572.24 730.4C575.72 731.42 578.02 734.96 578.42 739.9C578.337 740.41 578.456 740.933 578.751 741.358C579.045 741.783 579.493 742.078 580 742.18C583.9 742.86 592.96 745.6 592.96 756.54C592.96 769.58 580.3 770.82 579.94 770.86H574.44V774.86H580.14C586 774.38 597 770 597 756.54C597 745.86 589.66 740.34 582.28 738.56Z" fill="#3F8624"/>
<path d="M516.98 831V813.938H522.559C524.41 813.938 525.801 814.32 526.73 815.086C527.668 815.852 528.137 816.984 528.137 818.484C528.137 819.281 527.91 819.988 527.457 820.605C527.004 821.215 526.387 821.688 525.605 822.023C526.527 822.281 527.254 822.773 527.785 823.5C528.324 824.219 528.594 825.078 528.594 826.078C528.594 827.609 528.098 828.812 527.105 829.688C526.113 830.562 524.711 831 522.898 831H516.98ZM519.23 823.02V829.16H522.945C523.992 829.16 524.816 828.891 525.418 828.352C526.027 827.805 526.332 827.055 526.332 826.102C526.332 824.047 525.215 823.02 522.98 823.02H519.23ZM519.23 821.215H522.629C523.613 821.215 524.398 820.969 524.984 820.477C525.578 819.984 525.875 819.316 525.875 818.473C525.875 817.535 525.602 816.855 525.055 816.434C524.508 816.004 523.676 815.789 522.559 815.789H519.23V821.215ZM537.723 820.266C537.395 820.211 537.039 820.184 536.656 820.184C535.234 820.184 534.27 820.789 533.762 822V831H531.594V818.32H533.703L533.738 819.785C534.449 818.652 535.457 818.086 536.762 818.086C537.184 818.086 537.504 818.141 537.723 818.25V820.266ZM538.918 824.543C538.918 823.301 539.16 822.184 539.645 821.191C540.137 820.199 540.816 819.434 541.684 818.895C542.559 818.355 543.555 818.086 544.672 818.086C546.398 818.086 547.793 818.684 548.855 819.879C549.926 821.074 550.461 822.664 550.461 824.648V824.801C550.461 826.035 550.223 827.145 549.746 828.129C549.277 829.105 548.602 829.867 547.719 830.414C546.844 830.961 545.836 831.234 544.695 831.234C542.977 831.234 541.582 830.637 540.512 829.441C539.449 828.246 538.918 826.664 538.918 824.695V824.543ZM541.098 824.801C541.098 826.207 541.422 827.336 542.07 828.188C542.727 829.039 543.602 829.465 544.695 829.465C545.797 829.465 546.672 829.035 547.32 828.176C547.969 827.309 548.293 826.098 548.293 824.543C548.293 823.152 547.961 822.027 547.297 821.168C546.641 820.301 545.766 819.867 544.672 819.867C543.602 819.867 542.738 820.293 542.082 821.145C541.426 821.996 541.098 823.215 541.098 824.801ZM556.719 825.129L555.359 826.547V831H553.191V813H555.359V823.887L556.52 822.492L560.469 818.32H563.105L558.172 823.617L563.68 831H561.137L556.719 825.129ZM570.371 831.234C568.652 831.234 567.254 830.672 566.176 829.547C565.098 828.414 564.559 826.902 564.559 825.012V824.613C564.559 823.355 564.797 822.234 565.273 821.25C565.758 820.258 566.43 819.484 567.289 818.93C568.156 818.367 569.094 818.086 570.102 818.086C571.75 818.086 573.031 818.629 573.945 819.715C574.859 820.801 575.316 822.355 575.316 824.379V825.281H566.727C566.758 826.531 567.121 827.543 567.816 828.316C568.52 829.082 569.41 829.465 570.488 829.465C571.254 829.465 571.902 829.309 572.434 828.996C572.965 828.684 573.43 828.27 573.828 827.754L575.152 828.785C574.09 830.418 572.496 831.234 570.371 831.234ZM570.102 819.867C569.227 819.867 568.492 820.188 567.898 820.828C567.305 821.461 566.938 822.352 566.797 823.5H573.148V823.336C573.086 822.234 572.789 821.383 572.258 820.781C571.727 820.172 571.008 819.867 570.102 819.867ZM583.965 820.266C583.637 820.211 583.281 820.184 582.898 820.184C581.477 820.184 580.512 820.789 580.004 822V831H577.836V818.32H579.945L579.98 819.785C580.691 818.652 581.699 818.086 583.004 818.086C583.426 818.086 583.746 818.141 583.965 818.25V820.266Z" fill="black"/>
<line x1="511.766" y1="497.123" x2="421.766" y2="318.123" stroke="#C8C8C8" stroke-width="5" stroke-dasharray="5 5"/>
<line x1="529.518" y1="492.298" x2="514.518" y2="367.298" stroke="#C8C8C8" stroke-width="5" stroke-dasharray="5 5"/>
<line x1="563.512" y1="491.755" x2="575.512" y2="369.755" stroke="#C8C8C8" stroke-width="5" stroke-dasharray="5 5"/>
<line x1="579.836" y1="494.748" x2="704.836" y2="278.748" stroke="#C8C8C8" stroke-width="5" stroke-dasharray="5 5"/>
<line x1="597.276" y1="504.189" x2="848.276" y2="265.189" stroke="#C8C8C8" stroke-width="5" stroke-dasharray="5 5"/>
<line x1="611.507" y1="522.995" x2="987.507" y2="242.995" stroke="#C8C8C8" stroke-width="5" stroke-dasharray="5 5"/>
<line x1="547.501" y1="488.054" x2="543.501" y2="304.054" stroke="#C8C8C8" stroke-width="5" stroke-dasharray="5 5"/>
<line x1="548.5" y1="706" x2="548.5" y2="639" stroke="#C8C8C8" stroke-width="5" stroke-dasharray="5 5"/>
<line x1="492" y1="758.5" x2="262" y2="758.5" stroke="#C8C8C8" stroke-width="5" stroke-dasharray="5 5"/>
<line x1="843" y1="758.5" x2="613" y2="758.5" stroke="#C8C8C8" stroke-width="5" stroke-dasharray="5 5"/>
<path d="M566.543 706H564.363V691.551L559.992 693.156V691.188L566.203 688.855H566.543V706Z" fill="#9C9C9C"/>
<path d="M492.543 750H490.363V735.551L485.992 737.156V735.188L492.203 732.855H492.543V750Z" fill="#9C9C9C"/>
<path d="M615.543 750H613.363V735.551L608.992 737.156V735.188L615.203 732.855H615.543V750Z" fill="#9C9C9C"/>
<path d="M842.543 752H840.363V737.551L835.992 739.156V737.188L842.203 734.855H842.543V752Z" fill="#9C9C9C"/>
<path d="M526.691 638.32L526.762 639.914C527.73 638.695 528.996 638.086 530.559 638.086C533.238 638.086 534.59 639.598 534.613 642.621V651H532.445V642.609C532.438 641.695 532.227 641.02 531.812 640.582C531.406 640.145 530.77 639.926 529.902 639.926C529.199 639.926 528.582 640.113 528.051 640.488C527.52 640.863 527.105 641.355 526.809 641.965V651H524.641V638.32H526.691Z" fill="#9C9C9C"/>
<path d="M264.691 734.32L264.762 735.914C265.73 734.695 266.996 734.086 268.559 734.086C271.238 734.086 272.59 735.598 272.613 738.621V747H270.445V738.609C270.438 737.695 270.227 737.02 269.812 736.582C269.406 736.145 268.77 735.926 267.902 735.926C267.199 735.926 266.582 736.113 266.051 736.488C265.52 736.863 265.105 737.355 264.809 737.965V747H262.641V734.32H264.691Z" fill="#9C9C9C"/>
<path d="M183.531 825.586C183.32 827.391 182.652 828.785 181.527 829.77C180.41 830.746 178.922 831.234 177.062 831.234C175.047 831.234 173.43 830.512 172.211 829.066C171 827.621 170.395 825.688 170.395 823.266V821.625C170.395 820.039 170.676 818.645 171.238 817.441C171.809 816.238 172.613 815.316 173.652 814.676C174.691 814.027 175.895 813.703 177.262 813.703C179.074 813.703 180.527 814.211 181.621 815.227C182.715 816.234 183.352 817.633 183.531 819.422H181.27C181.074 818.062 180.648 817.078 179.992 816.469C179.344 815.859 178.434 815.555 177.262 815.555C175.824 815.555 174.695 816.086 173.875 817.148C173.062 818.211 172.656 819.723 172.656 821.684V823.336C172.656 825.188 173.043 826.66 173.816 827.754C174.59 828.848 175.672 829.395 177.062 829.395C178.312 829.395 179.27 829.113 179.934 828.551C180.605 827.98 181.051 826.992 181.27 825.586H183.531ZM188.629 831H186.461V813H188.629V831ZM194.465 831H192.297V818.32H194.465V831ZM192.121 814.957C192.121 814.605 192.227 814.309 192.438 814.066C192.656 813.824 192.977 813.703 193.398 813.703C193.82 813.703 194.141 813.824 194.359 814.066C194.578 814.309 194.688 814.605 194.688 814.957C194.688 815.309 194.578 815.602 194.359 815.836C194.141 816.07 193.82 816.188 193.398 816.188C192.977 816.188 192.656 816.07 192.438 815.836C192.227 815.602 192.121 815.309 192.121 814.957ZM203.207 831.234C201.488 831.234 200.09 830.672 199.012 829.547C197.934 828.414 197.395 826.902 197.395 825.012V824.613C197.395 823.355 197.633 822.234 198.109 821.25C198.594 820.258 199.266 819.484 200.125 818.93C200.992 818.367 201.93 818.086 202.938 818.086C204.586 818.086 205.867 818.629 206.781 819.715C207.695 820.801 208.152 822.355 208.152 824.379V825.281H199.562C199.594 826.531 199.957 827.543 200.652 828.316C201.355 829.082 202.246 829.465 203.324 829.465C204.09 829.465 204.738 829.309 205.27 828.996C205.801 828.684 206.266 828.27 206.664 827.754L207.988 828.785C206.926 830.418 205.332 831.234 203.207 831.234ZM202.938 819.867C202.062 819.867 201.328 820.188 200.734 820.828C200.141 821.461 199.773 822.352 199.633 823.5H205.984V823.336C205.922 822.234 205.625 821.383 205.094 820.781C204.562 820.172 203.844 819.867 202.938 819.867ZM212.723 818.32L212.793 819.914C213.762 818.695 215.027 818.086 216.59 818.086C219.27 818.086 220.621 819.598 220.645 822.621V831H218.477V822.609C218.469 821.695 218.258 821.02 217.844 820.582C217.438 820.145 216.801 819.926 215.934 819.926C215.23 819.926 214.613 820.113 214.082 820.488C213.551 820.863 213.137 821.355 212.84 821.965V831H210.672V818.32H212.723ZM226.855 815.25V818.32H229.223V819.996H226.855V827.859C226.855 828.367 226.961 828.75 227.172 829.008C227.383 829.258 227.742 829.383 228.25 829.383C228.5 829.383 228.844 829.336 229.281 829.242V831C228.711 831.156 228.156 831.234 227.617 831.234C226.648 831.234 225.918 830.941 225.426 830.355C224.934 829.77 224.688 828.938 224.688 827.859V819.996H222.379V818.32H224.688V815.25H226.855Z" fill="black"/>
<path d="M238.96 771.82H156.96C155.369 771.82 153.843 771.188 152.717 770.063C151.592 768.937 150.96 767.411 150.96 765.82V712C150.96 710.409 151.592 708.883 152.717 707.757C153.843 706.632 155.369 706 156.96 706H238.96C240.551 706 242.077 706.632 243.203 707.757C244.328 708.883 244.96 710.409 244.96 712V765.78C244.965 766.571 244.814 767.356 244.515 768.088C244.216 768.821 243.774 769.487 243.217 770.049C242.659 770.61 241.996 771.055 241.265 771.359C240.535 771.664 239.751 771.82 238.96 771.82ZM157.04 710C156.51 710 156.001 710.211 155.626 710.586C155.251 710.961 155.04 711.47 155.04 712V765.78C155.04 766.31 155.251 766.819 155.626 767.194C156.001 767.569 156.51 767.78 157.04 767.78H239.04C239.57 767.78 240.079 767.569 240.454 767.194C240.829 766.819 241.04 766.31 241.04 765.78V712C241.04 711.47 240.829 710.961 240.454 710.586C240.079 710.211 239.57 710 239.04 710H157.04Z" fill="#232F3E"/>
<path d="M238 798H158C156.152 797.984 154.383 797.245 153.075 795.94C151.766 794.634 151.021 792.868 151 791.02V782.36C151.005 780.501 151.743 778.72 153.054 777.402C154.364 776.084 156.141 775.336 158 775.32H238C239.866 775.325 241.653 776.069 242.972 777.388C244.291 778.707 245.035 780.495 245.04 782.36V791.02C245.019 792.875 244.269 794.647 242.951 795.954C241.634 797.26 239.855 797.995 238 798ZM158 779.32C157.201 779.331 156.438 779.655 155.876 780.224C155.315 780.793 155 781.561 155 782.36V791.02C155.016 791.809 155.337 792.561 155.897 793.117C156.457 793.673 157.211 793.99 158 794H238C238.806 794 239.58 793.68 240.15 793.11C240.72 792.54 241.04 791.766 241.04 790.96V782.36C241.04 781.961 240.961 781.565 240.809 781.197C240.656 780.828 240.432 780.493 240.15 780.21C239.867 779.928 239.532 779.704 239.163 779.551C238.795 779.399 238.399 779.32 238 779.32H158Z" fill="#232F3E"/>
<path d="M235.5 764.32H160.5C159.97 764.32 159.461 764.109 159.086 763.734C158.711 763.359 158.5 762.85 158.5 762.32V715.44C158.5 714.91 158.711 714.401 159.086 714.026C159.461 713.651 159.97 713.44 160.5 713.44H235.5C236.03 713.44 236.539 713.651 236.914 714.026C237.289 714.401 237.5 714.91 237.5 715.44V762.32C237.5 762.85 237.289 763.359 236.914 763.734C236.539 764.109 236.03 764.32 235.5 764.32ZM162.5 760.32H233.5V717.44H162.5V760.32Z" fill="#232F3E"/>
<path d="M235.5 782.82H213C211.895 782.82 211 783.715 211 784.82V788.58C211 789.685 211.895 790.58 213 790.58H235.5C236.605 790.58 237.5 789.685 237.5 788.58V784.82C237.5 783.715 236.605 782.82 235.5 782.82Z" fill="#232F3E"/>
<path d="M862.98 831V813.938H867.797C869.281 813.938 870.594 814.266 871.734 814.922C872.875 815.578 873.754 816.512 874.371 817.723C874.996 818.934 875.312 820.324 875.32 821.895V822.984C875.32 824.594 875.008 826.004 874.383 827.215C873.766 828.426 872.879 829.355 871.723 830.004C870.574 830.652 869.234 830.984 867.703 831H862.98ZM865.23 815.789V829.16H867.598C869.332 829.16 870.68 828.621 871.641 827.543C872.609 826.465 873.094 824.93 873.094 822.938V821.941C873.094 820.004 872.637 818.5 871.723 817.43C870.816 816.352 869.527 815.805 867.855 815.789H865.23ZM886.219 831C886.094 830.75 885.992 830.305 885.914 829.664C884.906 830.711 883.703 831.234 882.305 831.234C881.055 831.234 880.027 830.883 879.223 830.18C878.426 829.469 878.027 828.57 878.027 827.484C878.027 826.164 878.527 825.141 879.527 824.414C880.535 823.68 881.949 823.312 883.77 823.312H885.879V822.316C885.879 821.559 885.652 820.957 885.199 820.512C884.746 820.059 884.078 819.832 883.195 819.832C882.422 819.832 881.773 820.027 881.25 820.418C880.727 820.809 880.465 821.281 880.465 821.836H878.285C878.285 821.203 878.508 820.594 878.953 820.008C879.406 819.414 880.016 818.945 880.781 818.602C881.555 818.258 882.402 818.086 883.324 818.086C884.785 818.086 885.93 818.453 886.758 819.188C887.586 819.914 888.016 820.918 888.047 822.199V828.035C888.047 829.199 888.195 830.125 888.492 830.812V831H886.219ZM882.621 829.348C883.301 829.348 883.945 829.172 884.555 828.82C885.164 828.469 885.605 828.012 885.879 827.449V824.848H884.18C881.523 824.848 880.195 825.625 880.195 827.18C880.195 827.859 880.422 828.391 880.875 828.773C881.328 829.156 881.91 829.348 882.621 829.348ZM894.387 815.25V818.32H896.754V819.996H894.387V827.859C894.387 828.367 894.492 828.75 894.703 829.008C894.914 829.258 895.273 829.383 895.781 829.383C896.031 829.383 896.375 829.336 896.812 829.242V831C896.242 831.156 895.688 831.234 895.148 831.234C894.18 831.234 893.449 830.941 892.957 830.355C892.465 829.77 892.219 828.938 892.219 827.859V819.996H889.91V818.32H892.219V815.25H894.387ZM907.125 831C907 830.75 906.898 830.305 906.82 829.664C905.812 830.711 904.609 831.234 903.211 831.234C901.961 831.234 900.934 830.883 900.129 830.18C899.332 829.469 898.934 828.57 898.934 827.484C898.934 826.164 899.434 825.141 900.434 824.414C901.441 823.68 902.855 823.312 904.676 823.312H906.785V822.316C906.785 821.559 906.559 820.957 906.105 820.512C905.652 820.059 904.984 819.832 904.102 819.832C903.328 819.832 902.68 820.027 902.156 820.418C901.633 820.809 901.371 821.281 901.371 821.836H899.191C899.191 821.203 899.414 820.594 899.859 820.008C900.312 819.414 900.922 818.945 901.688 818.602C902.461 818.258 903.309 818.086 904.23 818.086C905.691 818.086 906.836 818.453 907.664 819.188C908.492 819.914 908.922 820.918 908.953 822.199V828.035C908.953 829.199 909.102 830.125 909.398 830.812V831H907.125ZM903.527 829.348C904.207 829.348 904.852 829.172 905.461 828.82C906.07 828.469 906.512 828.012 906.785 827.449V824.848H905.086C902.43 824.848 901.102 825.625 901.102 827.18C901.102 827.859 901.328 828.391 901.781 828.773C902.234 829.156 902.816 829.348 903.527 829.348ZM931.195 825.586C930.984 827.391 930.316 828.785 929.191 829.77C928.074 830.746 926.586 831.234 924.727 831.234C922.711 831.234 921.094 830.512 919.875 829.066C918.664 827.621 918.059 825.688 918.059 823.266V821.625C918.059 820.039 918.34 818.645 918.902 817.441C919.473 816.238 920.277 815.316 921.316 814.676C922.355 814.027 923.559 813.703 924.926 813.703C926.738 813.703 928.191 814.211 929.285 815.227C930.379 816.234 931.016 817.633 931.195 819.422H928.934C928.738 818.062 928.312 817.078 927.656 816.469C927.008 815.859 926.098 815.555 924.926 815.555C923.488 815.555 922.359 816.086 921.539 817.148C920.727 818.211 920.32 819.723 920.32 821.684V823.336C920.32 825.188 920.707 826.66 921.48 827.754C922.254 828.848 923.336 829.395 924.727 829.395C925.977 829.395 926.934 829.113 927.598 828.551C928.27 827.98 928.715 826.992 928.934 825.586H931.195ZM939.199 831.234C937.48 831.234 936.082 830.672 935.004 829.547C933.926 828.414 933.387 826.902 933.387 825.012V824.613C933.387 823.355 933.625 822.234 934.102 821.25C934.586 820.258 935.258 819.484 936.117 818.93C936.984 818.367 937.922 818.086 938.93 818.086C940.578 818.086 941.859 818.629 942.773 819.715C943.688 820.801 944.145 822.355 944.145 824.379V825.281H935.555C935.586 826.531 935.949 827.543 936.645 828.316C937.348 829.082 938.238 829.465 939.316 829.465C940.082 829.465 940.73 829.309 941.262 828.996C941.793 828.684 942.258 828.27 942.656 827.754L943.98 828.785C942.918 830.418 941.324 831.234 939.199 831.234ZM938.93 819.867C938.055 819.867 937.32 820.188 936.727 820.828C936.133 821.461 935.766 822.352 935.625 823.5H941.977V823.336C941.914 822.234 941.617 821.383 941.086 820.781C940.555 820.172 939.836 819.867 938.93 819.867ZM948.715 818.32L948.785 819.914C949.754 818.695 951.02 818.086 952.582 818.086C955.262 818.086 956.613 819.598 956.637 822.621V831H954.469V822.609C954.461 821.695 954.25 821.02 953.836 820.582C953.43 820.145 952.793 819.926 951.926 819.926C951.223 819.926 950.605 820.113 950.074 820.488C949.543 820.863 949.129 821.355 948.832 821.965V831H946.664V818.32H948.715ZM962.848 815.25V818.32H965.215V819.996H962.848V827.859C962.848 828.367 962.953 828.75 963.164 829.008C963.375 829.258 963.734 829.383 964.242 829.383C964.492 829.383 964.836 829.336 965.273 829.242V831C964.703 831.156 964.148 831.234 963.609 831.234C962.641 831.234 961.91 830.941 961.418 830.355C960.926 829.77 960.68 828.938 960.68 827.859V819.996H958.371V818.32H960.68V815.25H962.848ZM973.02 831.234C971.301 831.234 969.902 830.672 968.824 829.547C967.746 828.414 967.207 826.902 967.207 825.012V824.613C967.207 823.355 967.445 822.234 967.922 821.25C968.406 820.258 969.078 819.484 969.938 818.93C970.805 818.367 971.742 818.086 972.75 818.086C974.398 818.086 975.68 818.629 976.594 819.715C977.508 820.801 977.965 822.355 977.965 824.379V825.281H969.375C969.406 826.531 969.77 827.543 970.465 828.316C971.168 829.082 972.059 829.465 973.137 829.465C973.902 829.465 974.551 829.309 975.082 828.996C975.613 828.684 976.078 828.27 976.477 827.754L977.801 828.785C976.738 830.418 975.145 831.234 973.02 831.234ZM972.75 819.867C971.875 819.867 971.141 820.188 970.547 820.828C969.953 821.461 969.586 822.352 969.445 823.5H975.797V823.336C975.734 822.234 975.438 821.383 974.906 820.781C974.375 820.172 973.656 819.867 972.75 819.867ZM986.613 820.266C986.285 820.211 985.93 820.184 985.547 820.184C984.125 820.184 983.16 820.789 982.652 822V831H980.484V818.32H982.594L982.629 819.785C983.34 818.652 984.348 818.086 985.652 818.086C986.074 818.086 986.395 818.141 986.613 818.25V820.266Z" fill="black"/>
<path d="M916.601 720.213L900.716 733.108L903.238 736.214L919.122 723.318L916.601 720.213Z" fill="#A166FF"/>
<path d="M903.882 768.31L901.36 771.415L916.622 783.809L919.143 780.704L903.882 768.31Z" fill="#A166FF"/>
<path d="M903.524 753.207L902.258 757.001L943.503 770.762L944.769 766.967L903.524 753.207Z" fill="#A166FF"/>
<path d="M943.738 732.983L902.432 746.897L903.712 750.697L945.018 736.783L943.738 732.983Z" fill="#A166FF"/>
<path d="M925.139 722.742L921.838 725.001L946.209 760.621L949.511 758.362L925.139 722.742Z" fill="#A166FF"/>
<path d="M950.98 729.2C944.26 723.92 933.68 716.2 933.58 716.12L936 712.88C936.12 712.88 946.76 720.72 953.54 726.06L950.98 729.2Z" fill="#A166FF"/>
<path d="M934.76 725.88H917.88C917.35 725.88 916.841 725.669 916.466 725.294C916.091 724.919 915.88 724.41 915.88 723.88V707C915.88 706.47 916.091 705.961 916.466 705.586C916.841 705.211 917.35 705 917.88 705H934.76C935.29 705 935.799 705.211 936.174 705.586C936.549 705.961 936.76 706.47 936.76 707V723.88C936.76 724.41 936.549 724.919 936.174 725.294C935.799 725.669 935.29 725.88 934.76 725.88ZM919.88 721.88H932.76V709H919.88V721.88Z" fill="#A166FF"/>
<path d="M946.217 743.377L921.852 779.001L925.154 781.26L949.519 745.635L946.217 743.377Z" fill="#A166FF"/>
<path d="M936 791.12L933.66 787.88C933.76 787.88 944.34 780.08 951.06 774.8L953.46 778C946.68 783.28 936 791.04 936 791.12Z" fill="#A166FF"/>
<path d="M934.76 799H917.88C917.35 799 916.841 798.789 916.466 798.414C916.091 798.039 915.88 797.53 915.88 797V780.12C915.88 779.59 916.091 779.081 916.466 778.706C916.841 778.331 917.35 778.12 917.88 778.12H934.76C935.29 778.12 935.799 778.331 936.174 778.706C936.549 779.081 936.76 779.59 936.76 780.12V797C936.76 797.53 936.549 798.039 936.174 798.414C935.799 798.789 935.29 799 934.76 799ZM919.88 795H932.76V782.12H919.88V795Z" fill="#A166FF"/>
<path d="M961 778.38H944.12C943.59 778.38 943.081 778.169 942.706 777.794C942.331 777.419 942.12 776.91 942.12 776.38V759.5C942.12 758.97 942.331 758.461 942.706 758.086C943.081 757.711 943.59 757.5 944.12 757.5H961C961.53 757.5 962.039 757.711 962.414 758.086C962.789 758.461 963 758.97 963 759.5V776.38C963 776.91 962.789 777.419 962.414 777.794C962.039 778.169 961.53 778.38 961 778.38ZM946.12 774.38H959V761.5H946.12V774.38Z" fill="#A166FF"/>
<path d="M961 746.5H944.12C943.59 746.5 943.081 746.289 942.706 745.914C942.331 745.539 942.12 745.03 942.12 744.5V727.62C942.12 727.09 942.331 726.581 942.706 726.206C943.081 725.831 943.59 725.62 944.12 725.62H961C961.53 725.62 962.039 725.831 962.414 726.206C962.789 726.581 963 727.09 963 727.62V744.5C963 745.03 962.789 745.539 962.414 745.914C962.039 746.289 961.53 746.5 961 746.5ZM946.12 742.5H959V729.62H946.12V742.5Z" fill="#A166FF"/>
<path d="M886.94 776.5C878.3 776.5 868.94 774.1 868.94 768.84V736.5C868.94 731.24 878.24 728.84 886.94 728.84C895.64 728.84 904.94 731.24 904.94 736.5V768.84C904.88 774.1 895.58 776.5 886.94 776.5ZM886.94 732.84C877.8 732.84 872.94 735.56 872.94 736.5V768.84C872.94 769.78 877.74 772.5 886.94 772.5C896.14 772.5 900.94 769.78 900.94 768.84V736.5C900.88 735.56 896 732.84 886.94 732.84Z" fill="#A166FF"/>
<path d="M886.94 743.18C878.3 743.18 868.94 740.78 868.94 735.52H872.94C872.94 736.46 877.74 739.18 886.94 739.18C896.14 739.18 900.94 736.46 900.94 735.52H904.94C904.88 740.78 895.58 743.18 886.94 743.18Z" fill="#A166FF"/>
<path d="M593 571.5H503C502.47 571.5 501.961 571.289 501.586 570.914C501.211 570.539 501 570.03 501 569.5V524.5C501 523.97 501.211 523.461 501.586 523.086C501.961 522.711 502.47 522.5 503 522.5H593C593.53 522.5 594.039 522.711 594.414 523.086C594.789 523.461 595 523.97 595 524.5V569.5C595 570.03 594.789 570.539 594.414 570.914C594.039 571.289 593.53 571.5 593 571.5ZM505 567.5H591V526.5H505V567.5Z" fill="#4112A4"/>
<path d="M556.38 518.06C555.883 516.218 554.792 514.591 553.277 513.431C551.763 512.271 549.908 511.642 548 511.642C546.092 511.642 544.237 512.271 542.722 513.431C541.208 514.591 540.117 516.218 539.62 518.06L535.76 517C536.474 514.298 538.061 511.908 540.275 510.203C542.489 508.498 545.205 507.574 548 507.574C550.794 507.574 553.51 508.498 555.724 510.203C557.938 511.908 559.526 514.298 560.24 517L556.38 518.06Z" fill="#4112A4"/>
<path d="M563.04 513.96C561.775 511.032 559.681 508.538 557.015 506.786C554.35 505.034 551.23 504.1 548.04 504.1C544.85 504.1 541.73 505.034 539.065 506.786C536.399 508.538 534.305 511.032 533.04 513.96L529.36 512.38C530.921 508.707 533.528 505.574 536.857 503.371C540.186 501.169 544.089 499.995 548.08 499.995C552.071 499.995 555.974 501.169 559.303 503.371C562.632 505.574 565.239 508.707 566.8 512.38L563.04 513.96Z" fill="#4112A4"/>
<path d="M548 586.36C545.212 586.371 542.5 585.458 540.286 583.765C538.071 582.072 536.48 579.693 535.76 577L539.62 575.98C540.117 577.822 541.208 579.449 542.722 580.609C544.237 581.769 546.092 582.398 548 582.398C549.908 582.398 551.763 581.769 553.277 580.609C554.792 579.449 555.883 577.822 556.38 575.98L560.24 577C559.52 579.693 557.928 582.072 555.714 583.765C553.5 585.458 550.787 586.371 548 586.36Z" fill="#4112A4"/>
<path d="M548 594C544.009 594.003 540.105 592.831 536.776 590.629C533.447 588.427 530.839 585.294 529.28 581.62L532.96 580.04C534.225 582.968 536.319 585.462 538.985 587.214C541.65 588.966 544.77 589.9 547.96 589.9C551.15 589.9 554.27 588.966 556.935 587.214C559.6 585.462 561.695 582.968 562.96 580.04L566.64 581.62C565.086 585.281 562.491 588.406 559.178 590.607C555.864 592.808 551.978 593.987 548 594Z" fill="#4112A4"/>
<path d="M514.26 558.24C516.845 558.24 518.94 556.145 518.94 553.56C518.94 550.975 516.845 548.88 514.26 548.88C511.675 548.88 509.58 550.975 509.58 553.56C509.58 556.145 511.675 558.24 514.26 558.24Z" fill="#4112A4"/>
<path d="M516.26 556.38H512.26V569.5H516.26V556.38Z" fill="#4112A4"/>
<path d="M517.1 541.42C519.685 541.42 521.78 539.325 521.78 536.74C521.78 534.155 519.685 532.06 517.1 532.06C514.515 532.06 512.42 534.155 512.42 536.74C512.42 539.325 514.515 541.42 517.1 541.42Z" fill="#4112A4"/>
<path d="M531.26 569.5H527.26V549.7L516.58 539.04L519.42 536.22L531.26 548.04V569.5Z" fill="#4112A4"/>
<path d="M587.5 549H572.24V533.76H587.5V549ZM576.24 545H583.5V537.76H576.24V545Z" fill="#4112A4"/>
<path d="M560.18 546.06C562.765 546.06 564.86 543.965 564.86 541.38C564.86 538.795 562.765 536.7 560.18 536.7C557.595 536.7 555.5 538.795 555.5 541.38C555.5 543.965 557.595 546.06 560.18 546.06Z" fill="#4112A4"/>
<path d="M574.24 539.38H561.12V543.38H574.24V539.38Z" fill="#4112A4"/>
<path d="M553.62 562.94C556.205 562.94 558.3 560.845 558.3 558.26C558.3 555.675 556.205 553.58 553.62 553.58C551.035 553.58 548.94 555.675 548.94 558.26C548.94 560.845 551.035 562.94 553.62 562.94Z" fill="#4112A4"/>
<path d="M593 556.26H557.38V560.26H593V556.26Z" fill="#4112A4"/>
<path d="M543.32 550.74C545.905 550.74 548 548.645 548 546.06C548 543.475 545.905 541.38 543.32 541.38C540.735 541.38 538.64 543.475 538.64 546.06C538.64 548.645 540.735 550.74 543.32 550.74Z" fill="#4112A4"/>
<path d="M541 546.58L529.18 534.76L529.12 524.52L533.12 524.48L533.16 533.1L543.84 543.76L541 546.58Z" fill="#4112A4"/>
<path d="M526.98 626V608.938H531.797C533.281 608.938 534.594 609.266 535.734 609.922C536.875 610.578 537.754 611.512 538.371 612.723C538.996 613.934 539.312 615.324 539.32 616.895V617.984C539.32 619.594 539.008 621.004 538.383 622.215C537.766 623.426 536.879 624.355 535.723 625.004C534.574 625.652 533.234 625.984 531.703 626H526.98ZM529.23 610.789V624.16H531.598C533.332 624.16 534.68 623.621 535.641 622.543C536.609 621.465 537.094 619.93 537.094 617.938V616.941C537.094 615.004 536.637 613.5 535.723 612.43C534.816 611.352 533.527 610.805 531.855 610.789H529.23ZM551.895 621.547H544.746L543.141 626H540.82L547.336 608.938H549.305L555.832 626H553.523L551.895 621.547ZM545.426 619.695H551.227L548.32 611.715L545.426 619.695ZM571.02 618.02C571.02 619.668 570.758 621.09 570.234 622.285C569.711 623.473 568.977 624.402 568.031 625.074L571.078 627.465L569.543 628.883L565.945 626.023C565.383 626.164 564.789 626.234 564.164 626.234C562.82 626.234 561.629 625.906 560.59 625.25C559.551 624.586 558.742 623.645 558.164 622.426C557.594 621.199 557.301 619.781 557.285 618.172V616.941C557.285 615.301 557.57 613.852 558.141 612.594C558.711 611.336 559.516 610.375 560.555 609.711C561.602 609.039 562.797 608.703 564.141 608.703C565.516 608.703 566.723 609.035 567.762 609.699C568.809 610.363 569.613 611.32 570.176 612.57C570.738 613.812 571.02 615.266 571.02 616.93V618.02ZM568.77 616.918C568.77 614.91 568.367 613.363 567.562 612.277C566.766 611.184 565.625 610.637 564.141 610.637C562.727 610.637 561.609 611.18 560.789 612.266C559.977 613.344 559.559 614.844 559.535 616.766V618.02C559.535 619.973 559.941 621.512 560.754 622.637C561.574 623.762 562.711 624.324 564.164 624.324C565.617 624.324 566.742 623.797 567.539 622.742C568.336 621.68 568.746 620.16 568.77 618.184V616.918Z" fill="black"/>
</svg>
