<svg viewBox="0 0 980 548" fill="none" xmlns="http://www.w3.org/2000/svg">
<path d="M927.1 258.74C912.16 258.74 897.1 254.74 897.1 246.9C897.1 239.06 912.16 235 927.1 235C942.04 235 957.1 239 957.1 246.84C957.1 254.68 942.02 258.74 927.1 258.74ZM927.1 239.06C911.2 239 901 243.7 901 247C901 250.3 911.14 254.84 927 254.84C942.86 254.84 953 250.2 953 247C953 243.8 943 239 927.1 239V239.06Z" fill="#46B31F"/>
<path d="M927.1 298.12C912.16 298.12 897.1 294.12 897.1 286.28V247H901.1V286.28C901.1 289.48 911.24 294.12 927.1 294.12C942.96 294.12 953.1 289.48 953.1 286.28V247H957.1V286.28C957.14 294.06 942.02 298.12 927.1 298.12Z" fill="#46B31F"/>
<path d="M927.24 272.78C912.3 272.78 897.24 268.78 897.24 260.94H901.24C901.24 264.14 911.38 268.78 927.24 268.78C943.1 268.78 953.24 264.14 953.24 260.94H957.24C957.28 268.72 942.16 272.78 927.24 272.78Z" fill="#46B31F"/>
<path d="M927.24 286.5C912.3 286.5 897.24 282.5 897.24 274.66H901.24C901.24 277.84 911.38 282.5 927.24 282.5C943.1 282.5 953.24 277.84 953.24 274.66H957.24C957.28 282.42 942.16 286.5 927.24 286.5Z" fill="#46B31F"/>
<path d="M926.76 309C911.8 309 900.38 304.8 897 298.06L900.58 296.24C902.58 300.24 910.74 305 926.82 305C942.38 305 951.5 299.96 953.02 296.38L956.7 297.94C953.9 304.44 941.6 309 926.76 309Z" fill="#46B31F"/>
<path d="M926.76 323.38C911.8 323.38 900.38 319.18 896.94 312.44L900.52 310.64C902.52 314.64 910.68 319.38 926.76 319.38C942.32 319.38 951.44 314.34 952.96 310.76L956.64 312.32C953.9 318.82 941.6 323.38 926.76 323.38Z" fill="#46B31F"/>
<path d="M901.04 293.32H897.04V327.08H901.04V293.32Z" fill="#46B31F"/>
<path d="M957.28 308.32H953.28V327.08H957.28V308.32Z" fill="#46B31F"/>
<path d="M919.8 297.06H915.8V313.94H919.8V297.06Z" fill="#46B31F"/>
<path d="M938.52 300.82H934.52V328.94H938.52V300.82Z" fill="#46B31F"/>
<path d="M957.28 293.32H953.28V304.58H957.28V293.32Z" fill="#46B31F"/>
<path d="M879.98 355V337.938H884.797C886.281 337.938 887.594 338.266 888.734 338.922C889.875 339.578 890.754 340.512 891.371 341.723C891.996 342.934 892.312 344.324 892.32 345.895V346.984C892.32 348.594 892.008 350.004 891.383 351.215C890.766 352.426 889.879 353.355 888.723 354.004C887.574 354.652 886.234 354.984 884.703 355H879.98ZM882.23 339.789V353.16H884.598C886.332 353.16 887.68 352.621 888.641 351.543C889.609 350.465 890.094 348.93 890.094 346.938V345.941C890.094 344.004 889.637 342.5 888.723 341.43C887.816 340.352 886.527 339.805 884.855 339.789H882.23ZM903.219 355C903.094 354.75 902.992 354.305 902.914 353.664C901.906 354.711 900.703 355.234 899.305 355.234C898.055 355.234 897.027 354.883 896.223 354.18C895.426 353.469 895.027 352.57 895.027 351.484C895.027 350.164 895.527 349.141 896.527 348.414C897.535 347.68 898.949 347.312 900.77 347.312H902.879V346.316C902.879 345.559 902.652 344.957 902.199 344.512C901.746 344.059 901.078 343.832 900.195 343.832C899.422 343.832 898.773 344.027 898.25 344.418C897.727 344.809 897.465 345.281 897.465 345.836H895.285C895.285 345.203 895.508 344.594 895.953 344.008C896.406 343.414 897.016 342.945 897.781 342.602C898.555 342.258 899.402 342.086 900.324 342.086C901.785 342.086 902.93 342.453 903.758 343.188C904.586 343.914 905.016 344.918 905.047 346.199V352.035C905.047 353.199 905.195 354.125 905.492 354.812V355H903.219ZM899.621 353.348C900.301 353.348 900.945 353.172 901.555 352.82C902.164 352.469 902.605 352.012 902.879 351.449V348.848H901.18C898.523 348.848 897.195 349.625 897.195 351.18C897.195 351.859 897.422 352.391 897.875 352.773C898.328 353.156 898.91 353.348 899.621 353.348ZM911.387 339.25V342.32H913.754V343.996H911.387V351.859C911.387 352.367 911.492 352.75 911.703 353.008C911.914 353.258 912.273 353.383 912.781 353.383C913.031 353.383 913.375 353.336 913.812 353.242V355C913.242 355.156 912.688 355.234 912.148 355.234C911.18 355.234 910.449 354.941 909.957 354.355C909.465 353.77 909.219 352.938 909.219 351.859V343.996H906.91V342.32H909.219V339.25H911.387ZM924.125 355C924 354.75 923.898 354.305 923.82 353.664C922.812 354.711 921.609 355.234 920.211 355.234C918.961 355.234 917.934 354.883 917.129 354.18C916.332 353.469 915.934 352.57 915.934 351.484C915.934 350.164 916.434 349.141 917.434 348.414C918.441 347.68 919.855 347.312 921.676 347.312H923.785V346.316C923.785 345.559 923.559 344.957 923.105 344.512C922.652 344.059 921.984 343.832 921.102 343.832C920.328 343.832 919.68 344.027 919.156 344.418C918.633 344.809 918.371 345.281 918.371 345.836H916.191C916.191 345.203 916.414 344.594 916.859 344.008C917.312 343.414 917.922 342.945 918.688 342.602C919.461 342.258 920.309 342.086 921.23 342.086C922.691 342.086 923.836 342.453 924.664 343.188C925.492 343.914 925.922 344.918 925.953 346.199V352.035C925.953 353.199 926.102 354.125 926.398 354.812V355H924.125ZM920.527 353.348C921.207 353.348 921.852 353.172 922.461 352.82C923.07 352.469 923.512 352.012 923.785 351.449V348.848H922.086C919.43 348.848 918.102 349.625 918.102 351.18C918.102 351.859 918.328 352.391 918.781 352.773C919.234 353.156 919.816 353.348 920.527 353.348ZM940.086 348.801C940.086 350.738 939.641 352.297 938.75 353.477C937.859 354.648 936.664 355.234 935.164 355.234C933.562 355.234 932.324 354.668 931.449 353.535L931.344 355H929.352V337H931.52V343.715C932.395 342.629 933.602 342.086 935.141 342.086C936.68 342.086 937.887 342.668 938.762 343.832C939.645 344.996 940.086 346.59 940.086 348.613V348.801ZM937.918 348.555C937.918 347.078 937.633 345.938 937.062 345.133C936.492 344.328 935.672 343.926 934.602 343.926C933.172 343.926 932.145 344.59 931.52 345.918V351.402C932.184 352.73 933.219 353.395 934.625 353.395C935.664 353.395 936.473 352.992 937.051 352.188C937.629 351.383 937.918 350.172 937.918 348.555ZM950.656 355C950.531 354.75 950.43 354.305 950.352 353.664C949.344 354.711 948.141 355.234 946.742 355.234C945.492 355.234 944.465 354.883 943.66 354.18C942.863 353.469 942.465 352.57 942.465 351.484C942.465 350.164 942.965 349.141 943.965 348.414C944.973 347.68 946.387 347.312 948.207 347.312H950.316V346.316C950.316 345.559 950.09 344.957 949.637 344.512C949.184 344.059 948.516 343.832 947.633 343.832C946.859 343.832 946.211 344.027 945.688 344.418C945.164 344.809 944.902 345.281 944.902 345.836H942.723C942.723 345.203 942.945 344.594 943.391 344.008C943.844 343.414 944.453 342.945 945.219 342.602C945.992 342.258 946.84 342.086 947.762 342.086C949.223 342.086 950.367 342.453 951.195 343.188C952.023 343.914 952.453 344.918 952.484 346.199V352.035C952.484 353.199 952.633 354.125 952.93 354.812V355H950.656ZM947.059 353.348C947.738 353.348 948.383 353.172 948.992 352.82C949.602 352.469 950.043 352.012 950.316 351.449V348.848H948.617C945.961 348.848 944.633 349.625 944.633 351.18C944.633 351.859 944.859 352.391 945.312 352.773C945.766 353.156 946.348 353.348 947.059 353.348ZM963.266 351.637C963.266 351.051 963.043 350.598 962.598 350.277C962.16 349.949 961.391 349.668 960.289 349.434C959.195 349.199 958.324 348.918 957.676 348.59C957.035 348.262 956.559 347.871 956.246 347.418C955.941 346.965 955.789 346.426 955.789 345.801C955.789 344.762 956.227 343.883 957.102 343.164C957.984 342.445 959.109 342.086 960.477 342.086C961.914 342.086 963.078 342.457 963.969 343.199C964.867 343.941 965.316 344.891 965.316 346.047H963.137C963.137 345.453 962.883 344.941 962.375 344.512C961.875 344.082 961.242 343.867 960.477 343.867C959.688 343.867 959.07 344.039 958.625 344.383C958.18 344.727 957.957 345.176 957.957 345.73C957.957 346.254 958.164 346.648 958.578 346.914C958.992 347.18 959.738 347.434 960.816 347.676C961.902 347.918 962.781 348.207 963.453 348.543C964.125 348.879 964.621 349.285 964.941 349.762C965.27 350.23 965.434 350.805 965.434 351.484C965.434 352.617 964.98 353.527 964.074 354.215C963.168 354.895 961.992 355.234 960.547 355.234C959.531 355.234 958.633 355.055 957.852 354.695C957.07 354.336 956.457 353.836 956.012 353.195C955.574 352.547 955.355 351.848 955.355 351.098H957.523C957.562 351.824 957.852 352.402 958.391 352.832C958.938 353.254 959.656 353.465 960.547 353.465C961.367 353.465 962.023 353.301 962.516 352.973C963.016 352.637 963.266 352.191 963.266 351.637ZM973.52 355.234C971.801 355.234 970.402 354.672 969.324 353.547C968.246 352.414 967.707 350.902 967.707 349.012V348.613C967.707 347.355 967.945 346.234 968.422 345.25C968.906 344.258 969.578 343.484 970.438 342.93C971.305 342.367 972.242 342.086 973.25 342.086C974.898 342.086 976.18 342.629 977.094 343.715C978.008 344.801 978.465 346.355 978.465 348.379V349.281H969.875C969.906 350.531 970.27 351.543 970.965 352.316C971.668 353.082 972.559 353.465 973.637 353.465C974.402 353.465 975.051 353.309 975.582 352.996C976.113 352.684 976.578 352.27 976.977 351.754L978.301 352.785C977.238 354.418 975.645 355.234 973.52 355.234ZM973.25 343.867C972.375 343.867 971.641 344.188 971.047 344.828C970.453 345.461 970.086 346.352 969.945 347.5H976.297V347.336C976.234 346.234 975.938 345.383 975.406 344.781C974.875 344.172 974.156 343.867 973.25 343.867Z" fill="black"/>
<path d="M499 311H481C480.727 311.002 480.457 310.948 480.206 310.841C479.955 310.734 479.728 310.577 479.54 310.38C479.352 310.18 479.207 309.944 479.114 309.686C479.021 309.428 478.982 309.154 479 308.88L479.34 303.1C476.004 302.174 472.799 300.83 469.8 299.1L466 303.48C465.818 303.682 465.596 303.845 465.348 303.959C465.1 304.072 464.832 304.134 464.56 304.14C464.01 304.146 463.479 303.938 463.08 303.56L450.44 291C450.247 290.806 450.096 290.575 449.997 290.32C449.897 290.066 449.85 289.793 449.86 289.52C449.866 289.248 449.928 288.98 450.041 288.732C450.155 288.484 450.318 288.262 450.52 288.08L454.86 284.22C453.163 281.193 451.866 277.96 451 274.6L445.12 275C444.847 275.016 444.574 274.977 444.318 274.884C444.061 274.791 443.826 274.646 443.628 274.458C443.429 274.271 443.271 274.045 443.163 273.794C443.055 273.543 442.999 273.273 443 273V255C442.998 254.727 443.052 254.457 443.159 254.206C443.266 253.955 443.423 253.728 443.62 253.54C443.82 253.352 444.056 253.207 444.314 253.114C444.572 253.021 444.846 252.982 445.12 253L451 253.4C451.916 250.067 453.261 246.867 455 243.88L450.52 240C450.318 239.818 450.155 239.596 450.041 239.348C449.928 239.101 449.866 238.832 449.86 238.56C449.839 238.274 449.88 237.986 449.98 237.717C450.08 237.448 450.237 237.203 450.44 237L463 224.44C463.399 224.062 463.93 223.854 464.48 223.86C464.752 223.866 465.02 223.928 465.268 224.041C465.516 224.155 465.738 224.318 465.92 224.52L469.8 228.88C472.818 227.176 476.045 225.872 479.4 225L479 219.12C478.982 218.846 479.021 218.572 479.114 218.314C479.207 218.056 479.352 217.82 479.54 217.62C479.728 217.423 479.955 217.266 480.206 217.159C480.457 217.052 480.727 216.998 481 217H499C499.273 216.998 499.543 217.052 499.794 217.159C500.045 217.266 500.272 217.423 500.46 217.62C500.648 217.82 500.793 218.056 500.886 218.314C500.979 218.572 501.018 218.846 501 219.12L500.6 225C503.921 225.931 507.113 227.275 510.1 229L514.1 224.64C514.287 224.44 514.513 224.281 514.764 224.172C515.015 224.063 515.286 224.007 515.56 224.007C515.834 224.007 516.105 224.063 516.356 224.172C516.607 224.281 516.833 224.44 517.02 224.64L529.56 237C529.753 237.194 529.904 237.425 530.003 237.68C530.103 237.934 530.15 238.207 530.14 238.48C530.134 238.752 530.072 239.021 529.959 239.268C529.845 239.516 529.682 239.738 529.48 239.92L525.12 243.8C526.85 246.792 528.194 249.991 529.12 253.32L534.92 252.98C535.194 252.962 535.468 253.001 535.726 253.094C535.984 253.187 536.22 253.332 536.42 253.52C536.613 253.714 536.764 253.945 536.863 254.2C536.963 254.454 537.01 254.727 537 255V273C537.002 273.273 536.948 273.543 536.841 273.794C536.734 274.045 536.577 274.272 536.38 274.46C536.18 274.648 535.944 274.793 535.686 274.886C535.428 274.979 535.154 275.018 534.88 275L529 274.6C528.08 277.938 526.735 281.144 525 284.14L529.34 288C529.542 288.182 529.705 288.404 529.819 288.652C529.932 288.9 529.994 289.168 530 289.44C530.01 289.713 529.963 289.986 529.863 290.24C529.764 290.495 529.613 290.726 529.42 290.92L517 303.56C516.593 303.926 516.067 304.132 515.52 304.14C515.248 304.134 514.979 304.072 514.732 303.959C514.484 303.845 514.262 303.682 514.08 303.48L510.22 299.14C507.229 300.887 504.022 302.232 500.68 303.14L501 308.88C501.018 309.154 500.979 309.428 500.886 309.686C500.793 309.944 500.648 310.18 500.46 310.38C500.272 310.577 500.045 310.734 499.794 310.841C499.543 310.948 499.273 311.002 499 311ZM483.24 307H496.88L496.58 301.66C496.569 301.198 496.718 300.746 497.002 300.381C497.287 300.016 497.689 299.762 498.14 299.66C502.178 298.757 506.028 297.16 509.52 294.94C509.92 294.687 510.397 294.585 510.866 294.651C511.335 294.717 511.765 294.947 512.08 295.3L515.64 299.3L525.3 289.64L521.3 286.08C520.947 285.765 520.717 285.335 520.651 284.866C520.585 284.397 520.687 283.92 520.94 283.52C523.142 280.021 524.732 276.173 525.64 272.14C525.742 271.689 525.996 271.287 526.361 271.002C526.726 270.718 527.178 270.569 527.64 270.58L533 270.88V257.18L527.64 257.48C527.178 257.491 526.726 257.342 526.361 257.058C525.996 256.773 525.742 256.371 525.64 255.92C524.73 251.891 523.133 248.048 520.92 244.56C520.667 244.16 520.565 243.683 520.631 243.214C520.697 242.745 520.927 242.315 521.28 242L525.28 238.42L515.58 228.76L512 232.76C511.684 233.118 511.25 233.352 510.777 233.418C510.303 233.484 509.822 233.378 509.42 233.12C505.931 230.926 502.098 229.337 498.08 228.42C497.629 228.318 497.227 228.064 496.942 227.699C496.658 227.334 496.509 226.882 496.52 226.42L496.82 221H483.18L483.48 226.38C483.491 226.842 483.342 227.294 483.058 227.659C482.773 228.024 482.371 228.278 481.92 228.38C477.889 229.276 474.045 230.866 470.56 233.08C470.16 233.333 469.683 233.435 469.214 233.369C468.745 233.303 468.315 233.073 468 232.72L464.42 228.72L454.76 238.42L458.76 242C459.113 242.315 459.343 242.745 459.409 243.214C459.475 243.683 459.373 244.16 459.12 244.56C456.915 248.052 455.319 251.893 454.4 255.92C454.298 256.371 454.044 256.773 453.679 257.058C453.314 257.342 452.862 257.491 452.4 257.48L447 257.18V270.82L452.34 270.52C452.802 270.509 453.254 270.658 453.619 270.942C453.984 271.227 454.238 271.629 454.34 272.08C455.236 276.117 456.826 279.968 459.04 283.46C459.293 283.86 459.395 284.337 459.329 284.806C459.263 285.275 459.033 285.705 458.68 286.02L454.68 289.58L464.34 299.24L467.9 295.24C468.215 294.887 468.645 294.657 469.114 294.591C469.583 294.525 470.06 294.627 470.46 294.88C473.958 297.089 477.806 298.685 481.84 299.6C482.291 299.702 482.693 299.956 482.978 300.321C483.262 300.686 483.411 301.138 483.4 301.6L483.24 307Z" fill="#CD2264"/>
<path d="M490.14 287.56C484.85 287.583 479.707 285.818 475.546 282.551C471.385 279.283 468.451 274.705 467.22 269.56L471.22 268.64C472.259 272.966 474.743 276.809 478.26 279.533C481.777 282.258 486.118 283.702 490.567 283.628C495.015 283.553 499.305 281.964 502.729 279.123C506.153 276.282 508.506 272.358 509.4 268L513.4 268.8C512.28 274.129 509.352 278.907 505.114 282.326C500.875 285.744 495.585 287.594 490.14 287.56Z" fill="#CD2264"/>
<path d="M471 260.08L467 259.28C468.062 254.127 470.817 249.478 474.826 246.071C478.836 242.665 483.869 240.697 489.126 240.481C494.382 240.265 499.56 241.813 503.836 244.878C508.111 247.944 511.238 252.352 512.72 257.4L509 258.52C507.782 254.311 505.188 250.633 501.633 248.072C498.077 245.512 493.766 244.219 489.388 244.398C485.011 244.578 480.82 246.221 477.486 249.064C474.152 251.907 471.869 255.786 471 260.08Z" fill="#CD2264"/>
<path d="M502.46 255.24L503.22 253.78L510.42 257.42L513.54 249.96L515.06 250.6L511.26 259.68L502.46 255.24Z" fill="#CD2264"/>
<path d="M467.66 283.1L463.66 282.28L466.54 268.52C466.655 268.011 466.964 267.568 467.401 267.284C467.838 267 468.369 266.898 468.88 267L483.26 269.26L482.64 273.26L470.14 271.26L467.66 283.1Z" fill="#CD2264"/>
<path d="M511.68 261.68C511.405 261.682 511.133 261.628 510.88 261.52L497.58 255.52L499.22 251.86L510.76 257L516.28 246.18L519.84 248L513.48 260.6C513.31 260.929 513.051 261.204 512.733 261.395C512.415 261.586 512.051 261.684 511.68 261.68Z" fill="#CD2264"/>
<path d="M448.828 337.098H444.82V344H442.559V326.938H448.207C450.129 326.938 451.605 327.375 452.637 328.25C453.676 329.125 454.195 330.398 454.195 332.07C454.195 333.133 453.906 334.059 453.328 334.848C452.758 335.637 451.961 336.227 450.938 336.617L454.945 343.859V344H452.531L448.828 337.098ZM444.82 335.258H448.277C449.395 335.258 450.281 334.969 450.938 334.391C451.602 333.812 451.934 333.039 451.934 332.07C451.934 331.016 451.617 330.207 450.984 329.645C450.359 329.082 449.453 328.797 448.266 328.789H444.82V335.258ZM462.281 344.234C460.562 344.234 459.164 343.672 458.086 342.547C457.008 341.414 456.469 339.902 456.469 338.012V337.613C456.469 336.355 456.707 335.234 457.184 334.25C457.668 333.258 458.34 332.484 459.199 331.93C460.066 331.367 461.004 331.086 462.012 331.086C463.66 331.086 464.941 331.629 465.855 332.715C466.77 333.801 467.227 335.355 467.227 337.379V338.281H458.637C458.668 339.531 459.031 340.543 459.727 341.316C460.43 342.082 461.32 342.465 462.398 342.465C463.164 342.465 463.812 342.309 464.344 341.996C464.875 341.684 465.34 341.27 465.738 340.754L467.062 341.785C466 343.418 464.406 344.234 462.281 344.234ZM462.012 332.867C461.137 332.867 460.402 333.188 459.809 333.828C459.215 334.461 458.848 335.352 458.707 336.5H465.059V336.336C464.996 335.234 464.699 334.383 464.168 333.781C463.637 333.172 462.918 332.867 462.012 332.867ZM477.574 344C477.449 343.75 477.348 343.305 477.27 342.664C476.262 343.711 475.059 344.234 473.66 344.234C472.41 344.234 471.383 343.883 470.578 343.18C469.781 342.469 469.383 341.57 469.383 340.484C469.383 339.164 469.883 338.141 470.883 337.414C471.891 336.68 473.305 336.312 475.125 336.312H477.234V335.316C477.234 334.559 477.008 333.957 476.555 333.512C476.102 333.059 475.434 332.832 474.551 332.832C473.777 332.832 473.129 333.027 472.605 333.418C472.082 333.809 471.82 334.281 471.82 334.836H469.641C469.641 334.203 469.863 333.594 470.309 333.008C470.762 332.414 471.371 331.945 472.137 331.602C472.91 331.258 473.758 331.086 474.68 331.086C476.141 331.086 477.285 331.453 478.113 332.188C478.941 332.914 479.371 333.918 479.402 335.199V341.035C479.402 342.199 479.551 343.125 479.848 343.812V344H477.574ZM473.977 342.348C474.656 342.348 475.301 342.172 475.91 341.82C476.52 341.469 476.961 341.012 477.234 340.449V337.848H475.535C472.879 337.848 471.551 338.625 471.551 340.18C471.551 340.859 471.777 341.391 472.23 341.773C472.684 342.156 473.266 342.348 473.977 342.348ZM485.156 344H482.988V326H485.156V344ZM497.531 328.25V331.32H499.898V332.996H497.531V340.859C497.531 341.367 497.637 341.75 497.848 342.008C498.059 342.258 498.418 342.383 498.926 342.383C499.176 342.383 499.52 342.336 499.957 342.242V344C499.387 344.156 498.832 344.234 498.293 344.234C497.324 344.234 496.594 343.941 496.102 343.355C495.609 342.77 495.363 341.938 495.363 340.859V332.996H493.055V331.32H495.363V328.25H497.531ZM504.797 344H502.629V331.32H504.797V344ZM502.453 327.957C502.453 327.605 502.559 327.309 502.77 327.066C502.988 326.824 503.309 326.703 503.73 326.703C504.152 326.703 504.473 326.824 504.691 327.066C504.91 327.309 505.02 327.605 505.02 327.957C505.02 328.309 504.91 328.602 504.691 328.836C504.473 329.07 504.152 329.188 503.73 329.188C503.309 329.188 502.988 329.07 502.77 328.836C502.559 328.602 502.453 328.309 502.453 327.957ZM510.316 331.32L510.375 332.727C511.305 331.633 512.559 331.086 514.137 331.086C515.91 331.086 517.117 331.766 517.758 333.125C518.18 332.516 518.727 332.023 519.398 331.648C520.078 331.273 520.879 331.086 521.801 331.086C524.582 331.086 525.996 332.559 526.043 335.504V344H523.875V335.633C523.875 334.727 523.668 334.051 523.254 333.605C522.84 333.152 522.145 332.926 521.168 332.926C520.363 332.926 519.695 333.168 519.164 333.652C518.633 334.129 518.324 334.773 518.238 335.586V344H516.059V335.691C516.059 333.848 515.156 332.926 513.352 332.926C511.93 332.926 510.957 333.531 510.434 334.742V344H508.266V331.32H510.316ZM534.586 344.234C532.867 344.234 531.469 343.672 530.391 342.547C529.312 341.414 528.773 339.902 528.773 338.012V337.613C528.773 336.355 529.012 335.234 529.488 334.25C529.973 333.258 530.645 332.484 531.504 331.93C532.371 331.367 533.309 331.086 534.316 331.086C535.965 331.086 537.246 331.629 538.16 332.715C539.074 333.801 539.531 335.355 539.531 337.379V338.281H530.941C530.973 339.531 531.336 340.543 532.031 341.316C532.734 342.082 533.625 342.465 534.703 342.465C535.469 342.465 536.117 342.309 536.648 341.996C537.18 341.684 537.645 341.27 538.043 340.754L539.367 341.785C538.305 343.418 536.711 344.234 534.586 344.234ZM534.316 332.867C533.441 332.867 532.707 333.188 532.113 333.828C531.52 334.461 531.152 335.352 531.012 336.5H537.363V336.336C537.301 335.234 537.004 334.383 536.473 333.781C535.941 333.172 535.223 332.867 534.316 332.867ZM412.066 364.395C410.137 363.84 408.73 363.16 407.848 362.355C406.973 361.543 406.535 360.543 406.535 359.355C406.535 358.012 407.07 356.902 408.141 356.027C409.219 355.145 410.617 354.703 412.336 354.703C413.508 354.703 414.551 354.93 415.465 355.383C416.387 355.836 417.098 356.461 417.598 357.258C418.105 358.055 418.359 358.926 418.359 359.871H416.098C416.098 358.84 415.77 358.031 415.113 357.445C414.457 356.852 413.531 356.555 412.336 356.555C411.227 356.555 410.359 356.801 409.734 357.293C409.117 357.777 408.809 358.453 408.809 359.32C408.809 360.016 409.102 360.605 409.688 361.09C410.281 361.566 411.285 362.004 412.699 362.402C414.121 362.801 415.23 363.242 416.027 363.727C416.832 364.203 417.426 364.762 417.809 365.402C418.199 366.043 418.395 366.797 418.395 367.664C418.395 369.047 417.855 370.156 416.777 370.992C415.699 371.82 414.258 372.234 412.453 372.234C411.281 372.234 410.188 372.012 409.172 371.566C408.156 371.113 407.371 370.496 406.816 369.715C406.27 368.934 405.996 368.047 405.996 367.055H408.258C408.258 368.086 408.637 368.902 409.395 369.504C410.16 370.098 411.18 370.395 412.453 370.395C413.641 370.395 414.551 370.152 415.184 369.668C415.816 369.184 416.133 368.523 416.133 367.688C416.133 366.852 415.84 366.207 415.254 365.754C414.668 365.293 413.605 364.84 412.066 364.395ZM425.098 368.824L428.051 359.32H430.371L425.273 373.957C424.484 376.066 423.23 377.121 421.512 377.121L421.102 377.086L420.293 376.934V375.176L420.879 375.223C421.613 375.223 422.184 375.074 422.59 374.777C423.004 374.48 423.344 373.938 423.609 373.148L424.09 371.859L419.566 359.32H421.934L425.098 368.824ZM434.367 359.32L434.438 360.914C435.406 359.695 436.672 359.086 438.234 359.086C440.914 359.086 442.266 360.598 442.289 363.621V372H440.121V363.609C440.113 362.695 439.902 362.02 439.488 361.582C439.082 361.145 438.445 360.926 437.578 360.926C436.875 360.926 436.258 361.113 435.727 361.488C435.195 361.863 434.781 362.355 434.484 362.965V372H432.316V359.32H434.367ZM450.645 370.465C451.418 370.465 452.094 370.23 452.672 369.762C453.25 369.293 453.57 368.707 453.633 368.004H455.684C455.645 368.73 455.395 369.422 454.934 370.078C454.473 370.734 453.855 371.258 453.082 371.648C452.316 372.039 451.504 372.234 450.645 372.234C448.918 372.234 447.543 371.66 446.52 370.512C445.504 369.355 444.996 367.777 444.996 365.777V365.414C444.996 364.18 445.223 363.082 445.676 362.121C446.129 361.16 446.777 360.414 447.621 359.883C448.473 359.352 449.477 359.086 450.633 359.086C452.055 359.086 453.234 359.512 454.172 360.363C455.117 361.215 455.621 362.32 455.684 363.68H453.633C453.57 362.859 453.258 362.188 452.695 361.664C452.141 361.133 451.453 360.867 450.633 360.867C449.531 360.867 448.676 361.266 448.066 362.062C447.465 362.852 447.164 363.996 447.164 365.496V365.906C447.164 367.367 447.465 368.492 448.066 369.281C448.668 370.07 449.527 370.465 450.645 370.465ZM460.289 360.855C461.25 359.676 462.5 359.086 464.039 359.086C466.719 359.086 468.07 360.598 468.094 363.621V372H465.926V363.609C465.918 362.695 465.707 362.02 465.293 361.582C464.887 361.145 464.25 360.926 463.383 360.926C462.68 360.926 462.062 361.113 461.531 361.488C461 361.863 460.586 362.355 460.289 362.965V372H458.121V354H460.289V360.855ZM477.469 361.266C477.141 361.211 476.785 361.184 476.402 361.184C474.98 361.184 474.016 361.789 473.508 363V372H471.34V359.32H473.449L473.484 360.785C474.195 359.652 475.203 359.086 476.508 359.086C476.93 359.086 477.25 359.141 477.469 359.25V361.266ZM478.664 365.543C478.664 364.301 478.906 363.184 479.391 362.191C479.883 361.199 480.562 360.434 481.43 359.895C482.305 359.355 483.301 359.086 484.418 359.086C486.145 359.086 487.539 359.684 488.602 360.879C489.672 362.074 490.207 363.664 490.207 365.648V365.801C490.207 367.035 489.969 368.145 489.492 369.129C489.023 370.105 488.348 370.867 487.465 371.414C486.59 371.961 485.582 372.234 484.441 372.234C482.723 372.234 481.328 371.637 480.258 370.441C479.195 369.246 478.664 367.664 478.664 365.695V365.543ZM480.844 365.801C480.844 367.207 481.168 368.336 481.816 369.188C482.473 370.039 483.348 370.465 484.441 370.465C485.543 370.465 486.418 370.035 487.066 369.176C487.715 368.309 488.039 367.098 488.039 365.543C488.039 364.152 487.707 363.027 487.043 362.168C486.387 361.301 485.512 360.867 484.418 360.867C483.348 360.867 482.484 361.293 481.828 362.145C481.172 362.996 480.844 364.215 480.844 365.801ZM494.977 359.32L495.047 360.914C496.016 359.695 497.281 359.086 498.844 359.086C501.523 359.086 502.875 360.598 502.898 363.621V372H500.73V363.609C500.723 362.695 500.512 362.02 500.098 361.582C499.691 361.145 499.055 360.926 498.188 360.926C497.484 360.926 496.867 361.113 496.336 361.488C495.805 361.863 495.391 362.355 495.094 362.965V372H492.926V359.32H494.977ZM508.523 372H506.355V359.32H508.523V372ZM506.18 355.957C506.18 355.605 506.285 355.309 506.496 355.066C506.715 354.824 507.035 354.703 507.457 354.703C507.879 354.703 508.199 354.824 508.418 355.066C508.637 355.309 508.746 355.605 508.746 355.957C508.746 356.309 508.637 356.602 508.418 356.836C508.199 357.07 507.879 357.188 507.457 357.188C507.035 357.188 506.715 357.07 506.496 356.836C506.285 356.602 506.18 356.309 506.18 355.957ZM514.043 370.23H521.461V372H511.395V370.406L518.391 361.113H511.5V359.32H521.109V360.855L514.043 370.23ZM531.738 372C531.613 371.75 531.512 371.305 531.434 370.664C530.426 371.711 529.223 372.234 527.824 372.234C526.574 372.234 525.547 371.883 524.742 371.18C523.945 370.469 523.547 369.57 523.547 368.484C523.547 367.164 524.047 366.141 525.047 365.414C526.055 364.68 527.469 364.312 529.289 364.312H531.398V363.316C531.398 362.559 531.172 361.957 530.719 361.512C530.266 361.059 529.598 360.832 528.715 360.832C527.941 360.832 527.293 361.027 526.77 361.418C526.246 361.809 525.984 362.281 525.984 362.836H523.805C523.805 362.203 524.027 361.594 524.473 361.008C524.926 360.414 525.535 359.945 526.301 359.602C527.074 359.258 527.922 359.086 528.844 359.086C530.305 359.086 531.449 359.453 532.277 360.188C533.105 360.914 533.535 361.918 533.566 363.199V369.035C533.566 370.199 533.715 371.125 534.012 371.812V372H531.738ZM528.141 370.348C528.82 370.348 529.465 370.172 530.074 369.82C530.684 369.469 531.125 369.012 531.398 368.449V365.848H529.699C527.043 365.848 525.715 366.625 525.715 368.18C525.715 368.859 525.941 369.391 526.395 369.773C526.848 370.156 527.43 370.348 528.141 370.348ZM539.906 356.25V359.32H542.273V360.996H539.906V368.859C539.906 369.367 540.012 369.75 540.223 370.008C540.434 370.258 540.793 370.383 541.301 370.383C541.551 370.383 541.895 370.336 542.332 370.242V372C541.762 372.156 541.207 372.234 540.668 372.234C539.699 372.234 538.969 371.941 538.477 371.355C537.984 370.77 537.738 369.938 537.738 368.859V360.996H535.43V359.32H537.738V356.25H539.906ZM547.172 372H545.004V359.32H547.172V372ZM544.828 355.957C544.828 355.605 544.934 355.309 545.145 355.066C545.363 354.824 545.684 354.703 546.105 354.703C546.527 354.703 546.848 354.824 547.066 355.066C547.285 355.309 547.395 355.605 547.395 355.957C547.395 356.309 547.285 356.602 547.066 356.836C546.848 357.07 546.527 357.188 546.105 357.188C545.684 357.188 545.363 357.07 545.145 356.836C544.934 356.602 544.828 356.309 544.828 355.957ZM550.078 365.543C550.078 364.301 550.32 363.184 550.805 362.191C551.297 361.199 551.977 360.434 552.844 359.895C553.719 359.355 554.715 359.086 555.832 359.086C557.559 359.086 558.953 359.684 560.016 360.879C561.086 362.074 561.621 363.664 561.621 365.648V365.801C561.621 367.035 561.383 368.145 560.906 369.129C560.438 370.105 559.762 370.867 558.879 371.414C558.004 371.961 556.996 372.234 555.855 372.234C554.137 372.234 552.742 371.637 551.672 370.441C550.609 369.246 550.078 367.664 550.078 365.695V365.543ZM552.258 365.801C552.258 367.207 552.582 368.336 553.23 369.188C553.887 370.039 554.762 370.465 555.855 370.465C556.957 370.465 557.832 370.035 558.48 369.176C559.129 368.309 559.453 367.098 559.453 365.543C559.453 364.152 559.121 363.027 558.457 362.168C557.801 361.301 556.926 360.867 555.832 360.867C554.762 360.867 553.898 361.293 553.242 362.145C552.586 362.996 552.258 364.215 552.258 365.801ZM566.391 359.32L566.461 360.914C567.43 359.695 568.695 359.086 570.258 359.086C572.938 359.086 574.289 360.598 574.312 363.621V372H572.145V363.609C572.137 362.695 571.926 362.02 571.512 361.582C571.105 361.145 570.469 360.926 569.602 360.926C568.898 360.926 568.281 361.113 567.75 361.488C567.219 361.863 566.805 362.355 566.508 362.965V372H564.34V359.32H566.391Z" fill="black"/>
<path d="M90.96 69.82H8.95999C7.36869 69.82 5.84257 69.1879 4.71735 68.0626C3.59213 66.9374 2.95999 65.4113 2.95999 63.82V10C2.95999 8.4087 3.59213 6.88258 4.71735 5.75736C5.84257 4.63214 7.36869 4 8.95999 4H90.96C92.5513 4 94.0774 4.63214 95.2026 5.75736C96.3279 6.88258 96.96 8.4087 96.96 10V63.78C96.9653 64.5713 96.814 65.3558 96.5148 66.0884C96.2156 66.821 95.7745 67.4871 95.2168 68.0485C94.6592 68.6099 93.996 69.0555 93.2654 69.3595C92.5348 69.6635 91.7513 69.82 90.96 69.82ZM9.03999 8C8.50956 8 8.00085 8.21071 7.62578 8.58579C7.25071 8.96086 7.03999 9.46957 7.03999 10V63.78C7.03999 64.3104 7.25071 64.8191 7.62578 65.1942C8.00085 65.5693 8.50956 65.78 9.03999 65.78H91.04C91.5704 65.78 92.0791 65.5693 92.4542 65.1942C92.8293 64.8191 93.04 64.3104 93.04 63.78V10C93.04 9.46957 92.8293 8.96086 92.4542 8.58579C92.0791 8.21071 91.5704 8 91.04 8H9.03999Z" fill="#232F3E"/>
<path d="M90 96H10C8.15176 95.9844 6.38334 95.2446 5.07452 93.9396C3.76571 92.6345 3.02088 90.8682 3 89.02V80.36C3.0052 78.5014 3.7431 76.7198 5.0536 75.4018C6.36409 74.0838 8.14145 73.3358 10 73.32H90C91.8655 73.3253 93.6531 74.0687 94.9722 75.3878C96.2913 76.7069 97.0347 78.4945 97.04 80.36V89.02C97.019 90.8751 96.2686 92.6473 94.9512 93.9535C93.6338 95.2597 91.8552 95.9949 90 96ZM10 77.32C9.20069 77.3305 8.4377 77.6555 7.87621 78.2244C7.31472 78.7934 6.99993 79.5606 7 80.36V89.02C7.01551 89.8089 7.33718 90.5609 7.89701 91.117C8.45684 91.6731 9.21098 91.9898 10 92H90C90.8063 92 91.5795 91.6797 92.1496 91.1096C92.7197 90.5395 93.04 89.7663 93.04 88.96V80.36C93.04 79.9608 92.9614 79.5655 92.8086 79.1966C92.6558 78.8278 92.4319 78.4927 92.1496 78.2104C91.8673 77.9281 91.5322 77.7042 91.1634 77.5514C90.7945 77.3986 90.3992 77.32 90 77.32H10Z" fill="#232F3E"/>
<path d="M87.5 62.32H12.5C11.9696 62.32 11.4609 62.1093 11.0858 61.7342C10.7107 61.3591 10.5 60.8504 10.5 60.32V13.44C10.5 12.9096 10.7107 12.4009 11.0858 12.0258C11.4609 11.6507 11.9696 11.44 12.5 11.44H87.5C88.0304 11.44 88.5391 11.6507 88.9142 12.0258C89.2893 12.4009 89.5 12.9096 89.5 13.44V60.32C89.5 60.8504 89.2893 61.3591 88.9142 61.7342C88.5391 62.1093 88.0304 62.32 87.5 62.32ZM14.5 58.32H85.5V15.44H14.5V58.32Z" fill="#232F3E"/>
<path d="M87.5 80.82H65C63.8954 80.82 63 81.7154 63 82.82V86.58C63 87.6846 63.8954 88.58 65 88.58H87.5C88.6046 88.58 89.5 87.6846 89.5 86.58V82.82C89.5 81.7154 88.6046 80.82 87.5 80.82Z" fill="#232F3E"/>
<path d="M33.9688 116.586C33.7578 118.391 33.0898 119.785 31.9648 120.77C30.8477 121.746 29.3594 122.234 27.5 122.234C25.4844 122.234 23.8672 121.512 22.6484 120.066C21.4375 118.621 20.832 116.688 20.832 114.266V112.625C20.832 111.039 21.1133 109.645 21.6758 108.441C22.2461 107.238 23.0508 106.316 24.0898 105.676C25.1289 105.027 26.332 104.703 27.6992 104.703C29.5117 104.703 30.9648 105.211 32.0586 106.227C33.1523 107.234 33.7891 108.633 33.9688 110.422H31.707C31.5117 109.062 31.0859 108.078 30.4297 107.469C29.7812 106.859 28.8711 106.555 27.6992 106.555C26.2617 106.555 25.1328 107.086 24.3125 108.148C23.5 109.211 23.0938 110.723 23.0938 112.684V114.336C23.0938 116.188 23.4805 117.66 24.2539 118.754C25.0273 119.848 26.1094 120.395 27.5 120.395C28.75 120.395 29.707 120.113 30.3711 119.551C31.043 118.98 31.4883 117.992 31.707 116.586H33.9688ZM39.0664 122H36.8984V104H39.0664V122ZM44.9023 122H42.7344V109.32H44.9023V122ZM42.5586 105.957C42.5586 105.605 42.6641 105.309 42.875 105.066C43.0938 104.824 43.4141 104.703 43.8359 104.703C44.2578 104.703 44.5781 104.824 44.7969 105.066C45.0156 105.309 45.125 105.605 45.125 105.957C45.125 106.309 45.0156 106.602 44.7969 106.836C44.5781 107.07 44.2578 107.188 43.8359 107.188C43.4141 107.188 43.0938 107.07 42.875 106.836C42.6641 106.602 42.5586 106.309 42.5586 105.957ZM53.6445 122.234C51.9258 122.234 50.5273 121.672 49.4492 120.547C48.3711 119.414 47.832 117.902 47.832 116.012V115.613C47.832 114.355 48.0703 113.234 48.5469 112.25C49.0312 111.258 49.7031 110.484 50.5625 109.93C51.4297 109.367 52.3672 109.086 53.375 109.086C55.0234 109.086 56.3047 109.629 57.2188 110.715C58.1328 111.801 58.5898 113.355 58.5898 115.379V116.281H50C50.0312 117.531 50.3945 118.543 51.0898 119.316C51.793 120.082 52.6836 120.465 53.7617 120.465C54.5273 120.465 55.1758 120.309 55.707 119.996C56.2383 119.684 56.7031 119.27 57.1016 118.754L58.4258 119.785C57.3633 121.418 55.7695 122.234 53.6445 122.234ZM53.375 110.867C52.5 110.867 51.7656 111.188 51.1719 111.828C50.5781 112.461 50.2109 113.352 50.0703 114.5H56.4219V114.336C56.3594 113.234 56.0625 112.383 55.5312 111.781C55 111.172 54.2812 110.867 53.375 110.867ZM63.1602 109.32L63.2305 110.914C64.1992 109.695 65.4648 109.086 67.0273 109.086C69.707 109.086 71.0586 110.598 71.082 113.621V122H68.9141V113.609C68.9062 112.695 68.6953 112.02 68.2812 111.582C67.875 111.145 67.2383 110.926 66.3711 110.926C65.668 110.926 65.0508 111.113 64.5195 111.488C63.9883 111.863 63.5742 112.355 63.2773 112.965V122H61.1094V109.32H63.1602ZM77.293 106.25V109.32H79.6602V110.996H77.293V118.859C77.293 119.367 77.3984 119.75 77.6094 120.008C77.8203 120.258 78.1797 120.383 78.6875 120.383C78.9375 120.383 79.2812 120.336 79.7188 120.242V122C79.1484 122.156 78.5938 122.234 78.0547 122.234C77.0859 122.234 76.3555 121.941 75.8633 121.355C75.3711 120.77 75.125 119.938 75.125 118.859V110.996H72.8164V109.32H75.125V106.25H77.293Z" fill="black"/>
<path d="M63.9999 514H34.2399C28.2399 514 24.5799 510.94 24.5799 506V429.76C24.5693 427.186 25.5804 424.712 27.3915 422.882C29.2025 421.052 31.6655 420.016 34.2399 420H63.9999C66.5744 420.016 69.0374 421.052 70.8484 422.882C72.6594 424.712 73.6706 427.186 73.66 429.76V437H69.66V429.76C69.6706 428.246 69.0809 426.79 68.02 425.711C66.9591 424.631 65.5135 424.016 63.9999 424H34.2399C32.7264 424.016 31.2808 424.631 30.2199 425.711C29.159 426.79 28.5693 428.246 28.5799 429.76V506.02C28.5799 508.66 30.5799 510.02 34.2399 510.02H63.9999C67.7599 510.02 69.66 508.68 69.66 506.02V501.32H73.66V506.02C73.56 511 69.8599 514 63.9999 514Z" fill="#232F3E"/>
<path d="M58.44 427.5H47.18V431.5H58.44V427.5Z" fill="#232F3E"/>
<path d="M39.68 433C39.0059 433.008 38.3446 432.815 37.7803 432.447C37.2159 432.078 36.7739 431.55 36.5104 430.929C36.2469 430.309 36.1739 429.624 36.3005 428.962C36.4272 428.299 36.7478 427.69 37.2216 427.21C37.6955 426.731 38.3012 426.403 38.9618 426.269C39.6224 426.134 40.3081 426.199 40.9317 426.455C41.5553 426.711 42.0887 427.147 42.4641 427.707C42.8395 428.267 43.0399 428.926 43.04 429.6C43.0426 430.044 42.9578 430.484 42.7904 430.895C42.6229 431.306 42.3762 431.68 42.0642 431.996C41.7522 432.312 41.381 432.563 40.9719 432.735C40.5629 432.907 40.1239 432.997 39.68 433ZM39.68 429C39.5646 429.012 39.455 429.056 39.3646 429.129C39.2741 429.202 39.2066 429.299 39.1702 429.409C39.1339 429.519 39.1302 429.637 39.1597 429.75C39.1892 429.862 39.2506 429.963 39.3364 430.041C39.4222 430.119 39.5288 430.17 39.6433 430.189C39.7577 430.208 39.8752 430.193 39.9814 430.146C40.0875 430.1 40.1779 430.023 40.2416 429.926C40.3052 429.829 40.3394 429.716 40.34 429.6C40.3375 429.517 40.3182 429.435 40.2834 429.359C40.2486 429.284 40.1989 429.216 40.1373 429.16C40.0757 429.104 40.0035 429.061 39.9249 429.033C39.8464 429.006 39.7631 428.995 39.68 429Z" fill="#232F3E"/>
<path d="M73.56 493.26H69.56V439H26.56V435H71.56C72.0905 435 72.5992 435.211 72.9742 435.586C73.3493 435.961 73.56 436.47 73.56 437V493.26Z" fill="#232F3E"/>
<path d="M71.56 502.76H26.56V498.76H69.56V489.5H73.56V500.76C73.56 501.29 73.3493 501.799 72.9742 502.174C72.5992 502.549 72.0905 502.76 71.56 502.76Z" fill="#232F3E"/>
<path d="M33.9688 536.586C33.7578 538.391 33.0898 539.785 31.9648 540.77C30.8477 541.746 29.3594 542.234 27.5 542.234C25.4844 542.234 23.8672 541.512 22.6484 540.066C21.4375 538.621 20.832 536.688 20.832 534.266V532.625C20.832 531.039 21.1133 529.645 21.6758 528.441C22.2461 527.238 23.0508 526.316 24.0898 525.676C25.1289 525.027 26.332 524.703 27.6992 524.703C29.5117 524.703 30.9648 525.211 32.0586 526.227C33.1523 527.234 33.7891 528.633 33.9688 530.422H31.707C31.5117 529.062 31.0859 528.078 30.4297 527.469C29.7812 526.859 28.8711 526.555 27.6992 526.555C26.2617 526.555 25.1328 527.086 24.3125 528.148C23.5 529.211 23.0938 530.723 23.0938 532.684V534.336C23.0938 536.188 23.4805 537.66 24.2539 538.754C25.0273 539.848 26.1094 540.395 27.5 540.395C28.75 540.395 29.707 540.113 30.3711 539.551C31.043 538.98 31.4883 537.992 31.707 536.586H33.9688ZM39.0664 542H36.8984V524H39.0664V542ZM44.9023 542H42.7344V529.32H44.9023V542ZM42.5586 525.957C42.5586 525.605 42.6641 525.309 42.875 525.066C43.0938 524.824 43.4141 524.703 43.8359 524.703C44.2578 524.703 44.5781 524.824 44.7969 525.066C45.0156 525.309 45.125 525.605 45.125 525.957C45.125 526.309 45.0156 526.602 44.7969 526.836C44.5781 527.07 44.2578 527.188 43.8359 527.188C43.4141 527.188 43.0938 527.07 42.875 526.836C42.6641 526.602 42.5586 526.309 42.5586 525.957ZM53.6445 542.234C51.9258 542.234 50.5273 541.672 49.4492 540.547C48.3711 539.414 47.832 537.902 47.832 536.012V535.613C47.832 534.355 48.0703 533.234 48.5469 532.25C49.0312 531.258 49.7031 530.484 50.5625 529.93C51.4297 529.367 52.3672 529.086 53.375 529.086C55.0234 529.086 56.3047 529.629 57.2188 530.715C58.1328 531.801 58.5898 533.355 58.5898 535.379V536.281H50C50.0312 537.531 50.3945 538.543 51.0898 539.316C51.793 540.082 52.6836 540.465 53.7617 540.465C54.5273 540.465 55.1758 540.309 55.707 539.996C56.2383 539.684 56.7031 539.27 57.1016 538.754L58.4258 539.785C57.3633 541.418 55.7695 542.234 53.6445 542.234ZM53.375 530.867C52.5 530.867 51.7656 531.188 51.1719 531.828C50.5781 532.461 50.2109 533.352 50.0703 534.5H56.4219V534.336C56.3594 533.234 56.0625 532.383 55.5312 531.781C55 531.172 54.2812 530.867 53.375 530.867ZM63.1602 529.32L63.2305 530.914C64.1992 529.695 65.4648 529.086 67.0273 529.086C69.707 529.086 71.0586 530.598 71.082 533.621V542H68.9141V533.609C68.9062 532.695 68.6953 532.02 68.2812 531.582C67.875 531.145 67.2383 530.926 66.3711 530.926C65.668 530.926 65.0508 531.113 64.5195 531.488C63.9883 531.863 63.5742 532.355 63.2773 532.965V542H61.1094V529.32H63.1602ZM77.293 526.25V529.32H79.6602V530.996H77.293V538.859C77.293 539.367 77.3984 539.75 77.6094 540.008C77.8203 540.258 78.1797 540.383 78.6875 540.383C78.9375 540.383 79.2812 540.336 79.7188 540.242V542C79.1484 542.156 78.5938 542.234 78.0547 542.234C77.0859 542.234 76.3555 541.941 75.8633 541.355C75.3711 540.77 75.125 539.938 75.125 538.859V530.996H72.8164V529.32H75.125V526.25H77.293Z" fill="black"/>
<line x1="117.083" y1="46.5852" x2="417.083" y2="229.585" stroke="#C6C6C6" stroke-width="8" stroke-dasharray="5 10"/>
<line x1="95.063" y1="460.5" x2="413.063" y2="284.5" stroke="#C6C6C6" stroke-width="8" stroke-dasharray="5 10"/>
<line x1="561" y1="269" x2="859" y2="269" stroke="#C6C6C6" stroke-width="8" stroke-dasharray="5 10"/>
</svg>
