<?xml version="1.0" encoding="utf-8"?>
<!-- Generator: Adobe Illustrator 25.2.0, SVG Export Plug-In . SVG Version: 6.00 Build 0)  -->
<svg version="1.1" id="Base" xmlns="http://www.w3.org/2000/svg" xmlns:xlink="http://www.w3.org/1999/xlink" x="0px" y="0px"
	 viewBox="0 0 512 512" style="enable-background:new 0 0 512 512;" xml:space="preserve">
<style type="text/css">
	.st0{fill:url(#SVGID_1_);}
</style>
<linearGradient id="SVGID_1_" gradientUnits="userSpaceOnUse" x1="69.8182" y1="256" x2="442.1818" y2="256">
	<stop  offset="0" style="stop-color:#FBC024"/>
	<stop  offset="1" style="stop-color:#B45309"/>
</linearGradient>
<path class="st0" d="M256,69.8V0l-93.1,93.1l93.1,93.1v-69.8c77,0,139.6,62.6,139.6,139.6c0,23.5-5.8,45.8-16.3,65.2l34,34
	c18.2-28.6,28.9-62.6,28.9-99.1C442.2,153.1,358.9,69.8,256,69.8z M256,395.6c-77,0-139.6-62.6-139.6-139.6
	c0-23.5,5.8-45.8,16.3-65.2l-34-34c-18.2,28.6-28.9,62.6-28.9,99.1c0,102.9,83.3,186.2,186.2,186.2V512l93.1-93.1L256,325.8V395.6z"
	/>
</svg>
