<?xml version="1.0" encoding="utf-8"?>
<!-- Generator: Adobe Illustrator 25.2.0, SVG Export Plug-In . SVG Version: 6.00 Build 0)  -->
<svg version="1.1" id="Base" xmlns="http://www.w3.org/2000/svg" xmlns:xlink="http://www.w3.org/1999/xlink" x="0px" y="0px"
	 viewBox="0 0 512 512" style="enable-background:new 0 0 512 512;" xml:space="preserve">
<style type="text/css">
	.st0{fill:url(#SVGID_1_);}
</style>
<linearGradient id="SVGID_1_" gradientUnits="userSpaceOnUse" x1="4" y1="256" x2="508" y2="256">
	<stop  offset="0" style="stop-color:#60A5FA"/>
	<stop  offset="1" style="stop-color:#1D4ED8"/>
</linearGradient>
<path class="st0" d="M88,130h378V88H88c-23.1,0-42,18.9-42,42v231H4v63h294v-63H88V130z M487,172H361c-11.5,0-21,9.4-21,21v210
	c0,11.5,9.5,21,21,21h126c11.5,0,21-9.5,21-21V193C508,181.4,498.5,172,487,172z M466,361h-84V214h84V361z"/>
</svg>
